<svg width="108" height="20" viewBox="0 0 108 20" fill="none" xmlns="http://www.w3.org/2000/svg">
<path d="M9.99935 1.66797L12.5743 6.88463L18.3327 7.7263L14.166 11.7846L15.1494 17.518L9.99935 14.8096L4.84935 17.518L5.83268 11.7846L1.66602 7.7263L7.42435 6.88463L9.99935 1.66797Z" fill="#F3A120"/>
<path d="M31.9993 1.66797L34.5743 6.88463L40.3327 7.7263L36.166 11.7846L37.1494 17.518L31.9993 14.8096L26.8493 17.518L27.8327 11.7846L23.666 7.7263L29.4243 6.88463L31.9993 1.66797Z" fill="#F3A120"/>
<path d="M53.9993 1.66797L56.5743 6.88463L62.3327 7.7263L58.166 11.7846L59.1494 17.518L53.9993 14.8096L48.8493 17.518L49.8327 11.7846L45.666 7.7263L51.4243 6.88463L53.9993 1.66797Z" fill="#F3A120"/>
<g opacity="0.4">
<path d="M97.9993 1.66797L100.574 6.88463L106.333 7.7263L102.166 11.7846L103.149 17.518L97.9993 14.8096L92.8493 17.518L93.8327 11.7846L89.666 7.7263L95.4243 6.88463L97.9993 1.66797Z" fill="#808080"/>
</g>
<path d="M75.9993 1.66797L78.5743 6.88463L84.3327 7.7263L80.166 11.7846L81.1494 17.518L75.9993 14.8096L70.8493 17.518L71.8327 11.7846L67.666 7.7263L73.4243 6.88463L75.9993 1.66797Z" fill="#F3A120"/>
</svg>
