<svg width="71" height="70" viewBox="0 0 71 70" fill="none" xmlns="http://www.w3.org/2000/svg">
<path d="M40.5268 33.1954C40.6247 33.3872 40.7735 33.5481 40.9568 33.6605C41.1401 33.7729 41.3507 33.8324 41.5656 33.8324C41.7488 33.8323 41.9294 33.7887 42.0926 33.7052C42.1612 33.6702 49.0085 30.1819 52.3855 29.1121C52.9975 28.9172 53.3371 28.2615 53.1428 27.6479C53.097 27.5017 53.0228 27.366 52.9246 27.2485C52.8264 27.1311 52.706 27.0342 52.5704 26.9634C52.4348 26.8927 52.2866 26.8494 52.1343 26.8362C51.982 26.8229 51.8287 26.8399 51.6829 26.8862C48.1255 28.0143 41.3248 31.4793 41.0364 31.6263C40.4639 31.9179 40.236 32.6204 40.5268 33.1954ZM41.5656 19.8326C41.7488 19.8325 41.9294 19.789 42.0926 19.7055C42.1612 19.6705 49.0085 16.1821 52.3855 15.1123C52.9975 14.9175 53.3371 14.2618 53.1428 13.6482C53.097 13.502 53.0228 13.3662 52.9246 13.2488C52.8264 13.1313 52.706 13.0344 52.5704 12.9637C52.4348 12.8929 52.2866 12.8497 52.1343 12.8364C51.982 12.8231 51.8287 12.8401 51.6829 12.8864C48.1255 14.0146 41.3248 17.4796 41.0364 17.6265C40.4641 17.9182 40.236 18.6205 40.5268 19.1956C40.6247 19.3874 40.7735 19.5483 40.9568 19.6607C41.1401 19.7731 41.3507 19.8326 41.5656 19.8326Z" fill="#5866EB"/>
<path d="M69.4827 17.5006C69.3299 17.5005 69.1786 17.5307 69.0375 17.5893C68.8963 17.6479 68.7681 17.7338 68.66 17.8421C68.552 17.9505 68.4663 18.0791 68.4079 18.2207C68.3494 18.3622 68.3194 18.514 68.3194 18.6672V64.1668C68.3194 66.0965 66.7536 67.6668 64.8295 67.6668H36.9102V64.9823C38.6064 64.3873 43.0245 63.0002 47.38 63.0002C57.5135 63.0002 64.3945 65.2507 64.4631 65.274C64.6379 65.3316 64.8239 65.347 65.0058 65.319C65.1877 65.2911 65.3605 65.2204 65.5101 65.1129C65.6595 65.0048 65.7813 64.8627 65.8652 64.6982C65.9491 64.5337 65.9929 64.3515 65.9928 64.1667V12.834C65.9931 12.5685 65.9029 12.3108 65.7373 12.1038C65.5716 11.8967 65.3404 11.7525 65.0819 11.6953C65.0819 11.6953 64.1699 11.4911 62.611 11.204C61.9816 11.0874 61.3733 11.5074 61.2569 12.1397C61.1406 12.7744 61.5581 13.3822 62.1899 13.4988C62.6827 13.5895 63.1748 13.684 63.6661 13.7824V62.6163C61.03 61.9233 55.1764 60.6668 47.3798 60.6668C42.3113 60.6668 37.3324 62.3363 35.7921 62.9022C34.4228 62.2956 30.2839 60.6668 25.2769 60.6668C17.264 60.6668 10.6635 61.9922 7.82735 62.6654L7.82735 13.7369C10.1505 13.164 17.0117 11.6672 25.2769 11.6672C29.5184 11.6672 33.156 12.9913 34.5834 13.5899V59.5002C34.5835 59.7067 34.6382 59.9095 34.7419 60.0878C34.8457 60.2662 34.9948 60.4137 35.174 60.5154C35.3532 60.617 35.5561 60.6692 35.762 60.6665C35.9678 60.6638 36.1693 60.6064 36.3458 60.5001C36.461 60.4313 47.987 53.5269 58.2171 50.1075C58.4488 50.03 58.6504 49.8815 58.7932 49.6827C58.936 49.484 59.0129 49.2453 59.0128 49.0003V1.16732C59.0128 0.978737 58.9671 0.792973 58.8798 0.625957C58.7925 0.458941 58.6661 0.315655 58.5114 0.208385C58.357 0.100764 58.1788 0.0323364 57.9922 0.00897564C57.8056 -0.0143851 57.6161 0.00801897 57.44 0.0742646C48.1325 3.57533 38.7145 9.45296 38.6201 9.51134C38.0756 9.85313 37.9093 10.573 38.2501 11.119C38.5899 11.6651 39.3076 11.8318 39.8532 11.4901C39.9392 11.4352 48.1325 6.32295 56.6862 2.87315V48.1651C48.7454 50.9324 40.4545 55.4509 36.9099 57.4738V12.834C36.9099 12.6172 36.8497 12.4047 36.7361 12.2203C36.6225 12.0359 36.4599 11.8869 36.2666 11.7899C36.0665 11.6908 31.2994 9.33402 25.2769 9.33402C14.7653 9.33402 6.68386 11.6149 6.34414 11.7128C6.10115 11.7823 5.88737 11.9294 5.73518 12.1317C5.58299 12.334 5.50068 12.5806 5.5007 12.834L5.5007 64.167C5.50103 64.3473 5.54288 64.5252 5.62299 64.6867C5.7031 64.8482 5.81931 64.9889 5.96256 65.098C6.16457 65.2511 6.41089 65.3339 6.66409 65.3337C6.77111 65.3337 6.87812 65.3185 6.98282 65.2882C7.06311 65.266 15.1074 63.0003 25.2769 63.0003C29.53 63.0003 33.1641 64.328 34.5834 64.9241V67.6669H6.66409C4.74 67.6669 3.17418 66.0966 3.17418 64.167L3.17418 18.6673C3.17418 18.0234 2.65301 17.5007 2.01092 17.5007C1.36883 17.5007 0.847656 18.0234 0.847656 18.6673L0.847656 64.167C0.847656 67.3834 3.45691 70.0003 6.66423 70.0003H64.8295C68.0367 70.0003 70.6461 67.3835 70.6461 64.167V18.6673C70.6461 18.5141 70.6161 18.3624 70.5576 18.2208C70.4992 18.0792 70.4135 17.9506 70.3054 17.8422C70.1974 17.7339 70.0691 17.6479 69.928 17.5893C69.7868 17.5307 69.6355 17.5005 69.4827 17.5006Z" fill="#5866EB"/>
<path d="M40.5249 26.1956C40.6228 26.3874 40.7716 26.5484 40.9549 26.6608C41.1381 26.7732 41.3488 26.8326 41.5637 26.8326C41.7469 26.8325 41.9275 26.789 42.0907 26.7055C42.1593 26.6705 49.0066 23.1821 52.3836 22.1123C52.9956 21.9175 53.3352 21.2618 53.1409 20.6482C53.0951 20.502 53.0209 20.3662 52.9227 20.2488C52.8244 20.1313 52.7041 20.0344 52.5685 19.9637C52.4329 19.8929 52.2847 19.8497 52.1324 19.8364C51.9801 19.8231 51.8267 19.8401 51.681 19.8864C48.1236 21.0146 41.3229 24.4796 41.0344 24.6265C40.462 24.9182 40.2341 25.6206 40.5249 26.1956ZM40.5249 40.1955C40.6228 40.3873 40.7716 40.5483 40.9549 40.6607C41.1381 40.7731 41.3488 40.8325 41.5637 40.8325C41.7469 40.8324 41.9275 40.7888 42.0907 40.7054C42.1593 40.6704 49.0066 37.182 52.3836 36.1122C52.9956 35.9174 53.3352 35.2617 53.1409 34.6481C53.0951 34.5018 53.0209 34.3661 52.9227 34.2487C52.8244 34.1312 52.7041 34.0343 52.5685 33.9636C52.4329 33.8928 52.2847 33.8495 52.1324 33.8363C51.9801 33.823 51.8267 33.84 51.681 33.8863C48.1236 35.0145 41.3229 38.4795 41.0344 38.6264C40.462 38.918 40.2341 39.6205 40.5249 40.1955ZM29.0315 21.6505C21.8481 19.96 13.6851 22.1137 13.342 22.2058C13.1926 22.2439 13.0523 22.3113 12.9291 22.4041C12.8059 22.497 12.7024 22.6135 12.6245 22.7469C12.5466 22.8802 12.4959 23.0277 12.4753 23.1809C12.4547 23.334 12.4646 23.4898 12.5046 23.639C12.5445 23.7883 12.6135 23.9281 12.7078 24.0504C12.802 24.1727 12.9195 24.275 13.0535 24.3513C13.1875 24.4277 13.3353 24.4766 13.4882 24.4952C13.6412 24.5138 13.7964 24.5018 13.9447 24.4597C14.0226 24.4376 21.8819 22.3644 28.5012 23.9219C29.1235 24.0678 29.7529 23.6792 29.8994 23.0515C30.0458 22.4251 29.6573 21.7974 29.0315 21.6505ZM29.0315 28.6504C21.8481 26.9611 13.6851 29.1136 13.342 29.2058C13.1926 29.2438 13.0523 29.3112 12.9291 29.4041C12.8059 29.497 12.7024 29.6135 12.6245 29.7468C12.5466 29.8801 12.4959 30.0277 12.4753 30.1808C12.4547 30.334 12.4646 30.4897 12.5046 30.639C12.5445 30.7882 12.6135 30.9281 12.7078 31.0504C12.802 31.1726 12.9195 31.2749 13.0535 31.3513C13.1875 31.4276 13.3353 31.4765 13.4882 31.4951C13.6412 31.5137 13.7964 31.5017 13.9447 31.4597C14.0226 31.4375 21.8819 29.3644 28.5012 30.9218C29.1235 31.0677 29.7529 30.6792 29.8994 30.0515C30.0458 29.4251 29.6573 28.7974 29.0315 28.6504ZM40.5249 47.1955C40.6228 47.3873 40.7716 47.5482 40.9549 47.6606C41.1381 47.773 41.3488 47.8325 41.5637 47.8325C41.7469 47.8324 41.9275 47.7888 42.0907 47.7053C42.1593 47.6703 49.0066 44.182 52.3836 43.1121C52.9956 42.9173 53.3352 42.2616 53.1409 41.648C53.0951 41.5018 53.0209 41.3661 52.9227 41.2486C52.8244 41.1311 52.7041 41.0343 52.5685 40.9635C52.4329 40.8927 52.2847 40.8495 52.1324 40.8362C51.9801 40.823 51.8267 40.84 51.681 40.8862C48.1236 42.0144 41.3229 45.4794 41.0344 45.6264C40.462 45.918 40.2341 46.6204 40.5249 47.1955ZM29.0315 35.6504C21.8481 33.9611 13.6851 36.1123 13.342 36.2057C13.044 36.2859 12.7899 36.4815 12.6357 36.7495C12.4815 37.0175 12.4397 37.3359 12.5195 37.6348C12.5858 37.8828 12.7316 38.102 12.9346 38.2584C13.1375 38.4149 13.3862 38.5 13.6422 38.5005C13.7422 38.5005 13.8434 38.4866 13.9447 38.4596C14.0226 38.4375 21.8819 36.3643 28.5012 37.9218C29.1235 38.0677 29.7529 37.6791 29.8994 37.0514C30.0458 36.425 29.6573 35.7973 29.0315 35.6504ZM29.0315 49.6502C21.8481 47.9597 13.6851 50.1134 13.342 50.2056C13.044 50.2858 12.7899 50.4814 12.6357 50.7494C12.4815 51.0174 12.4397 51.3358 12.5195 51.6347C12.5858 51.8827 12.7316 52.1019 12.9346 52.2583C13.1375 52.4148 13.3862 52.4999 13.6422 52.5004C13.7422 52.5004 13.8434 52.4865 13.9447 52.4595C14.0226 52.4374 21.8819 50.3642 28.5012 51.9217C29.1235 52.0663 29.7529 51.679 29.8994 51.0513C30.0458 50.4249 29.6573 49.7972 29.0315 49.6502ZM29.0315 42.6503C21.8481 40.9598 13.6851 43.1123 13.342 43.2057C13.044 43.2858 12.7899 43.4814 12.6357 43.7494C12.4815 44.0174 12.4397 44.3359 12.5195 44.6348C12.5858 44.8827 12.7316 45.1019 12.9346 45.2584C13.1375 45.4149 13.3862 45.4999 13.6422 45.5005C13.7422 45.5005 13.8434 45.4865 13.9447 45.4596C14.0226 45.4374 21.8819 43.3642 28.5012 44.9217C29.1235 45.0676 29.7529 44.6791 29.8994 44.0514C30.0458 43.4249 29.6573 42.7973 29.0315 42.6503Z" fill="#5866EB"/>
</svg>
