<svg width="17" height="16" viewBox="0 0 17 16" fill="none" xmlns="http://www.w3.org/2000/svg">
<g clip-path="url(#clip0_83_966)">
<path d="M12.9041 12.668H6.82482C5.94815 12.668 5.17083 12.1006 4.93358 11.288L2.87877 4.42064C2.80577 4.17197 2.56311 4.0013 2.28598 4.0013H0.675926C0.302139 4.0013 0 3.70264 0 3.33464C0 2.96664 0.302139 2.66797 0.675926 2.66797H2.28598C3.16266 2.66797 3.9393 3.2353 4.17655 4.04797L4.56115 5.33464H14.8994C15.3212 5.33464 15.7214 5.53264 15.9694 5.86464C16.2155 6.19397 16.2864 6.60597 16.1641 6.9953L14.7697 11.3606C14.4966 12.1486 13.7483 12.668 12.9041 12.668Z" fill="#181818"/>
<path d="M7.43388 15.9987C6.68834 15.9987 6.08203 15.4007 6.08203 14.6654C6.08203 13.93 6.68834 13.332 7.43388 13.332C8.17943 13.332 8.78573 13.93 8.78573 14.6654C8.78573 15.4007 8.17943 15.9987 7.43388 15.9987Z" fill="#181818"/>
<path d="M12.1683 15.9987C11.4227 15.9987 10.8164 15.4007 10.8164 14.6654C10.8164 13.93 11.4227 13.332 12.1683 13.332C12.9138 13.332 13.5201 13.93 13.5201 14.6654C13.5201 15.4007 12.9138 15.9987 12.1683 15.9987Z" fill="#181818"/>
</g>
<defs>
<clipPath id="clip0_83_966">
<rect width="16.2222" height="16" fill="white"/>
</clipPath>
</defs>
</svg>
