<svg width="80" height="76" viewBox="0 0 80 76" fill="none" xmlns="http://www.w3.org/2000/svg">
<path d="M65.3696 14.2188H14.625V16.658H65.3696V14.2188Z" fill="#2EB97E"/>
<path d="M62.603 17.5625V19.6643H62.4171C61.793 19.6643 61.2882 20.1705 61.2882 20.7926V22.7362C60.6606 22.8065 60.0435 22.9331 59.4404 23.1158C58.4517 23.4111 57.5085 23.8504 56.6355 24.4269L56.1902 24.7221V20.7926C56.1902 20.1705 55.6888 19.6643 55.0647 19.6643H54.8789V17.5625H62.603Z" fill="#2EB97E"/>
<path d="M50.2303 17.5625V19.6643H50.0445C49.4239 19.6643 48.919 20.1705 48.919 20.7926V27.3758L43.8211 31.4951V20.7926C43.8211 20.1705 43.3162 19.6643 42.6956 19.6643H42.5098V17.5625H50.2303Z" fill="#2EB97E"/>
<path d="M37.8592 17.5625V19.6643H37.6734C37.0528 19.6643 36.5479 20.1705 36.5479 20.7926V31.7938L31.45 27.6745V20.7926C31.45 20.1705 30.9451 19.6643 30.3245 19.6643H30.1387V17.5625H37.8592Z" fill="#2EB97E"/>
<path d="M25.4901 17.5625V19.6643H25.3043C24.6837 19.6643 24.1788 20.1705 24.1788 20.7926V24.9646L23.3619 24.4269C22.0646 23.5728 20.6025 23.0139 19.0808 22.7855V20.7926C19.0808 20.1705 18.5759 19.6643 17.9554 19.6643H17.7695V17.5625H25.4901Z" fill="#2EB97E"/>
<path d="M39.9986 0L12.584 11.8729C12.7488 12.6708 12.7172 12.5126 12.882 13.3105H67.1152C67.28 12.5126 67.2485 12.6708 67.4133 11.8729L39.9986 0ZM39.9986 11.1067C38.1965 11.1067 36.7344 9.64103 36.7344 7.83443C36.7344 6.02784 38.1965 4.56218 39.9986 4.56218C41.8008 4.56218 43.2629 6.02784 43.2629 7.83443C43.2629 9.64103 41.8008 11.1067 39.9986 11.1067Z" fill="#2EB97E"/>
<path d="M40.247 5.71177L40.6923 6.97709L42.0317 7.00872C42.2806 7.01575 42.3823 7.33208 42.1859 7.48322L41.1236 8.29865L41.5057 9.58505C41.5759 9.82406 41.3094 10.0209 41.1025 9.88029L39.9981 9.11759L38.8972 9.88029C38.6903 10.0209 38.4238 9.82757 38.4939 9.58505L38.8761 8.29865L37.8138 7.48322C37.6139 7.33208 37.7191 7.01575 37.968 7.00872L39.3074 6.97709L39.7527 5.71177C39.8333 5.47628 40.1629 5.47628 40.247 5.71177Z" fill="#2EB97E"/>
<path d="M13.4463 27.1076V23.1569V22.577V19.6176V19.5859C13.4077 19.6141 13.3727 19.6422 13.3341 19.6703L8.2677 21.9619C7.95214 22.106 8.05382 22.5805 8.40093 22.5805H10.6449V60.4487L14.9434 62.7263V62.3045V59.5524L13.4463 58.7581V27.1076ZM71.7291 21.9584L66.5506 19.6176V22.577V23.1675V27.1076V58.7511L65.0534 59.5454V62.2975V62.7193L69.352 60.4417V22.577H71.5959C71.943 22.577 72.0447 22.1025 71.7291 21.9584ZM39.9984 72.8242L34.8023 70.0687L19.4769 65.1234L39.9984 76.0016L60.5165 65.1234L45.1946 70.0687L39.9984 72.8242Z" fill="#2EB97E"/>
<path d="M54.7551 23.3164L39.9976 35.235L25.2402 23.3164V63.065L38.753 69.8907V71.149L39.9976 70.5198L41.2423 71.149V69.8907L54.7551 63.065V23.3164Z" fill="#2EB97E"/>
<path d="M63.1863 25.9258V26.562L42.0371 36.8427V69.1224L63.912 62.2967V26.5514L63.1863 25.9258Z" fill="#2EB97E"/>
<path d="M42.0371 69.1224L63.1863 62.2967V25.9258L42.0371 36.8427" fill="#2EB97E"/>
<path d="M41.5215 36.8427V69.1224L60.7493 62.2967V25.9258L41.5215 36.8427Z" fill="#2EB97E"/>
<path d="M41.0156 36.8427V69.1224L57.5507 62.2967V25.9258L41.0156 36.8427Z" fill="#2EB97E"/>
<path d="M39.9961 36.8427V69.1224L53.5053 62.2967V25.9258L39.9961 36.8427Z" fill="#2EB97E"/>
<path d="M16.8078 25.9258V26.562L37.9569 36.8427V69.1224L16.082 62.2967V26.5514L16.8078 25.9258Z" fill="#2EB97E"/>
<path d="M37.9577 69.1224L16.8086 62.2967V25.9258L37.9577 36.8427" fill="#2EB97E"/>
<path d="M38.4719 36.8427V69.1224L19.2441 62.2967V25.9258L38.4719 36.8427Z" fill="#2EB97E"/>
<path d="M38.9764 36.8427V69.1224L22.4414 62.2967V25.9258L38.9764 36.8427Z" fill="#2EB97E"/>
<path d="M39.9975 36.8427V69.1224L26.4883 62.2967V25.9258L39.9975 36.8427Z" fill="#2EB97E"/>
<path d="M39.1722 54.8846V55.6297L28.1523 48.4526V47.7109L39.1722 54.8846Z" fill="#2EB97E"/>
<path d="M39.1722 51.7525V52.5082L28.1523 44.9865V44.2344L39.1722 51.7525Z" fill="#2EB97E"/>
<path d="M39.1722 64.9944L28.1523 58.8541V58.1406L39.1722 64.2809V64.9944Z" fill="#2EB97E"/>
<path d="M39.1722 61.1488V61.8729L28.1523 55.3881V54.6641L39.1722 61.1488Z" fill="#2EB97E"/>
<path d="M39.1722 58.0167V58.7513L28.1523 51.9221V51.1875L39.1722 58.0167Z" fill="#2EB97E"/>
<path d="M39.1722 48.6239V49.3901L28.1523 41.524V40.7578L39.1722 48.6239Z" fill="#2EB97E"/>
<path d="M39.1722 39.2271V40.0285L28.1523 31.1256V30.3242L39.1722 39.2271Z" fill="#2EB97E"/>
<path d="M39.1722 42.3596V43.1505L28.1523 34.592V33.8047L39.1722 42.3596Z" fill="#2EB97E"/>
<path d="M39.1722 45.4918V46.272L28.1523 38.058V37.2812L39.1722 45.4918Z" fill="#2EB97E"/>
<path d="M41.2422 54.8846V55.6297L52.262 48.4526V47.7109L41.2422 54.8846Z" fill="#2EB97E"/>
<path d="M41.2422 51.7525V52.5082L52.262 44.9865V44.2344L41.2422 51.7525Z" fill="#2EB97E"/>
<path d="M41.2422 64.9944L52.262 58.8541V58.1406L41.2422 64.2809V64.9944Z" fill="#2EB97E"/>
<path d="M41.2422 61.1488V61.8729L52.262 55.3881V54.6641L41.2422 61.1488Z" fill="#2EB97E"/>
<path d="M41.2422 58.0167V58.7513L52.262 51.9221V51.1875L41.2422 58.0167Z" fill="#2EB97E"/>
<path d="M41.2422 48.6239V49.3901L52.262 41.524V40.7578L41.2422 48.6239Z" fill="#2EB97E"/>
<path d="M41.2422 39.2271V40.0285L52.262 31.1256V30.3242L41.2422 39.2271Z" fill="#2EB97E"/>
<path d="M41.2422 42.3596V43.1505L52.262 34.592V33.8047L41.2422 42.3596Z" fill="#2EB97E"/>
<path d="M41.2422 45.4918V46.272L52.262 38.058V37.2812L41.2422 45.4918Z" fill="#2EB97E"/>
<path d="M41.5215 69.1224C44.7156 67.9555 47.9027 66.771 51.1038 65.6181L60.7002 62.1631L60.6055 62.2967L60.5915 53.204L60.609 44.1112L60.6546 35.0185L60.7422 25.9258L60.8299 35.0185L60.8755 44.1112L60.893 53.204L60.879 62.2967V62.3951L60.7843 62.4267L51.1564 65.7974C47.9588 66.9256 44.7366 68.0152 41.5215 69.1224Z" fill="#2EB97E"/>
<path d="M41.0156 69.1224L49.2481 65.6252L57.4981 62.1702L57.4139 62.2967L57.3964 53.204L57.4139 44.1112L57.4595 35.0185C57.4735 31.9888 57.5226 28.9555 57.5507 25.9258C57.5787 28.9555 57.6278 31.9888 57.6418 35.0185L57.6874 44.1112L57.7049 53.204L57.6874 62.2967V62.3881L57.6033 62.4232L49.3182 65.7939L41.0156 69.1224Z" fill="#2EB97E"/>
<path d="M39.9961 69.1228L46.7139 65.6361L53.4492 62.1811L53.3756 62.3006L53.3546 53.2079L53.3686 44.1151L53.4142 35.0224C53.4282 31.9927 53.4773 28.9594 53.5088 25.9297C53.5404 28.9594 53.5895 31.9927 53.6035 35.0224L53.6491 44.1151L53.6631 53.2079L53.6421 62.3006V62.3814L53.5684 62.4166L46.791 65.7872L39.9961 69.1228Z" fill="#2EB97E"/>
<path d="M38.4719 69.1228C35.2567 68.0156 32.0346 66.926 28.8264 65.8013L19.1985 62.4306L19.1039 62.399V62.3006L19.0898 53.2079L19.1074 44.1151L19.153 35.0224L19.2406 25.9297L19.3283 35.0224L19.3738 44.1151L19.3914 53.2079L19.3774 62.3006L19.2827 62.167L28.879 65.622C32.0907 66.7679 35.2778 67.9559 38.4719 69.1228Z" fill="#2EB97E"/>
<path d="M38.9764 69.1224L30.6738 65.7939L22.3888 62.4232L22.3046 62.3881V62.2967L22.2871 53.204L22.3046 44.1112L22.3502 35.0185C22.3642 31.9888 22.4133 28.9555 22.4414 25.9258C22.4694 28.9555 22.5185 31.9888 22.5325 35.0185L22.5781 44.1112L22.5956 53.204L22.5781 62.2967L22.494 62.1702L30.744 65.6252L38.9764 69.1224Z" fill="#2EB97E"/>
<path d="M39.9971 69.1224L33.2021 65.7833L26.4247 62.4127L26.3511 62.3775V62.2967L26.3301 53.204L26.3441 44.1112L26.3897 35.0185C26.4037 31.9888 26.4528 28.9555 26.4843 25.9258C26.5159 28.9555 26.565 31.9888 26.579 35.0185L26.6246 44.1112L26.6386 53.204L26.6176 62.2967L26.544 62.1772L33.2793 65.6322L39.9971 69.1224Z" fill="#2EB97E"/>
<mask id="mask0_83_1343" style="mask-type:luminance" maskUnits="userSpaceOnUse" x="13" y="21" width="54" height="51">
<path d="M13.9121 57.5318V27.1888C22.6179 23.2171 31.3903 21.2031 39.9979 21.2031C48.6055 21.2031 57.3779 23.2171 66.0837 27.1888V57.5318L39.9979 71.359L13.9121 57.5318Z" fill="white"/>
</mask>
<g mask="url(#mask0_83_1343)">
<path d="M40.7169 40.107C40.503 39.5728 40.3628 39.0596 40.3628 38.6168C40.3628 38.4445 40.2856 38.3567 40.198 38.311C40.1033 38.2583 39.9981 38.2618 39.9981 38.2618C39.9981 38.2618 39.8929 38.2583 39.7983 38.311C39.7141 38.3567 39.6335 38.4445 39.6335 38.6168C39.6335 39.0596 39.4932 39.5728 39.2794 40.107C38.5606 41.8996 36.9863 43.8854 36.9863 43.8854L37.6911 48.9678L37.7998 49.7516H42.2L42.3087 48.9678L43.0134 43.8854C43.0099 43.8854 41.4356 41.8996 40.7169 40.107ZM39.928 43.5234C39.949 43.5199 39.9736 43.5199 39.9981 43.5199C40.0227 43.5199 40.0472 43.5199 40.0682 43.5234C40.0893 43.5234 40.1103 43.5304 40.1314 43.5339C40.1384 43.5339 40.1454 43.5374 40.1524 43.5374C40.1699 43.541 40.1839 43.5445 40.2015 43.548C40.2015 43.548 40.205 43.548 40.2085 43.5515C40.2295 43.5585 40.2471 43.562 40.2681 43.5726C40.2891 43.5831 40.3137 43.5937 40.3347 43.6042C40.3522 43.6113 40.3663 43.6218 40.3838 43.6323C40.4048 43.6499 40.4294 43.664 40.4504 43.6816C40.4679 43.6956 40.482 43.7097 40.496 43.7237C40.5135 43.7413 40.5275 43.7554 40.5416 43.7729C40.5556 43.7905 40.5696 43.8081 40.5801 43.8292C40.5942 43.8467 40.6047 43.8678 40.6152 43.8854C40.6362 43.9241 40.6573 43.9662 40.6678 44.0119C40.6888 44.0787 40.6993 44.1455 40.6993 44.2193C40.6993 44.2931 40.6888 44.3599 40.6678 44.4267C40.6362 44.5356 40.5731 44.6341 40.496 44.7114C40.3698 44.8379 40.198 44.9152 40.0051 44.9152C39.623 44.9152 39.3109 44.6024 39.3109 44.2193C39.3109 44.1947 39.3109 44.1701 39.3144 44.1455C39.3179 44.1244 39.3214 44.0998 39.3249 44.0787C39.3284 44.0647 39.3319 44.0506 39.3355 44.033C39.339 44.019 39.3425 44.0084 39.346 43.9944C39.3845 43.8819 39.4512 43.7835 39.5353 43.7026C39.5563 43.6816 39.5809 43.664 39.6089 43.6464C39.6195 43.6394 39.6265 43.6323 39.637 43.6253C39.6475 43.6183 39.658 43.6113 39.672 43.6042C39.6826 43.5972 39.6966 43.5902 39.7106 43.5867C39.7246 43.5796 39.7352 43.5761 39.7492 43.5691C39.7667 43.5621 39.7842 43.555 39.8018 43.5515C39.8053 43.5515 39.8053 43.5515 39.8088 43.548C39.8263 43.5445 39.8403 43.5374 39.8579 43.5374C39.8719 43.5304 39.8999 43.5269 39.928 43.5234Z" fill="#2EB97E"/>
<path d="M37.2305 55.6833H39.8355H39.9618H42.7597V50.3198C42.7597 50.007 42.5072 49.7539 42.1952 49.7539H40.0284H39.9968H39.9653H39.8391H37.7985C37.4864 49.7539 37.234 50.007 37.234 50.3198V55.6833H37.2305Z" fill="#2EB97E"/>
<path d="M40.6931 44.2155C40.6931 43.8323 40.3811 43.5195 39.9989 43.5195C39.6167 43.5195 39.3047 43.8323 39.3047 44.2155C39.3047 44.5986 39.6167 44.9114 39.9989 44.9114C40.3811 44.9114 40.6931 44.6021 40.6931 44.2155Z" fill="#2EB97E"/>
<path d="M39.7969 43.696V38.3149C39.8915 38.2622 39.9967 38.2657 39.9967 38.2657C39.9967 38.2657 40.1019 38.2622 40.1966 38.3149V43.696H39.7969Z" fill="#2EB97E"/>
<path d="M37.7962 49.7565H42.1999L42.3086 48.9727H37.6875L37.7962 49.7565Z" fill="#2EB97E"/>
<path d="M39.9618 55.6838H42.7632V54.9492H37.2305V55.6838H39.8355H39.9618Z" fill="#2EB97E"/>
<path d="M42.7632 50.8867H37.2305V51.2549H42.7632V50.8867Z" fill="#2EB97E"/>
<path d="M36.9863 72.9974H43.0099V55.6836H36.9863V72.9974Z" fill="#2EB97E"/>
<path d="M43.0099 57.6055H36.9863V58.326H43.0099V57.6055Z" fill="#2EB97E"/>
</g>
<path d="M71.2307 63.6051C71.2517 63.8371 71.2938 64.0796 71.3499 64.3151C71.4025 64.547 71.4726 64.7685 71.5533 64.9618C71.5953 65.0602 71.6339 65.1516 71.676 65.2324C71.7181 65.3133 71.7566 65.3871 71.7952 65.4468C71.8303 65.5066 71.8653 65.5558 71.8864 65.5874C71.9109 65.619 71.9249 65.6366 71.9249 65.6366L71.967 65.5944C71.9915 65.5663 72.0336 65.5277 72.0757 65.4749C72.1178 65.4222 72.1704 65.3625 72.2159 65.2887C72.2615 65.2113 72.3071 65.127 72.3527 65.0321C72.4368 64.8423 72.521 64.6349 72.5525 64.3959C72.5876 64.1604 72.5876 63.9144 72.5595 63.6754C72.5245 63.4329 72.4543 63.1903 72.3632 62.9724C72.2685 62.7545 72.1528 62.5577 72.0266 62.389C71.9039 62.2238 71.7706 62.0832 71.669 61.9883C71.6199 61.9391 71.5743 61.9039 71.5427 61.8758C71.5112 61.8512 71.4937 61.8371 71.4937 61.8371L71.4726 61.8758C71.4621 61.9039 71.4376 61.9391 71.4165 61.9848C71.3709 62.0762 71.3184 62.2062 71.2833 62.3714C71.2517 62.5401 71.2097 62.7158 71.2062 62.9302C71.1991 63.0357 71.2027 63.1446 71.2062 63.2606C71.2167 63.3766 71.2202 63.4891 71.2307 63.6051ZM72.6998 61.7774C72.7804 62.0023 72.8786 62.2273 72.9803 62.4382C73.089 62.6491 73.2117 62.8494 73.3379 63.0216C73.401 63.106 73.4641 63.1868 73.5237 63.2571C73.5833 63.3274 73.6394 63.3872 73.6885 63.4364C73.7376 63.4856 73.7832 63.5242 73.8112 63.5488C73.8428 63.5734 73.8603 63.5875 73.8603 63.5875C73.8603 63.5875 73.8708 63.5699 73.8919 63.5348C73.9094 63.5032 73.941 63.4539 73.969 63.3907C73.9971 63.3309 74.0286 63.2571 74.0602 63.1728C74.0882 63.0884 74.1233 63.0005 74.1373 62.8986C74.1759 62.6947 74.1934 62.4663 74.1794 62.2343C74.1618 61.9988 74.0952 61.7563 74.0111 61.5278C73.9269 61.3029 73.8042 61.085 73.657 60.8952C73.5132 60.7054 73.3484 60.5402 73.1871 60.4066C73.0259 60.2731 72.8681 60.1711 72.7489 60.1044C72.6893 60.0692 72.6367 60.0446 72.6016 60.027C72.5665 60.0095 72.5455 59.9989 72.5455 59.9989L72.5315 60.0411C72.5245 60.0692 72.5104 60.1079 72.4999 60.1571C72.4789 60.2555 72.4649 60.3996 72.4684 60.5648C72.4649 60.7265 72.4824 60.9198 72.5245 61.1272C72.57 61.3381 72.6191 61.5525 72.6998 61.7774ZM73.1801 58.5333C73.2152 58.6914 73.2888 58.8777 73.373 59.0675C73.4536 59.2573 73.5658 59.4541 73.6955 59.6545C73.8288 59.8513 73.962 60.0446 74.1198 60.2274C74.2776 60.4066 74.4458 60.5753 74.6071 60.7124C74.6878 60.7792 74.7684 60.8425 74.842 60.8952C74.9157 60.9479 74.9823 60.9936 75.0454 61.0288C75.105 61.0639 75.1576 61.092 75.1927 61.1096C75.2277 61.1272 75.2488 61.1377 75.2488 61.1377C75.2488 61.1377 75.2558 61.1166 75.2698 61.0815C75.2803 61.0463 75.2978 60.9901 75.3084 60.9233C75.3224 60.8565 75.3329 60.7792 75.3434 60.6913C75.3504 60.6035 75.3574 60.5086 75.3539 60.4066C75.3539 60.2028 75.3013 59.9708 75.2347 59.7494C75.1681 59.5279 75.0489 59.3065 74.9087 59.1062C74.7649 58.9058 74.6036 58.7266 74.4213 58.5754C74.232 58.4243 74.0356 58.3013 73.8463 58.2099C73.657 58.1185 73.4816 58.0553 73.3484 58.0201C73.2818 57.999 73.2257 57.9885 73.1871 57.9779C73.1486 57.9709 73.1275 57.9639 73.1275 57.9639C73.1275 57.9639 73.1275 57.9814 73.124 58.0096C73.124 58.0377 73.1205 58.0798 73.124 58.1326C73.1275 58.231 73.1451 58.3751 73.1801 58.5333ZM66.862 68.2903C66.8866 68.3781 66.9146 68.4555 66.9427 68.5222C66.9672 68.5855 66.9953 68.6417 67.0093 68.6769C67.0268 68.712 67.0373 68.7331 67.0373 68.7331C67.0373 68.7331 67.0584 68.7226 67.0899 68.698C67.1215 68.6734 67.1706 68.6418 67.2232 68.5961C67.2757 68.5504 67.3389 68.4941 67.402 68.4309C67.4686 68.3641 67.5352 68.2903 67.6018 68.2094C67.7386 68.0442 67.8718 67.8439 67.9805 67.619C68.0927 67.3975 68.1838 67.1515 68.247 66.9019C68.3101 66.6489 68.3486 66.3923 68.3556 66.1427C68.3627 65.8932 68.3451 65.6542 68.3031 65.4433C68.2645 65.2324 68.2084 65.0496 68.1558 64.9196C68.1313 64.8563 68.1032 64.8001 68.0892 64.765C68.0716 64.7298 68.0611 64.7087 68.0611 64.7087C68.0611 64.7087 68.0401 64.7193 68.0085 64.7439C67.977 64.7685 67.9279 64.8001 67.8753 64.8458C67.7666 64.9372 67.6299 65.0672 67.4966 65.2359C67.3599 65.4011 67.2302 65.6015 67.118 65.8264C67.0058 66.0478 66.9146 66.2939 66.8515 66.5434C66.7884 66.7965 66.7498 67.0531 66.7428 67.3026C66.7358 67.5522 66.7533 67.7912 66.7954 68.0021C66.8129 68.104 66.8375 68.2024 66.862 68.2903ZM64.3446 69.7911C64.3691 69.879 64.3972 69.9563 64.4252 70.0231C64.4498 70.0863 64.4778 70.1426 64.4919 70.1777C64.5094 70.2129 64.5199 70.234 64.5199 70.234C64.5199 70.234 64.5409 70.2234 64.5725 70.1988C64.6041 70.1742 64.6531 70.1426 64.7057 70.0969C64.7583 70.0512 64.8214 69.9949 64.8846 69.9317C64.9477 69.8649 65.0178 69.7911 65.0844 69.7102C65.2211 69.545 65.3544 69.3447 65.4631 69.1198C65.5753 68.8983 65.6664 68.6523 65.7295 68.3992C65.7927 68.1462 65.8312 67.8896 65.8382 67.64C65.8452 67.3905 65.8277 67.1515 65.7856 66.9406C65.7471 66.7297 65.691 66.5469 65.6384 66.4169C65.6138 66.3536 65.5858 66.2974 65.5718 66.2622C65.5542 66.2271 65.5437 66.206 65.5437 66.206C65.5437 66.206 65.5227 66.2166 65.4911 66.2412C65.4596 66.2658 65.4105 66.2974 65.3579 66.3431C65.2492 66.4345 65.1125 66.5645 64.9792 66.7332C64.8425 66.8984 64.7128 67.0988 64.6006 67.3237C64.4884 67.5451 64.3972 67.7912 64.3341 68.0407C64.271 68.2938 64.2324 68.5504 64.2254 68.7999C64.2184 69.0495 64.2359 69.2885 64.278 69.4994C64.2955 69.6048 64.3166 69.7032 64.3446 69.7911ZM69.383 66.793C69.4075 66.8809 69.4355 66.9582 69.4636 67.025C69.4881 67.0882 69.5162 67.1445 69.5302 67.1796C69.5477 67.2148 69.5583 67.2358 69.5583 67.2358C69.5583 67.2358 69.5758 67.2218 69.6108 67.2007C69.6424 67.1761 69.6915 67.1445 69.7441 67.0988C69.7967 67.0531 69.8598 66.9968 69.9229 66.9336C69.9895 66.8668 70.0561 66.793 70.1228 66.7121C70.263 66.5469 70.3787 66.3431 70.4699 66.1287C70.561 65.9108 70.6276 65.6788 70.6487 65.4292C70.6732 65.1832 70.6662 64.9372 70.6276 64.7052C70.5926 64.4767 70.5189 64.2483 70.4383 64.055C70.3577 63.8617 70.263 63.6965 70.1859 63.5805C70.1508 63.5207 70.1122 63.475 70.0912 63.4434C70.0666 63.4118 70.0526 63.3942 70.0526 63.3942L70.0211 63.4258C70.0035 63.4469 69.972 63.4785 69.9439 63.5207C69.8843 63.6086 69.7967 63.714 69.723 63.8617C69.6459 64.0093 69.5793 64.1956 69.5162 64.3889C69.4496 64.5857 69.4145 64.8106 69.3724 65.0532C69.3093 65.3062 69.2708 65.5628 69.2637 65.8124C69.2567 66.0619 69.2743 66.3009 69.3163 66.5118C69.3304 66.6067 69.3549 66.7016 69.383 66.793ZM73.2573 55.7882C73.2783 55.9253 73.3239 56.1116 73.3975 56.3154C73.4326 56.4103 73.4781 56.5298 73.5307 56.6177C73.5798 56.6985 73.6359 56.7794 73.699 56.8602C73.8217 57.0254 73.9971 57.1906 74.1548 57.3523C74.3231 57.514 74.509 57.6686 74.7088 57.8057C74.9087 57.9428 75.1085 58.0658 75.2943 58.1572C75.389 58.2029 75.4802 58.245 75.5643 58.2802C75.6485 58.3153 75.7256 58.3435 75.7922 58.361C75.8588 58.3821 75.9149 58.3962 75.9535 58.4067C75.9921 58.4138 76.0131 58.4208 76.0131 58.4208C76.0131 58.4208 76.0166 58.3997 76.0201 58.361C76.0201 58.3224 76.0271 58.2661 76.0271 58.1994C76.0306 58.1326 76.0201 58.0517 76.0061 57.9639C75.9921 57.876 75.971 57.7811 75.943 57.6827C75.8904 57.4859 75.8062 57.275 75.673 57.0746C75.5468 56.8708 75.389 56.695 75.2102 56.5193C75.0279 56.3365 74.8245 56.1713 74.6141 56.0378C74.4038 55.9042 74.1899 55.7988 73.9865 55.725C73.7867 55.6511 73.6009 55.609 73.4641 55.5844C73.3975 55.5703 73.3379 55.5703 73.2993 55.5633C73.2608 55.5598 73.2362 55.5598 73.2362 55.5598C73.2362 55.5598 73.2362 55.5808 73.2397 55.623C73.2432 55.6617 73.2467 55.7214 73.2573 55.7882ZM76.1954 46.098C76.241 46.1964 76.2866 46.2843 76.3357 46.3651C76.3812 46.4459 76.4268 46.5127 76.4689 46.569C76.5075 46.6252 76.5495 46.6709 76.5741 46.7025C76.5986 46.7342 76.6162 46.7482 76.6162 46.7482C76.6162 46.7482 76.6337 46.7306 76.6582 46.7025C76.6828 46.6709 76.7213 46.6287 76.7634 46.569C76.8055 46.5127 76.8511 46.4424 76.8966 46.3651C76.9422 46.2878 76.9913 46.1964 77.0369 46.098C77.1281 45.9047 77.2052 45.6762 77.2578 45.4337C77.3104 45.1912 77.3384 44.9311 77.3384 44.671C77.3384 44.4109 77.3104 44.1508 77.2578 43.9083C77.2052 43.6658 77.1245 43.4373 77.0334 43.244C76.9422 43.0507 76.8441 42.8855 76.7599 42.773C76.7213 42.7168 76.6793 42.6711 76.6582 42.6394C76.6337 42.6078 76.6162 42.5938 76.6162 42.5938C76.6162 42.5938 76.5986 42.6113 76.5741 42.6394C76.5495 42.6711 76.511 42.7133 76.4724 42.773C76.3918 42.8855 76.2901 43.0472 76.1989 43.244C76.1078 43.4373 76.0306 43.6658 75.9745 43.9083C75.9184 44.1508 75.8939 44.4109 75.8939 44.671C75.8939 44.9311 75.9184 45.1912 75.9745 45.4337C76.0271 45.6762 76.1043 45.9047 76.1954 46.098ZM77.1386 49.2156C77.1175 49.3035 77.1 49.3843 77.0895 49.4546C77.079 49.5214 77.0755 49.5846 77.0685 49.6198C77.0649 49.6585 77.0649 49.6831 77.0649 49.6831C77.0649 49.6831 77.0895 49.6831 77.1281 49.6795C77.1666 49.676 77.2262 49.6725 77.2928 49.6585C77.363 49.6479 77.4436 49.6303 77.5313 49.6092C77.6189 49.5882 77.7171 49.5565 77.8188 49.5214C78.0186 49.4476 78.236 49.3421 78.4464 49.2086C78.6567 49.075 78.8566 48.9098 79.0424 48.727C79.2247 48.5407 79.3895 48.3404 79.5228 48.1295C79.656 47.9186 79.7612 47.7042 79.8348 47.5004C79.9084 47.3 79.9505 47.1138 79.975 46.9732C79.9891 46.9064 79.9891 46.8466 79.9961 46.808C79.9996 46.7693 79.9996 46.7447 79.9996 46.7447C79.9996 46.7447 79.9751 46.7447 79.9365 46.7482C79.8979 46.7517 79.8383 46.7552 79.7717 46.7693C79.635 46.7904 79.4491 46.8361 79.2493 46.9099C79.0494 46.9837 78.832 47.0891 78.6217 47.2227C78.4113 47.3563 78.2115 47.5215 78.0256 47.7042C77.8433 47.887 77.6785 48.0909 77.5453 48.3017C77.4121 48.5126 77.3069 48.727 77.2332 48.9309C77.1912 49.0293 77.1631 49.1277 77.1386 49.2156ZM73.2573 46.9767C73.2783 47.1138 73.3239 47.3 73.3975 47.5039C73.4711 47.7042 73.5763 47.9222 73.7095 48.133C73.8428 48.3439 74.0076 48.5443 74.1899 48.7306C74.3722 48.9133 74.5756 49.0785 74.7859 49.2121C74.9963 49.3456 75.2102 49.4511 75.4135 49.5249C75.5152 49.56 75.6099 49.5917 75.701 49.6128C75.7887 49.6338 75.8693 49.6514 75.9395 49.662C76.0061 49.6725 76.0692 49.676 76.1043 49.6831C76.1428 49.6866 76.1674 49.6866 76.1674 49.6866C76.1674 49.6866 76.1674 49.662 76.1639 49.6233C76.1604 49.5846 76.1568 49.5249 76.1428 49.4581C76.1323 49.3878 76.1148 49.307 76.0937 49.2191C76.0727 49.1312 76.0411 49.0328 76.0061 48.9309C75.9325 48.727 75.8273 48.5126 75.694 48.3017C75.5608 48.0909 75.396 47.8905 75.2137 47.7042C75.0314 47.5215 74.828 47.3563 74.6176 47.2227C74.4073 47.0891 74.1934 46.9837 73.99 46.9099C73.7902 46.8361 73.6044 46.7939 73.4676 46.7693C73.401 46.7552 73.3414 46.7552 73.3028 46.7482C73.2643 46.7447 73.2397 46.7447 73.2397 46.7447C73.2397 46.7447 73.2397 46.7693 73.2432 46.808C73.2432 46.8466 73.2467 46.9099 73.2573 46.9767ZM73.2573 52.8499C73.2783 52.9869 73.3239 53.1732 73.3975 53.3771C73.4711 53.5809 73.5763 53.7953 73.7095 54.0062C73.8428 54.2171 74.0076 54.4175 74.1899 54.6037C74.3722 54.7865 74.5756 54.9517 74.7859 55.0853C74.9963 55.2188 75.2102 55.3243 75.4135 55.3981C75.5152 55.4332 75.6099 55.4649 75.701 55.4859C75.7887 55.507 75.8693 55.5246 75.9395 55.5352C76.0061 55.5457 76.0692 55.5492 76.1043 55.5562C76.1428 55.5598 76.1674 55.5598 76.1674 55.5598C76.1674 55.5598 76.1674 55.5352 76.1639 55.4965C76.1604 55.4578 76.1568 55.3981 76.1428 55.3313C76.1323 55.261 76.1148 55.1802 76.0937 55.0923C76.0727 55.0044 76.0411 54.906 76.0061 54.8041C75.9325 54.6037 75.8273 54.3858 75.694 54.1749C75.5608 53.964 75.396 53.7637 75.2137 53.5774C75.0314 53.3947 74.828 53.2295 74.6176 53.0959C74.4073 52.9623 74.1934 52.8569 73.99 52.7831C73.7902 52.7093 73.6044 52.6671 73.4676 52.6425C73.401 52.6284 73.3414 52.6284 73.3028 52.6214C73.2643 52.6179 73.2397 52.6179 73.2397 52.6179C73.2397 52.6179 73.2397 52.6425 73.2432 52.6812C73.2432 52.7233 73.2467 52.7831 73.2573 52.8499ZM73.2573 49.915C73.2783 50.0521 73.3239 50.2384 73.3975 50.4422C73.4711 50.6461 73.5763 50.8605 73.7095 51.0714C73.8428 51.2823 74.0076 51.4861 74.1899 51.6689C74.3722 51.8517 74.5756 52.0169 74.7859 52.1504C74.9963 52.284 75.2102 52.3894 75.4135 52.4632C75.5152 52.4984 75.6099 52.53 75.701 52.5511C75.7887 52.5722 75.8693 52.5898 75.9395 52.6003C76.0061 52.6109 76.0692 52.6144 76.1043 52.6214C76.1428 52.6249 76.1674 52.6249 76.1674 52.6249C76.1674 52.6249 76.1674 52.6003 76.1639 52.5617C76.1604 52.523 76.1568 52.4632 76.1428 52.3965C76.1323 52.3262 76.1148 52.2453 76.0937 52.1575C76.0727 52.0696 76.0411 51.9712 76.0061 51.8692C75.9325 51.6654 75.8273 51.451 75.694 51.2401C75.5608 51.0292 75.396 50.8289 75.2137 50.6426C75.0314 50.4598 74.828 50.2946 74.6176 50.1611C74.4073 50.0275 74.1934 49.9221 73.99 49.8482C73.7902 49.7744 73.6044 49.7323 73.4676 49.7077C73.401 49.6936 73.3414 49.6936 73.3028 49.6866C73.2643 49.6831 73.2397 49.6831 73.2397 49.6831C73.2397 49.6831 73.2397 49.7077 73.2432 49.7463C73.2432 49.785 73.2467 49.8447 73.2573 49.915ZM71.378 70.3499C71.2868 70.241 71.1571 70.1039 70.9888 69.9703C70.824 69.8333 70.6241 69.7032 70.3997 69.5907C70.1788 69.4783 69.9334 69.3869 69.6845 69.3236C69.432 69.2604 69.1761 69.2217 68.9272 69.2147C68.6782 69.2076 68.4398 69.2252 68.2294 69.2674C68.1242 69.2885 68.0261 69.3096 67.9384 69.3377C67.8508 69.3623 67.7736 69.3904 67.707 69.4185C67.6439 69.4431 67.5878 69.4712 67.5527 69.4853C67.5177 69.5029 67.4966 69.5134 67.4966 69.5134C67.4966 69.5134 67.5072 69.5345 67.5317 69.5661C67.5562 69.5978 67.5878 69.647 67.6334 69.6997C67.679 69.7524 67.7351 69.8157 67.7982 69.879C67.8613 69.9422 67.9384 70.0125 68.0191 70.0793C68.1839 70.2164 68.3837 70.3464 68.6081 70.4589C68.829 70.5714 69.0744 70.6592 69.3269 70.726C69.5793 70.7893 69.8352 70.8279 70.0842 70.835C70.3331 70.842 70.5715 70.8209 70.7819 70.7823C70.9923 70.7436 71.1746 70.6838 71.3043 70.6346C71.3674 70.61 71.4235 70.5819 71.4586 70.5678C71.4937 70.5503 71.5147 70.5397 71.5147 70.5397C71.5147 70.5397 71.5042 70.5186 71.4796 70.487C71.4551 70.4519 71.4235 70.4027 71.378 70.3499ZM61.8237 71.2919C61.8482 71.3798 61.8763 71.4571 61.9043 71.5239C61.9289 71.5871 61.9569 71.6434 61.9709 71.6785C61.9885 71.7137 61.999 71.7348 61.999 71.7348C61.999 71.7348 62.02 71.7242 62.0516 71.6996C62.0831 71.675 62.1322 71.6434 62.1848 71.5977C62.2374 71.552 62.3005 71.4958 62.3636 71.4325C62.4267 71.3657 62.4969 71.2919 62.5635 71.2111C62.7002 71.0459 62.8335 70.8455 62.9421 70.6206C63.0543 70.3991 63.1455 70.1531 63.2086 69.9C63.2717 69.647 63.3103 69.3904 63.3173 69.1409C63.3243 68.8913 63.3068 68.6523 63.2647 68.4414C63.2261 68.2305 63.17 68.0478 63.1174 67.9177C63.0929 67.8544 63.0649 67.7982 63.0508 67.7631C63.0333 67.7279 63.0228 67.7068 63.0228 67.7068C63.0228 67.7068 63.0017 67.7174 62.9702 67.742C62.9386 67.7666 62.8896 67.7982 62.837 67.8439C62.7283 67.9353 62.5915 68.0653 62.4583 68.234C62.3215 68.3992 62.1918 68.5996 62.0796 68.8245C61.9674 69.046 61.8763 69.292 61.8132 69.5415C61.75 69.7946 61.7115 70.0512 61.7045 70.3007C61.6975 70.5503 61.715 70.7893 61.7571 71.0002C61.7746 71.1056 61.7991 71.204 61.8237 71.2919ZM74.2109 68.4309C74.1022 68.343 73.941 68.234 73.7446 68.1356C73.5483 68.0372 73.3204 67.9493 73.0644 67.8755C72.812 67.8017 72.542 67.749 72.2685 67.7209C72.0021 67.6963 71.7216 67.6752 71.4586 67.6857C71.1956 67.6928 70.9502 67.7279 70.7433 67.7666C70.6382 67.7877 70.54 67.8088 70.4523 67.8369C70.3647 67.8615 70.2875 67.8896 70.2209 67.9177C70.1578 67.9423 70.1017 67.9704 70.0667 67.9845C70.0316 68.0021 70.0106 68.0126 70.0106 68.0126C70.0106 68.0126 70.0246 68.0302 70.0456 68.0653C70.0702 68.097 70.1017 68.1462 70.1473 68.1989C70.1929 68.2516 70.249 68.3149 70.3121 68.3781C70.3752 68.4414 70.4523 68.5117 70.533 68.5785C70.6978 68.7156 70.8976 68.8456 71.122 68.9581C71.3429 69.0706 71.5883 69.1584 71.8408 69.2252C72.1107 69.2709 72.4123 69.2744 72.7033 69.2463C72.9978 69.2217 73.2748 69.1444 73.5237 69.053C73.7692 68.9581 73.9935 68.8597 74.1373 68.7613C74.2109 68.7156 74.2705 68.6699 74.3126 68.6418C74.3512 68.6101 74.3757 68.5925 74.3757 68.5925C74.3757 68.5925 74.3617 68.575 74.3336 68.5469C74.3091 68.5187 74.267 68.4766 74.2109 68.4309ZM76.7424 65.7561C76.6126 65.6964 76.4373 65.6331 76.22 65.5804C76.0026 65.5277 75.7536 65.4925 75.4942 65.4855C75.2312 65.4749 74.9613 65.496 74.6913 65.5277C74.4143 65.5593 74.1443 65.612 73.8954 65.6858C73.6499 65.7632 73.401 65.837 73.2012 65.9319C73.0995 65.9776 73.0083 66.0268 72.9242 66.0725C72.84 66.1181 72.7629 66.1568 72.7033 66.1955C72.6402 66.2306 72.5911 66.2693 72.5595 66.2904C72.528 66.315 72.5069 66.329 72.5069 66.329C72.5069 66.329 72.521 66.3466 72.549 66.3747C72.5771 66.3993 72.6191 66.445 72.6717 66.4907C72.7243 66.5364 72.7909 66.5856 72.8646 66.6383C72.9417 66.6911 73.0259 66.7438 73.124 66.793C73.3169 66.8949 73.5483 66.9828 73.8042 67.0355C74.0567 67.0847 74.3336 67.0988 74.6176 67.0777C74.7614 67.0671 74.9052 67.046 75.0524 67.0179C75.1927 66.9863 75.3329 66.9441 75.4696 66.8914C75.7396 66.7895 76.0131 66.6665 76.2235 66.5118C76.4408 66.3607 76.6232 66.2025 76.7494 66.0795C76.8125 66.0197 76.8616 65.96 76.8931 65.9248C76.9247 65.8862 76.9422 65.8616 76.9422 65.8616C76.9422 65.8616 76.9247 65.8475 76.8896 65.8299C76.8546 65.8194 76.8055 65.7842 76.7424 65.7561ZM78.5621 62.5542C78.4253 62.526 78.2325 62.505 78.0116 62.505C77.7907 62.505 77.5418 62.5331 77.2893 62.5858C77.0369 62.6385 76.7739 62.7229 76.5145 62.8143C76.255 62.9127 76.0131 63.0287 75.7852 63.1587C75.5503 63.2852 75.3434 63.4258 75.1716 63.5664C75.084 63.6402 75.0033 63.707 74.9297 63.7668C74.8561 63.83 74.7965 63.8898 74.7439 63.9425C74.6948 63.9917 74.6562 64.0444 74.6282 64.0725C74.6036 64.1042 74.5896 64.1217 74.5896 64.1217C74.5896 64.1217 74.6071 64.1358 74.6422 64.1569C74.6772 64.1745 74.7263 64.2096 74.7895 64.2377C74.8526 64.2694 74.9262 64.3045 75.0138 64.3362C75.098 64.3678 75.1962 64.3994 75.3013 64.424C75.5117 64.4767 75.7536 64.5049 76.0166 64.4978C76.2796 64.4908 76.553 64.4381 76.823 64.3467C77.0895 64.2518 77.37 64.1323 77.6084 63.9671C77.8468 63.8019 78.0677 63.6121 78.25 63.4153C78.4288 63.2185 78.5586 63.0181 78.6532 62.867C78.6988 62.7932 78.7339 62.7229 78.7584 62.6807C78.7794 62.635 78.7935 62.6104 78.7935 62.6104C78.7935 62.6104 78.7724 62.6034 78.7339 62.5893C78.6883 62.5858 78.6322 62.5682 78.5621 62.5542ZM79.7647 55.5844C79.6279 55.6055 79.4421 55.6511 79.2423 55.725C79.0424 55.7988 78.825 55.9042 78.6147 56.0378C78.4043 56.1713 78.2044 56.3365 78.0186 56.5193C77.8328 56.7091 77.661 56.9375 77.5207 57.1555C77.384 57.3769 77.2613 57.5948 77.1631 57.7987C77.1175 57.9006 77.0755 57.999 77.0439 58.0869C77.0124 58.1783 76.9878 58.2591 76.9633 58.3294C76.9387 58.3962 76.9282 58.4594 76.9142 58.4981C76.9037 58.5368 76.9002 58.5614 76.9002 58.5614C76.9002 58.5614 76.9247 58.5649 76.9633 58.5684C77.0018 58.5684 77.0614 58.5754 77.1316 58.5719C77.2017 58.5719 77.2858 58.5649 77.377 58.5543C77.4681 58.5438 77.5698 58.5262 77.675 58.5016C77.8889 58.4524 78.1203 58.3645 78.3412 58.2345C78.5656 58.108 78.783 57.9322 78.9898 57.7284C79.2002 57.5245 79.3615 57.2855 79.5052 57.0289C79.5753 56.9024 79.6385 56.7688 79.6946 56.6388C79.7507 56.5123 79.7927 56.4244 79.8278 56.3189C79.9014 56.1186 79.9435 55.9323 79.968 55.7917C79.9821 55.725 79.9821 55.6652 79.9891 55.6265C79.9926 55.5879 79.9926 55.5633 79.9926 55.5633C79.9926 55.5633 79.968 55.5633 79.9295 55.5668C79.8944 55.5668 79.8348 55.5703 79.7647 55.5844ZM79.7647 52.646C79.6279 52.6671 79.4421 52.7128 79.2423 52.7866C79.0424 52.8604 78.825 52.9659 78.6147 53.0994C78.4043 53.233 78.2044 53.3982 78.0186 53.5809C77.8363 53.7637 77.6715 53.9676 77.5383 54.1785C77.405 54.3893 77.2999 54.6037 77.2262 54.8076C77.1912 54.9095 77.1596 55.0044 77.1386 55.0958C77.1175 55.1837 77.1 55.2645 77.0895 55.3348C77.079 55.4016 77.0755 55.4649 77.0685 55.5C77.0649 55.5387 77.0649 55.5633 77.0649 55.5633C77.0649 55.5633 77.0895 55.5633 77.1281 55.5598C77.1666 55.5562 77.2262 55.5527 77.2928 55.5387C77.363 55.5281 77.4436 55.5106 77.5313 55.4895C77.6189 55.4684 77.7171 55.4367 77.8188 55.4016C78.0186 55.3278 78.236 55.2223 78.4464 55.0888C78.6567 54.9552 78.8566 54.79 79.0424 54.6073C79.2247 54.421 79.3895 54.2206 79.5228 54.0097C79.656 53.7989 79.7612 53.5845 79.8348 53.3806C79.9084 53.1803 79.9505 52.994 79.975 52.8534C79.9891 52.7866 79.9891 52.7268 79.9961 52.6882C79.9996 52.6495 79.9996 52.6249 79.9996 52.6249C79.9996 52.6249 79.9751 52.6249 79.9365 52.6284C79.8944 52.632 79.8348 52.6355 79.7647 52.646ZM79.5683 59.0113C79.4281 59.0183 79.2353 59.0429 79.0249 59.0956C78.811 59.1483 78.5796 59.2362 78.3482 59.3487C78.1098 59.4612 77.8679 59.6018 77.6435 59.7564C77.4226 59.9146 77.2087 60.0868 77.0124 60.266C76.816 60.4453 76.6582 60.6351 76.5145 60.8073C76.4444 60.8952 76.3812 60.9795 76.3251 61.0569C76.2725 61.1377 76.227 61.208 76.1919 61.2713C76.1569 61.3345 76.1323 61.3908 76.1113 61.4259C76.0937 61.4611 76.0832 61.4822 76.0832 61.4822C76.0832 61.4822 76.1043 61.4892 76.1428 61.5033C76.1814 61.5138 76.2375 61.5349 76.3041 61.5489C76.3742 61.5665 76.4549 61.5806 76.546 61.5911C76.6372 61.6017 76.7389 61.6087 76.8441 61.6087C77.0579 61.6087 77.2999 61.5771 77.5523 61.5068C77.8012 61.4365 78.0642 61.324 78.3026 61.1729C78.541 61.0182 78.7689 60.8284 78.9723 60.614C79.1757 60.3996 79.3299 60.1571 79.4596 59.9251C79.5929 59.6931 79.677 59.4682 79.7261 59.2995C79.7542 59.2151 79.7682 59.1413 79.7822 59.0921C79.7927 59.0429 79.7997 59.0148 79.7997 59.0148C79.7997 59.0148 79.7787 59.0113 79.7366 59.0113C79.6981 59.0113 79.6385 59.0042 79.5683 59.0113ZM79.7647 49.7077C79.6279 49.7287 79.4421 49.7744 79.2423 49.8482C79.0424 49.9221 78.825 50.0275 78.6147 50.1611C78.4043 50.2946 78.2044 50.4598 78.0186 50.6426C77.8363 50.8254 77.6715 51.0292 77.5383 51.2401C77.405 51.451 77.2999 51.6654 77.2262 51.8692C77.1912 51.9712 77.1596 52.0661 77.1386 52.1575C77.1175 52.2453 77.1 52.3262 77.0895 52.3965C77.079 52.4632 77.0755 52.5265 77.0685 52.5617C77.0649 52.6003 77.0649 52.6249 77.0649 52.6249C77.0649 52.6249 77.0895 52.6249 77.1281 52.6214C77.1666 52.6179 77.2262 52.6144 77.2928 52.6003C77.363 52.5898 77.4436 52.5722 77.5313 52.5511C77.6189 52.53 77.7171 52.4984 77.8188 52.4632C78.0186 52.3894 78.236 52.284 78.4464 52.1504C78.6567 52.0169 78.8566 51.8517 79.0424 51.6689C79.2247 51.4826 79.3895 51.2823 79.5228 51.0714C79.656 50.8605 79.7612 50.6461 79.8348 50.4422C79.9084 50.2419 79.9505 50.0556 79.975 49.915C79.9891 49.8482 79.9891 49.7885 79.9961 49.7498C79.9996 49.7112 79.9996 49.6866 79.9996 49.6866C79.9996 49.6866 79.9751 49.6866 79.9365 49.6901C79.8944 49.6936 79.8348 49.6971 79.7647 49.7077ZM63.8187 74.8488C63.7275 74.7399 63.5978 74.6028 63.4295 74.4693C63.2647 74.3322 63.0649 74.2021 62.8405 74.0897C62.6196 73.9772 62.3741 73.8858 62.1252 73.8225C61.8728 73.7593 61.6168 73.7206 61.3679 73.7136C61.1189 73.7065 60.8805 73.7241 60.6701 73.7663C60.565 73.7874 60.4668 73.8085 60.3791 73.8366C60.2915 73.8612 60.2144 73.8893 60.1477 73.9174C60.0846 73.942 60.0285 73.9702 59.9935 73.9842C59.9584 74.0018 59.9374 74.0123 59.9374 74.0123C59.9374 74.0123 59.9479 74.0334 59.9724 74.0651C59.997 74.0967 60.0285 74.1459 60.0741 74.1986C60.1197 74.2513 60.1758 74.3146 60.2389 74.3779C60.302 74.4411 60.3791 74.5114 60.4598 74.5782C60.6246 74.7153 60.8244 74.8453 61.0488 74.9578C61.2697 75.0703 61.5151 75.1581 61.7676 75.2249C62.02 75.2882 62.276 75.3269 62.5249 75.3339C62.7738 75.3409 63.0123 75.3198 63.2226 75.2812C63.433 75.2425 63.6153 75.1828 63.7451 75.1335C63.8082 75.1089 63.8643 75.0808 63.8993 75.0668C63.9344 75.0492 63.9554 75.0386 63.9554 75.0386C63.9554 75.0386 63.9449 75.0176 63.9204 74.9859C63.8993 74.9508 63.8643 74.9016 63.8187 74.8488ZM60.4247 72.1179C60.5369 71.8964 60.6281 71.6504 60.6912 71.3973C60.7543 71.1443 60.7929 70.8877 60.7999 70.6381C60.8069 70.3886 60.7894 70.1496 60.7473 69.9387C60.7087 69.7278 60.6526 69.545 60.6 69.415C60.5755 69.3517 60.5474 69.2955 60.5334 69.2604C60.5159 69.2252 60.5054 69.2041 60.5054 69.2041C60.5054 69.2041 60.4843 69.2147 60.4528 69.2393C60.4212 69.2639 60.3721 69.2955 60.3195 69.3412C60.2108 69.4326 60.0741 69.5626 59.9409 69.7313C59.8041 69.8965 59.6744 70.0969 59.5622 70.3218C59.45 70.5433 59.3589 70.7893 59.2957 71.0388C59.2326 71.2919 59.1941 71.5485 59.187 71.798C59.18 72.0476 59.1976 72.2866 59.2396 72.4975C59.2607 72.6029 59.2817 72.7013 59.3098 72.7892C59.3343 72.8771 59.3624 72.9544 59.3904 73.0212C59.4149 73.0844 59.443 73.1407 59.457 73.1758C59.4746 73.211 59.4851 73.2321 59.4851 73.2321C59.4851 73.2321 59.5061 73.2215 59.5377 73.1969C59.5692 73.1723 59.6183 73.1407 59.6709 73.095C59.7235 73.0493 59.7866 72.993 59.8497 72.9298C59.9128 72.863 59.9829 72.7892 60.0496 72.7083C60.1828 72.5396 60.3125 72.3393 60.4247 72.1179ZM66.3396 73.348C66.2484 73.2391 66.1187 73.102 65.9504 72.9684C65.7856 72.8314 65.5858 72.7013 65.3614 72.5888C65.1405 72.4764 64.8951 72.385 64.6461 72.3217C64.3937 72.2585 64.1377 72.2198 63.8888 72.2128C63.6399 72.2057 63.4014 72.2233 63.1911 72.2655C63.0859 72.2866 62.9877 72.3077 62.9001 72.3358C62.8124 72.3604 62.7353 72.3885 62.6687 72.4166C62.6056 72.4412 62.5495 72.4693 62.5144 72.4834C62.4793 72.501 62.4583 72.5115 62.4583 72.5115C62.4583 72.5115 62.4688 72.5326 62.4934 72.5642C62.5179 72.5959 62.5495 72.6451 62.595 72.6978C62.6406 72.7505 62.6967 72.8138 62.7598 72.8771C62.8229 72.9403 62.9001 73.0106 62.9807 73.0774C63.1455 73.2145 63.3454 73.3445 63.5697 73.457C63.7906 73.5695 64.0361 73.6573 64.2885 73.7241C64.5409 73.7874 64.7969 73.826 65.0458 73.8331C65.2948 73.8401 65.5332 73.819 65.7436 73.7804C65.9539 73.7417 66.1363 73.6819 66.266 73.6327C66.3291 73.6081 66.3852 73.58 66.4202 73.566C66.4553 73.5484 66.4763 73.5378 66.4763 73.5378C66.4763 73.5378 66.4658 73.5168 66.4413 73.4851C66.4167 73.45 66.3852 73.4008 66.3396 73.348ZM68.857 71.8507C68.7659 71.7418 68.6361 71.6047 68.4678 71.4711C68.3031 71.3341 68.1032 71.204 67.8788 71.0916C67.6579 70.9791 67.4125 70.8877 67.1636 70.8244C66.9111 70.7612 66.6552 70.7225 66.4062 70.7155C66.1573 70.7084 65.9189 70.726 65.7085 70.7682C65.6033 70.7893 65.5051 70.8104 65.4175 70.8385C65.3298 70.8631 65.2527 70.8912 65.1861 70.9193C65.123 70.9439 65.0669 70.972 65.0318 70.9861C64.9967 71.0037 64.9757 71.0142 64.9757 71.0142C64.9757 71.0142 64.9862 71.0353 65.0108 71.067C65.0353 71.0986 65.0669 71.1478 65.1125 71.2005C65.158 71.2532 65.2141 71.3165 65.2772 71.3798C65.3404 71.443 65.4175 71.5133 65.4981 71.5801C65.6629 71.7172 65.8628 71.8472 66.0872 71.9597C66.3081 72.0722 66.5535 72.16 66.8059 72.2268C67.0584 72.2901 67.3143 72.3288 67.5633 72.3358C67.8122 72.3428 68.0506 72.3217 68.261 72.2831C68.4713 72.2444 68.6537 72.1882 68.7834 72.1354C68.8465 72.1108 68.9026 72.0827 68.9377 72.0687C68.9727 72.0511 68.9938 72.0405 68.9938 72.0405C68.9938 72.0405 68.9833 72.0195 68.9587 71.9878C68.9342 71.9527 68.9026 71.8999 68.857 71.8507Z" fill="#2EB97E"/>
<path d="M8.78293 63.2677C8.78994 63.1517 8.78994 63.0427 8.78293 62.9373C8.77591 62.7264 8.73384 62.5471 8.70579 62.3784C8.67073 62.2132 8.62164 62.0832 8.57255 61.9918C8.55152 61.9461 8.52698 61.911 8.51646 61.8828L8.49542 61.8442C8.49542 61.8442 8.47789 61.8582 8.44633 61.8828C8.41828 61.9074 8.3692 61.9461 8.32011 61.9953C8.21843 62.0902 8.0852 62.2308 7.96249 62.396C7.83977 62.5612 7.72056 62.7615 7.62589 62.9794C7.53123 63.1974 7.4611 63.4399 7.42955 63.6824C7.4015 63.9214 7.4015 64.1674 7.43656 64.4029C7.46812 64.6419 7.54876 64.8493 7.63641 65.0391C7.68199 65.1305 7.72757 65.2184 7.77315 65.2957C7.82224 65.3695 7.87133 65.4292 7.9134 65.482C7.95547 65.5347 7.99755 65.5734 8.02209 65.6015L8.06416 65.6437C8.06416 65.6437 8.07819 65.6261 8.10273 65.5944C8.12377 65.5628 8.15883 65.5136 8.19389 65.4539C8.22895 65.3941 8.27103 65.3238 8.3131 65.2394C8.35518 65.1586 8.39725 65.0672 8.43581 64.9688C8.51646 64.772 8.58658 64.5506 8.63917 64.3221C8.69878 64.0866 8.73734 63.8441 8.75838 63.6121C8.77591 63.4891 8.77942 63.3766 8.78293 63.2677ZM7.46812 61.1307C7.51019 60.9233 7.52772 60.7335 7.52422 60.5683C7.52772 60.4031 7.51369 60.259 7.49266 60.1606C7.48214 60.1114 7.46811 60.0692 7.4611 60.0446L7.44708 60.0024C7.44708 60.0024 7.42604 60.013 7.39098 60.0306C7.35592 60.0481 7.30333 60.0727 7.24372 60.1079C7.12451 60.1782 6.96674 60.2801 6.80545 60.4101C6.64417 60.5437 6.48289 60.7089 6.33563 60.8987C6.18837 61.092 6.06565 61.3064 5.9815 61.5314C5.89736 61.7563 5.83074 62.0023 5.81321 62.2378C5.79918 62.4698 5.81671 62.6983 5.85528 62.9021C5.87281 63.0041 5.90437 63.0954 5.93242 63.1763C5.96397 63.2571 5.99553 63.3309 6.02358 63.3942C6.05163 63.4539 6.08319 63.5031 6.10072 63.5383C6.12175 63.5699 6.13227 63.591 6.13227 63.591C6.13227 63.591 6.1498 63.577 6.18136 63.5524C6.20941 63.5242 6.25498 63.4891 6.30407 63.4399C6.35316 63.3907 6.40925 63.3309 6.46886 63.2606C6.52846 63.1903 6.59157 63.113 6.65469 63.0251C6.78091 62.8529 6.90362 62.6526 7.01231 62.4417C7.1175 62.2343 7.21216 62.0059 7.29631 61.7809C7.37695 61.5524 7.42604 61.338 7.46812 61.1307ZM6.87908 58.1291C6.88259 58.0799 6.87908 58.0342 6.87908 58.006C6.87557 57.9779 6.87558 57.9603 6.87558 57.9603C6.87558 57.9603 6.85454 57.9639 6.81597 57.9744C6.78091 57.985 6.7213 57.9955 6.65469 58.0166C6.52145 58.0553 6.34264 58.115 6.15681 58.2064C5.96748 58.2978 5.76763 58.4173 5.5818 58.5719C5.39948 58.7231 5.23469 58.9023 5.09445 59.1027C4.95069 59.303 4.83499 59.5244 4.76838 59.7459C4.69825 59.9673 4.64916 60.1993 4.64916 60.4031C4.64916 60.5051 4.65267 60.5999 4.65969 60.6878C4.6702 60.7757 4.68072 60.853 4.69474 60.9198C4.70526 60.9866 4.72279 61.0428 4.73331 61.078C4.74734 61.1131 4.75435 61.1342 4.75435 61.1342C4.75435 61.1342 4.77539 61.1237 4.81045 61.1061C4.842 61.0885 4.8981 61.0604 4.95771 61.0252C5.01731 60.9901 5.08393 60.9444 5.16106 60.8917C5.23469 60.8389 5.31533 60.7757 5.39598 60.7089C5.56077 60.5718 5.72906 60.4066 5.88333 60.2239C6.04111 60.0446 6.17785 59.8513 6.30758 59.651C6.43731 59.4506 6.5495 59.2538 6.63015 59.064C6.71079 58.8742 6.78792 58.6914 6.82298 58.5297C6.85103 58.3751 6.86856 58.231 6.87908 58.1291ZM13.2042 67.9985C13.2428 67.7877 13.2638 67.5487 13.2568 67.2991C13.2498 67.0496 13.2112 66.793 13.1481 66.5399C13.0815 66.2904 12.9938 66.0443 12.8816 65.8229C12.7694 65.6015 12.6362 65.4011 12.503 65.2324C12.3697 65.0672 12.2295 64.9337 12.1243 64.8423C12.0717 64.7966 12.0226 64.765 11.9911 64.7404C11.9595 64.7158 11.9385 64.7052 11.9385 64.7052C11.9385 64.7052 11.9279 64.7263 11.9104 64.7614C11.8964 64.7966 11.8683 64.8493 11.8438 64.9161C11.7912 65.0461 11.7351 65.2289 11.6965 65.4398C11.658 65.6507 11.6369 65.8897 11.644 66.1392C11.651 66.3888 11.6895 66.6454 11.7526 66.8984C11.8158 67.1515 11.9069 67.394 12.0191 67.6154C12.1313 67.8369 12.261 68.0372 12.3978 68.2059C12.4644 68.2903 12.5345 68.3641 12.5976 68.4274C12.6642 68.4906 12.7238 68.5469 12.7764 68.5925C12.829 68.6382 12.8781 68.6699 12.9097 68.6945C12.9412 68.7191 12.9623 68.7296 12.9623 68.7296C12.9623 68.7296 12.9728 68.7085 12.9903 68.6734C13.0043 68.6382 13.0324 68.5855 13.0569 68.5187C13.0815 68.452 13.1095 68.3746 13.1376 68.2868C13.1586 68.2024 13.1832 68.104 13.2042 67.9985ZM15.7216 69.4994C15.7602 69.2885 15.7812 69.0495 15.7742 68.7999C15.7672 68.5504 15.7286 68.2938 15.6655 68.0407C15.5989 67.7912 15.5112 67.5451 15.399 67.3237C15.2868 67.1023 15.1536 66.9019 15.0204 66.7332C14.8871 66.568 14.7469 66.4345 14.6417 66.3431C14.5891 66.2974 14.54 66.2658 14.5085 66.2412C14.4769 66.2166 14.4559 66.206 14.4559 66.206C14.4559 66.206 14.4454 66.2271 14.4278 66.2622C14.4138 66.2974 14.3858 66.3501 14.3612 66.4169C14.3086 66.5469 14.2525 66.7297 14.214 66.9406C14.1754 67.1515 14.1544 67.3905 14.1614 67.64C14.1684 67.8896 14.2069 68.1462 14.2701 68.3992C14.3332 68.6523 14.4243 68.8948 14.5365 69.1198C14.6487 69.3412 14.7785 69.5415 14.9152 69.7102C14.9818 69.7946 15.0519 69.8684 15.115 69.9317C15.1817 69.9949 15.2413 70.0512 15.2939 70.0969C15.3464 70.1426 15.3955 70.1742 15.4271 70.1988C15.4586 70.2234 15.4797 70.234 15.4797 70.234C15.4797 70.234 15.4902 70.2129 15.5077 70.1777C15.5218 70.1426 15.5498 70.0898 15.5744 70.0231C15.5989 69.9563 15.6269 69.879 15.655 69.7911C15.6795 69.7032 15.7006 69.6048 15.7216 69.4994ZM10.6833 66.5012C10.7218 66.2904 10.7429 66.0514 10.7359 65.8018C10.7288 65.5523 10.6903 65.2957 10.6272 65.0426C10.5851 64.8001 10.5465 64.5787 10.4834 64.3783C10.4168 64.185 10.3537 63.9987 10.2765 63.8511C10.2029 63.7 10.1153 63.5945 10.0557 63.5102C10.0276 63.468 9.99606 63.4364 9.97853 63.4153L9.94697 63.3836C9.94697 63.3836 9.93294 63.4012 9.9084 63.4329C9.88736 63.4645 9.8488 63.5137 9.81374 63.5699C9.7366 63.6859 9.64544 63.8511 9.56129 64.0444C9.47715 64.2377 9.40702 64.4662 9.37196 64.6947C9.33339 64.9266 9.32638 65.1727 9.35092 65.4187C9.37196 65.6683 9.43858 65.9002 9.52974 66.1181C9.6209 66.3361 9.7366 66.5364 9.87684 66.7016C9.94346 66.7859 10.0136 66.8598 10.0767 66.923C10.1433 66.9863 10.2029 67.0425 10.2555 67.0882C10.3081 67.1339 10.3572 67.1656 10.3887 67.1902C10.4203 67.2112 10.4413 67.2253 10.4413 67.2253C10.4413 67.2253 10.4519 67.2042 10.4694 67.1691C10.4834 67.1339 10.5115 67.0812 10.536 67.0144C10.5605 66.9476 10.5886 66.8703 10.6166 66.7824C10.6412 66.7016 10.6657 66.6067 10.6833 66.5012ZM6.75637 55.623C6.75987 55.5844 6.75987 55.5598 6.75987 55.5598C6.75987 55.5598 6.73533 55.5598 6.69676 55.5633C6.6582 55.5668 6.59859 55.5703 6.53197 55.5844C6.39523 55.6055 6.2094 55.6511 6.00955 55.725C5.8097 55.7988 5.59232 55.9042 5.38195 56.0378C5.17158 56.1713 4.97173 56.3365 4.78591 56.5193C4.60359 56.695 4.44931 56.8708 4.32309 57.0746C4.18986 57.275 4.10571 57.4859 4.05312 57.6827C4.02507 57.7811 4.00403 57.876 3.99001 57.9639C3.97598 58.0517 3.96547 58.1326 3.96897 58.1994C3.96897 58.2661 3.97598 58.3224 3.97598 58.361C3.97949 58.3997 3.983 58.4208 3.983 58.4208C3.983 58.4208 4.00403 58.4173 4.0426 58.4067C4.08117 58.3962 4.13727 58.3856 4.20388 58.361C4.2705 58.34 4.34763 58.3118 4.43178 58.2802C4.51593 58.245 4.60709 58.2064 4.70176 58.1572C4.88758 58.0623 5.08744 57.9428 5.28729 57.8057C5.48363 57.6686 5.67296 57.5105 5.84126 57.3523C6.00254 57.1906 6.17435 57.0254 6.29706 56.8602C6.36017 56.7794 6.41627 56.6985 6.46535 56.6177C6.51444 56.5334 6.56002 56.4139 6.59859 56.3154C6.67222 56.1151 6.71429 55.9288 6.73883 55.7882C6.74935 55.7214 6.75286 55.6617 6.75637 55.623ZM4.02156 45.4337C4.07416 45.1912 4.1022 44.9311 4.1022 44.671C4.1022 44.4109 4.07416 44.1508 4.02156 43.9083C3.96897 43.6658 3.88833 43.4373 3.79717 43.244C3.70601 43.0507 3.60784 42.8855 3.52369 42.773C3.48512 42.7168 3.44304 42.6711 3.42201 42.6394C3.39746 42.6078 3.37994 42.5938 3.37994 42.5938C3.37994 42.5938 3.36241 42.6113 3.33786 42.6394C3.31332 42.6711 3.27475 42.7133 3.23618 42.773C3.15554 42.8855 3.05386 43.0472 2.9627 43.244C2.87154 43.4373 2.79441 43.6658 2.73831 43.9083C2.68221 44.1508 2.65767 44.4109 2.65767 44.671C2.65767 44.9311 2.68221 45.1912 2.73831 45.4337C2.7909 45.6762 2.87154 45.9047 2.9592 46.098C3.00478 46.1964 3.05036 46.2843 3.09944 46.3651C3.14502 46.4459 3.1906 46.5127 3.23268 46.569C3.27125 46.6252 3.31332 46.6709 3.33786 46.7025C3.36241 46.7342 3.37994 46.7482 3.37994 46.7482C3.37994 46.7482 3.39746 46.7306 3.42201 46.7025C3.44655 46.6709 3.48512 46.6287 3.52369 46.569C3.56576 46.5127 3.61134 46.4424 3.65692 46.3651C3.70251 46.2878 3.75159 46.1964 3.79717 46.098C3.89184 45.9047 3.96897 45.6762 4.02156 45.4337ZM2.76987 48.9309C2.69624 48.727 2.59105 48.5126 2.45781 48.3017C2.32458 48.0909 2.15979 47.8905 1.97747 47.7042C1.79515 47.5215 1.5918 47.3563 1.38143 47.2227C1.17106 47.0891 0.957184 46.9837 0.753827 46.9099C0.553976 46.8361 0.368148 46.7939 0.231408 46.7693C0.164791 46.7552 0.105186 46.7552 0.0666178 46.7482C0.0280501 46.7447 0.00350423 46.7447 0.00350423 46.7447C0.00350423 46.7447 0.00350766 46.7693 0.00701381 46.808C0.01052 46.8466 0.0140253 46.9064 0.0280499 46.9732C0.0490868 47.1102 0.0946648 47.2965 0.168294 47.5004C0.241923 47.7007 0.347108 47.9186 0.480342 48.1295C0.613576 48.3404 0.778369 48.5407 0.960689 48.727C1.14301 48.9098 1.34637 49.075 1.55673 49.2086C1.7671 49.3421 1.98098 49.4476 2.18433 49.5214C2.28601 49.5565 2.38068 49.5882 2.47184 49.6092C2.5595 49.6303 2.64014 49.6479 2.71026 49.6585C2.77688 49.669 2.83999 49.6725 2.87505 49.6795C2.91362 49.6831 2.93816 49.6831 2.93816 49.6831C2.93816 49.6831 2.93816 49.6585 2.93465 49.6198C2.93115 49.5811 2.92764 49.5214 2.91362 49.4546C2.9031 49.3843 2.88557 49.3035 2.86453 49.2156C2.83297 49.1277 2.80493 49.0293 2.76987 48.9309ZM6.75637 46.8115C6.75987 46.7728 6.75987 46.7482 6.75987 46.7482C6.75987 46.7482 6.73533 46.7482 6.69676 46.7517C6.6582 46.7552 6.59859 46.7588 6.53197 46.7728C6.39523 46.7939 6.2094 46.8396 6.00955 46.9134C5.8097 46.9872 5.59232 47.0927 5.38195 47.2262C5.17158 47.3598 4.97173 47.525 4.78591 47.7077C4.60359 47.8905 4.43879 48.0944 4.30556 48.3053C4.17233 48.5161 4.06714 48.7306 3.99351 48.9344C3.95845 49.0363 3.9269 49.1312 3.90586 49.2226C3.88482 49.3105 3.86729 49.3913 3.85677 49.4616C3.84625 49.5284 3.84275 49.5917 3.83574 49.6268C3.83223 49.6655 3.83223 49.6901 3.83223 49.6901C3.83223 49.6901 3.85677 49.6901 3.89534 49.6866C3.93391 49.6831 3.99351 49.6795 4.06013 49.6655C4.13025 49.6549 4.21089 49.6374 4.29855 49.6163C4.3862 49.5952 4.48438 49.5636 4.58605 49.5284C4.78591 49.4546 5.00328 49.3491 5.21365 49.2156C5.42402 49.082 5.62388 48.9168 5.80971 48.7341C5.99203 48.5478 6.15681 48.3474 6.29005 48.1366C6.42328 47.9257 6.52847 47.7113 6.6021 47.5074C6.67572 47.3071 6.7178 47.1208 6.74234 46.9802C6.74935 46.9099 6.75286 46.8466 6.75637 46.8115ZM6.75637 52.6847C6.75987 52.646 6.75987 52.6214 6.75987 52.6214C6.75987 52.6214 6.73533 52.6214 6.69676 52.6249C6.6582 52.6284 6.59859 52.632 6.53197 52.646C6.39523 52.6671 6.2094 52.7128 6.00955 52.7866C5.8097 52.8604 5.59232 52.9659 5.38195 53.0994C5.17158 53.233 4.97173 53.3982 4.78591 53.5809C4.60359 53.7637 4.43879 53.9676 4.30556 54.1785C4.17233 54.3893 4.06714 54.6037 3.99351 54.8076C3.95845 54.9095 3.9269 55.0044 3.90586 55.0958C3.88482 55.1837 3.86729 55.2645 3.85677 55.3348C3.84625 55.4016 3.84275 55.4649 3.83574 55.5C3.83223 55.5387 3.83223 55.5633 3.83223 55.5633C3.83223 55.5633 3.85677 55.5633 3.89534 55.5598C3.93391 55.5562 3.99351 55.5527 4.06013 55.5387C4.13025 55.5281 4.21089 55.5106 4.29855 55.4895C4.3862 55.4684 4.48438 55.4367 4.58605 55.4016C4.78591 55.3278 5.00328 55.2223 5.21365 55.0888C5.42402 54.9552 5.62388 54.79 5.80971 54.6073C5.99203 54.421 6.15681 54.2206 6.29005 54.0097C6.42328 53.7989 6.52847 53.5845 6.6021 53.3806C6.67572 53.1803 6.7178 52.994 6.74234 52.8534C6.74935 52.7831 6.75286 52.7233 6.75637 52.6847ZM6.75637 49.7463C6.75987 49.7077 6.75987 49.6831 6.75987 49.6831C6.75987 49.6831 6.73533 49.6831 6.69676 49.6866C6.6582 49.6901 6.59859 49.6936 6.53197 49.7077C6.39523 49.7287 6.2094 49.7744 6.00955 49.8482C5.8097 49.9221 5.59232 50.0275 5.38195 50.1611C5.17158 50.2946 4.97173 50.4598 4.78591 50.6426C4.60359 50.8254 4.43879 51.0292 4.30556 51.2401C4.17233 51.451 4.06714 51.6654 3.99351 51.8692C3.95845 51.9712 3.9269 52.0661 3.90586 52.1575C3.88482 52.2453 3.86729 52.3262 3.85677 52.3965C3.84625 52.4632 3.84275 52.5265 3.83574 52.5617C3.83223 52.6003 3.83223 52.6249 3.83223 52.6249C3.83223 52.6249 3.85677 52.6249 3.89534 52.6214C3.93391 52.6179 3.99351 52.6144 4.06013 52.6003C4.13025 52.5898 4.21089 52.5722 4.29855 52.5511C4.3862 52.53 4.48438 52.4984 4.58605 52.4632C4.78591 52.3894 5.00328 52.284 5.21365 52.1504C5.42402 52.0169 5.62388 51.8517 5.80971 51.6689C5.99203 51.4826 6.15681 51.2823 6.29005 51.0714C6.42328 50.8605 6.52847 50.6461 6.6021 50.4422C6.67572 50.2419 6.7178 50.0556 6.74234 49.915C6.74935 49.8447 6.75286 49.785 6.75637 49.7463ZM8.51646 70.48C8.49192 70.5116 8.4814 70.5327 8.4814 70.5327C8.4814 70.5327 8.50243 70.5432 8.5375 70.5608C8.57256 70.5749 8.62515 70.603 8.69177 70.6276C8.8215 70.6803 9.00381 70.7366 9.21418 70.7752C9.42455 70.8139 9.66297 70.835 9.91191 70.8279C10.1608 70.8209 10.4168 70.7822 10.6692 70.719C10.9217 70.6557 11.1636 70.5643 11.388 70.4519C11.6089 70.3394 11.8087 70.2093 11.977 70.0723C12.0612 70.0055 12.1348 69.9352 12.1979 69.8719C12.261 69.8051 12.3171 69.7454 12.3627 69.6927C12.4083 69.6399 12.4398 69.5907 12.4644 69.5591C12.4889 69.5275 12.4995 69.5064 12.4995 69.5064C12.4995 69.5064 12.4784 69.4958 12.4434 69.4783C12.4083 69.4642 12.3557 69.4361 12.2891 69.4115C12.2225 69.3834 12.1453 69.3588 12.0577 69.3307C11.97 69.306 11.8718 69.2814 11.7667 69.2604C11.5563 69.2217 11.3179 69.2006 11.0689 69.2076C10.82 69.2147 10.5641 69.2533 10.3116 69.3166C10.0627 69.3834 9.81724 69.4712 9.59635 69.5837C9.37546 69.6962 9.17561 69.8262 9.00732 69.9633C8.84253 70.0969 8.7093 70.2375 8.61814 70.3429C8.57256 70.4027 8.541 70.4519 8.51646 70.48ZM18.2425 71.0002C18.2811 70.7893 18.3021 70.5503 18.2951 70.3007C18.2881 70.0512 18.2495 69.7946 18.1864 69.5415C18.1198 69.292 18.0322 69.046 17.92 68.8245C17.8078 68.6031 17.6745 68.4028 17.5413 68.234C17.4081 68.0688 17.2678 67.9353 17.1626 67.8439C17.11 67.7982 17.061 67.7666 17.0294 67.742C16.9979 67.7174 16.9768 67.7068 16.9768 67.7068C16.9768 67.7068 16.9663 67.7279 16.9488 67.7631C16.9347 67.7982 16.9067 67.8509 16.8822 67.9177C16.8296 68.0478 16.7735 68.2305 16.7349 68.4414C16.6963 68.6523 16.6753 68.8913 16.6823 69.1409C16.6893 69.3904 16.7279 69.647 16.791 69.9C16.8541 70.1531 16.9453 70.3956 17.0575 70.6206C17.1697 70.842 17.3029 71.0423 17.4361 71.2111C17.5027 71.2954 17.5729 71.3692 17.636 71.4325C17.7026 71.4958 17.7622 71.552 17.8148 71.5977C17.8674 71.6434 17.9165 71.675 17.948 71.6996C17.9796 71.7242 18.0006 71.7348 18.0006 71.7348C18.0006 71.7348 18.0111 71.7137 18.0287 71.6785C18.0427 71.6434 18.0707 71.5906 18.0953 71.5239C18.1198 71.4571 18.1479 71.3798 18.1759 71.2919C18.197 71.204 18.2215 71.1056 18.2425 71.0002ZM5.65894 68.5433C5.63089 68.5715 5.61687 68.589 5.61687 68.589C5.61687 68.589 5.64141 68.6066 5.67997 68.6382C5.71854 68.6664 5.78165 68.712 5.85528 68.7577C6.00254 68.8562 6.22343 68.9581 6.46886 69.0495C6.7178 69.1408 6.99479 69.2182 7.2893 69.2428C7.58032 69.2709 7.88184 69.2674 8.15182 69.2217C8.40426 69.1584 8.64618 69.067 8.87058 68.9546C9.09147 68.8421 9.29132 68.7121 9.45961 68.575C9.54376 68.5082 9.61739 68.4379 9.6805 68.3746C9.74361 68.3078 9.79971 68.2481 9.84529 68.1954C9.89087 68.1427 9.92242 68.0934 9.94697 68.0618C9.968 68.0302 9.98203 68.0091 9.98203 68.0091C9.98203 68.0091 9.96099 67.9986 9.92593 67.981C9.89087 67.9669 9.83828 67.9388 9.77166 67.9142C9.70504 67.8896 9.62791 67.8615 9.54026 67.8334C9.4526 67.8088 9.35443 67.7842 9.24924 67.7631C9.04238 67.7279 8.79344 67.6928 8.53399 67.6822C8.27453 67.6717 7.99053 67.6963 7.72406 67.7174C7.45409 67.749 7.18411 67.7982 6.92816 67.872C6.67222 67.9493 6.44432 68.0337 6.24797 68.1321C6.05163 68.2305 5.89385 68.3395 5.78166 68.4274C5.72906 68.4766 5.68699 68.5187 5.65894 68.5433ZM3.10646 65.8334C3.07139 65.8545 3.05387 65.8651 3.05387 65.8651C3.05387 65.8651 3.0714 65.8897 3.10295 65.9284C3.13451 65.967 3.18359 66.0233 3.2467 66.083C3.37292 66.206 3.55524 66.3642 3.77262 66.5153C3.98299 66.67 4.25648 66.793 4.52645 66.8949C4.66319 66.9441 4.80344 66.9863 4.94368 67.0214C5.08744 67.0496 5.23469 67.0707 5.37844 67.0812C5.66595 67.1023 5.94294 67.0882 6.19188 67.039C6.44782 66.9863 6.67923 66.8949 6.87207 66.7965C6.96674 66.7473 7.05439 66.6946 7.13152 66.6418C7.20866 66.5891 7.27177 66.5399 7.32436 66.4942C7.37696 66.452 7.41903 66.4064 7.44708 66.3782C7.47513 66.3501 7.48915 66.3325 7.48915 66.3325C7.48915 66.3325 7.47162 66.3185 7.43656 66.2939C7.4015 66.2728 7.35241 66.2341 7.29281 66.199C7.2297 66.1603 7.15607 66.1181 7.07192 66.076C6.99128 66.0303 6.89661 65.9811 6.79493 65.9354C6.59508 65.8405 6.34615 65.7631 6.10072 65.6893C5.85178 65.6155 5.5818 65.5628 5.30482 65.5312C5.03134 65.4995 4.76487 65.4785 4.5019 65.489C4.24245 65.4995 3.99351 65.5312 3.77613 65.5839C3.55875 65.6366 3.38344 65.6999 3.25371 65.7596C3.1906 65.7842 3.14152 65.8194 3.10646 65.8334ZM1.27274 62.5963C1.23417 62.6069 1.21313 62.6174 1.21313 62.6174C1.21313 62.6174 1.22715 62.642 1.24819 62.6877C1.27273 62.7299 1.3078 62.8002 1.35338 62.874C1.44804 63.0251 1.57777 63.2255 1.75658 63.4223C1.9389 63.6156 2.15979 63.8089 2.39821 63.9741C2.63663 64.1393 2.91362 64.2623 3.18359 64.3537C3.45357 64.4451 3.72354 64.4978 3.99001 64.5049C4.25297 64.5119 4.49489 64.4838 4.70526 64.4311C4.81045 64.4064 4.90512 64.3748 4.99277 64.3432C5.08042 64.3116 5.15405 64.2764 5.21716 64.2448C5.28027 64.2131 5.32936 64.1815 5.36442 64.1639C5.39598 64.1428 5.41701 64.1288 5.41701 64.1288C5.41701 64.1288 5.40299 64.1112 5.37844 64.0796C5.35039 64.0515 5.31183 64.0023 5.26274 63.9495C5.21365 63.8968 5.15054 63.8371 5.07691 63.7738C5.00328 63.714 4.92265 63.6473 4.83499 63.5734C4.66319 63.4329 4.45633 63.2923 4.22142 63.1657C3.99352 63.0357 3.75159 62.9162 3.49214 62.8213C3.22917 62.7264 2.96972 62.6455 2.71727 62.5928C2.46483 62.5401 2.21589 62.512 1.995 62.512C1.77412 62.5085 1.58128 62.5331 1.44454 62.5612C1.36389 62.5682 1.3078 62.5858 1.27274 62.5963ZM0.0631136 55.5633C0.0245459 55.5598 0 55.5598 0 55.5598C0 55.5598 -1.92591e-06 55.5808 0.00350423 55.623C0.00701039 55.6617 0.010521 55.7214 0.0245457 55.7882C0.0455826 55.9253 0.0911605 56.1116 0.16479 56.3154C0.203358 56.4209 0.245433 56.5123 0.298026 56.6353C0.354124 56.7688 0.417233 56.8989 0.487356 57.0254C0.631108 57.282 0.792392 57.521 1.00276 57.7249C1.20612 57.9287 1.42701 58.1009 1.6514 58.231C1.87229 58.361 2.10369 58.4489 2.31757 58.4981C2.42276 58.5227 2.52444 58.5403 2.6156 58.5508C2.70676 58.5614 2.7909 58.5649 2.86103 58.5684C2.93115 58.5719 2.99075 58.5649 3.02932 58.5649C3.06789 58.5614 3.09243 58.5579 3.09243 58.5579C3.09243 58.5579 3.08892 58.5333 3.07841 58.4946C3.06789 58.4559 3.05386 58.3962 3.02932 58.3259C3.00828 58.2556 2.98024 58.1748 2.94868 58.0834C2.91712 57.992 2.87856 57.8971 2.82947 57.7952C2.73481 57.5913 2.60858 57.3699 2.47184 57.152C2.3316 56.934 2.15629 56.7056 1.97397 56.5158C1.79165 56.333 1.58829 56.1678 1.37792 56.0343C1.16755 55.9007 0.953675 55.7952 0.750317 55.7214C0.550466 55.6476 0.364644 55.6054 0.227903 55.5808C0.161286 55.5703 0.101681 55.5668 0.0631136 55.5633ZM0.0631136 52.6249C0.0245459 52.6214 0 52.6214 0 52.6214C0 52.6214 -1.92591e-06 52.646 0.00350423 52.6847C0.00701039 52.7233 0.010521 52.7831 0.0245457 52.8499C0.0455826 52.9869 0.0911605 53.1732 0.16479 53.3771C0.238419 53.5809 0.343604 53.7953 0.476838 54.0062C0.610072 54.2171 0.774859 54.4175 0.957179 54.6037C1.1395 54.7865 1.34286 54.9517 1.55323 55.0853C1.7636 55.2188 1.97747 55.3243 2.18083 55.3981C2.28251 55.4332 2.37718 55.4649 2.46834 55.4859C2.55599 55.507 2.63663 55.5246 2.70675 55.5352C2.77337 55.5457 2.83648 55.5492 2.87154 55.5562C2.91011 55.5598 2.93465 55.5598 2.93465 55.5598C2.93465 55.5598 2.93465 55.5352 2.93115 55.4965C2.92764 55.4578 2.92414 55.3981 2.91011 55.3313C2.89959 55.261 2.88206 55.1802 2.86103 55.0923C2.83999 55.0044 2.80843 54.906 2.77337 54.8041C2.69974 54.6037 2.59456 54.3858 2.46132 54.1749C2.32809 53.964 2.1633 53.7637 1.98098 53.5774C1.79866 53.3947 1.5953 53.2295 1.38493 53.0959C1.17456 52.9623 0.960688 52.8569 0.757331 52.7831C0.55748 52.7093 0.371652 52.6671 0.234912 52.6425C0.161283 52.6355 0.101681 52.632 0.0631136 52.6249ZM0.259458 59.0113C0.22089 59.0113 0.196344 59.0148 0.196344 59.0148C0.196344 59.0148 0.203357 59.0429 0.213876 59.0921C0.2279 59.1378 0.241926 59.2151 0.269976 59.2995C0.319062 59.4717 0.403208 59.6966 0.536442 59.9251C0.666169 60.1571 0.823946 60.3996 1.0238 60.614C1.22715 60.8284 1.45506 61.0182 1.69347 61.1729C1.93189 61.324 2.19836 61.4365 2.44379 61.5068C2.69273 61.5771 2.93466 61.6087 3.15204 61.6087C3.26073 61.6087 3.3589 61.6017 3.45006 61.5911C3.54122 61.5806 3.62537 61.563 3.69198 61.5489C3.7586 61.5349 3.81821 61.5138 3.85327 61.5033C3.89184 61.4892 3.91287 61.4822 3.91287 61.4822C3.91287 61.4822 3.90235 61.4611 3.88482 61.4259C3.86379 61.3908 3.84275 61.3345 3.80418 61.2713C3.76912 61.208 3.72354 61.1342 3.67095 61.0569C3.61835 60.976 3.55525 60.8952 3.48162 60.8073C3.33786 60.6316 3.18008 60.4418 2.98374 60.266C2.78739 60.0868 2.57352 59.9146 2.35263 59.7564C2.12824 59.6018 1.88631 59.4612 1.64789 59.3487C1.41649 59.2362 1.18508 59.1483 0.971207 59.0956C0.757331 59.0394 0.567998 59.0148 0.427752 59.0113C0.357628 59.0042 0.298025 59.0113 0.259458 59.0113ZM0.0631136 49.6901C0.0245459 49.6866 0 49.6866 0 49.6866C0 49.6866 -1.92591e-06 49.7112 0.00350423 49.7498C0.00701039 49.7885 0.010521 49.8482 0.0245457 49.915C0.0455826 50.0521 0.0911605 50.2384 0.16479 50.4422C0.238419 50.6461 0.343604 50.8605 0.476838 51.0714C0.610072 51.2823 0.774859 51.4861 0.957179 51.6689C1.1395 51.8517 1.34286 52.0169 1.55323 52.1504C1.7636 52.284 1.97747 52.3894 2.18083 52.4632C2.28251 52.4984 2.37718 52.53 2.46834 52.5511C2.55599 52.5722 2.63663 52.5898 2.70675 52.6003C2.77337 52.6109 2.83648 52.6144 2.87154 52.6214C2.91011 52.6249 2.93465 52.6249 2.93465 52.6249C2.93465 52.6249 2.93465 52.6003 2.93115 52.5617C2.92764 52.523 2.92414 52.4632 2.91011 52.3965C2.89959 52.3262 2.88206 52.2453 2.86103 52.1575C2.83999 52.0696 2.80843 51.9712 2.77337 51.8692C2.69974 51.6654 2.59456 51.451 2.46132 51.2401C2.32809 51.0292 2.1633 50.8289 1.98098 50.6426C1.79866 50.4598 1.5953 50.2946 1.38493 50.1611C1.17456 50.0275 0.960688 49.9221 0.757331 49.8482C0.55748 49.7744 0.371652 49.7323 0.234912 49.7077C0.161283 49.6971 0.101681 49.6936 0.0631136 49.6901ZM16.0757 74.9824C16.0512 75.014 16.0407 75.0351 16.0407 75.0351C16.0407 75.0351 16.0617 75.0457 16.0968 75.0632C16.1318 75.0773 16.1844 75.1054 16.251 75.13C16.3808 75.1828 16.5631 75.239 16.7735 75.2776C16.9838 75.3163 17.2222 75.3374 17.4712 75.3304C17.7201 75.3233 17.9761 75.2847 18.2285 75.2214C18.481 75.1582 18.7229 75.0668 18.9473 74.9543C19.1682 74.8418 19.368 74.7118 19.5363 74.5747C19.6205 74.5079 19.6941 74.4376 19.7572 74.3744C19.8203 74.3076 19.8764 74.2478 19.922 74.1951C19.9676 74.1424 19.9991 74.0932 20.0237 74.0615C20.0482 74.0299 20.0587 74.0088 20.0587 74.0088C20.0587 74.0088 20.0377 73.9983 20.0026 73.9807C19.9676 73.9666 19.915 73.9385 19.8484 73.9139C19.7817 73.8893 19.7046 73.8612 19.6169 73.8331C19.5293 73.8085 19.4311 73.7839 19.3259 73.7628C19.1156 73.7241 18.8772 73.703 18.6282 73.7101C18.3793 73.7171 18.1233 73.7557 17.8709 73.819C17.6219 73.8858 17.3765 73.9737 17.1556 74.0861C16.9347 74.1986 16.7349 74.3287 16.5666 74.4657C16.4018 74.5993 16.2686 74.7399 16.1774 74.8453C16.1318 74.9016 16.0968 74.9508 16.0757 74.9824ZM19.95 72.7048C20.0167 72.7892 20.0868 72.863 20.1499 72.9263C20.2165 72.9895 20.2761 73.0458 20.3287 73.0915C20.3813 73.1371 20.4304 73.1688 20.4619 73.1934C20.4935 73.218 20.5145 73.2285 20.5145 73.2285C20.5145 73.2285 20.525 73.2074 20.5426 73.1723C20.5566 73.1371 20.5847 73.0844 20.6092 73.0176C20.6337 72.9509 20.6618 72.8735 20.6898 72.7857C20.7144 72.6978 20.7389 72.5994 20.76 72.4939C20.7985 72.2831 20.8196 72.0441 20.8125 71.7945C20.8055 71.545 20.767 71.2884 20.7039 71.0353C20.6372 70.7858 20.5496 70.5397 20.4374 70.3183C20.3252 70.0969 20.192 69.8965 20.0587 69.7278C19.9255 69.5626 19.7852 69.4291 19.6801 69.3377C19.6275 69.292 19.5784 69.2604 19.5468 69.2358C19.5153 69.2112 19.4942 69.2006 19.4942 69.2006C19.4942 69.2006 19.4837 69.2217 19.4662 69.2568C19.4522 69.292 19.4241 69.3447 19.3996 69.4115C19.347 69.5415 19.2909 69.7243 19.2523 69.9352C19.2137 70.1461 19.1927 70.3851 19.1997 70.6346C19.2067 70.8842 19.2453 71.1408 19.3084 71.3938C19.3715 71.6469 19.4627 71.8894 19.5749 72.1143C19.6836 72.3393 19.8133 72.5396 19.95 72.7048ZM13.5548 73.4816C13.5303 73.5132 13.5197 73.5343 13.5197 73.5343C13.5197 73.5343 13.5408 73.5449 13.5758 73.5624C13.6109 73.5765 13.6635 73.6046 13.7301 73.6292C13.8598 73.6819 14.0422 73.7382 14.2525 73.7768C14.4629 73.8155 14.7013 73.8366 14.9503 73.8296C15.1992 73.8225 15.4551 73.7839 15.7076 73.7206C15.96 73.6573 16.202 73.566 16.4263 73.4535C16.6472 73.341 16.8471 73.211 17.0154 73.0739C17.0995 73.0071 17.1732 72.9368 17.2363 72.8735C17.2994 72.8068 17.3555 72.747 17.4011 72.6943C17.4466 72.6416 17.4782 72.5924 17.5027 72.5607C17.5273 72.5291 17.5378 72.508 17.5378 72.508C17.5378 72.508 17.5168 72.4975 17.4817 72.4799C17.4466 72.4658 17.394 72.4377 17.3274 72.4131C17.2608 72.3885 17.1837 72.3604 17.096 72.3323C17.0084 72.3077 16.9102 72.2831 16.805 72.262C16.5946 72.2233 16.3562 72.2022 16.1073 72.2093C15.8584 72.2163 15.6024 72.2549 15.35 72.3182C15.101 72.385 14.8556 72.4729 14.6347 72.5853C14.4138 72.6978 14.214 72.8279 14.0457 72.9649C13.8809 73.0985 13.7476 73.2391 13.6565 73.3445C13.6109 73.4008 13.5793 73.45 13.5548 73.4816ZM11.0374 71.9808C11.0128 72.0124 11.0023 72.0335 11.0023 72.0335C11.0023 72.0335 11.0234 72.0441 11.0584 72.0616C11.0935 72.0757 11.1461 72.1038 11.2127 72.1284C11.3424 72.1811 11.5247 72.2374 11.7351 72.276C11.9455 72.3147 12.1839 72.3358 12.4328 72.3288C12.6818 72.3217 12.9377 72.2831 13.1902 72.2198C13.4426 72.1565 13.6845 72.0651 13.9089 71.9527C14.1298 71.8402 14.3297 71.7102 14.498 71.5731C14.5821 71.5063 14.6557 71.436 14.7188 71.3727C14.782 71.306 14.8381 71.2462 14.8836 71.1935C14.9292 71.1408 14.9608 71.0915 14.9853 71.0599C15.0099 71.0283 15.0204 71.0072 15.0204 71.0072C15.0204 71.0072 14.9993 70.9967 14.9643 70.9791C14.9292 70.965 14.8766 70.9369 14.81 70.9123C14.7434 70.8842 14.6663 70.8596 14.5786 70.8315C14.4909 70.8069 14.3928 70.7823 14.2876 70.7612C14.0772 70.7225 13.8388 70.7014 13.5899 70.7084C13.3409 70.7155 13.085 70.7541 12.8325 70.8174C12.5836 70.8842 12.3382 70.972 12.1173 71.0845C11.8964 71.197 11.6965 71.327 11.5282 71.4641C11.3635 71.5977 11.2302 71.7383 11.1391 71.8437C11.0935 71.9 11.0619 71.9527 11.0374 71.9808Z" fill="#2EB97E"/>
</svg>
