<svg width="60" height="60" viewBox="0 0 60 60" fill="none" xmlns="http://www.w3.org/2000/svg">
<path d="M57.5009 37.2343C57.3071 37.0523 57.1337 36.8914 56.9778 36.7468C56.3667 36.18 56.0599 35.8954 55.9087 35.6334C55.7574 35.3715 55.6645 34.9637 55.479 34.151C55.4316 33.9437 55.379 33.713 55.3183 33.4541C54.9744 31.9861 53.7318 30.9435 52.2264 30.8597C51.9884 30.8466 51.7503 30.8342 51.5122 30.8227C50.6797 30.7812 50.2619 30.7603 49.9776 30.6568C49.6934 30.5535 49.3599 30.3007 48.6956 29.7974C48.5261 29.6691 48.3375 29.5261 48.1247 29.3668C46.9177 28.4633 45.2956 28.4633 44.0886 29.3668C43.8979 29.5098 43.7076 29.6533 43.5178 29.7973C42.8533 30.3007 42.5198 30.5534 42.2355 30.6568C42.1166 30.7002 41.9736 30.7289 41.7872 30.7508C38.7124 27.9906 35.0312 26.0875 31.0727 25.1709C35.3543 23.1152 38.3175 18.7363 38.3175 13.678C38.3176 6.65285 32.6022 0.9375 25.5771 0.9375C18.5519 0.9375 12.8366 6.65285 12.8366 13.678C12.8366 18.7365 15.8 23.1157 20.0819 25.1713C16.0945 26.0953 12.3825 28.0196 9.2968 30.8101C4.86079 34.8218 2.06868 40.2922 1.43505 46.2137C1.421 46.3445 1.43464 46.4768 1.47509 46.6019C1.51553 46.7271 1.58187 46.8424 1.66979 46.9402C1.75771 47.038 1.86525 47.1163 1.9854 47.1698C2.10554 47.2233 2.23562 47.251 2.36716 47.2509L25.5754 47.2508L25.577 47.2509L25.5785 47.2508H35.0219C35.3539 48.0188 35.9694 48.6529 36.7876 49.0034C37.0319 49.108 37.2501 49.2 37.4459 49.2825C37.5457 49.3245 37.6386 49.3637 37.7259 49.4007L35.1136 55.0117C35.0242 55.2028 34.989 55.4148 35.012 55.6246C35.035 55.8343 35.1153 56.0337 35.244 56.2009C35.372 56.3685 35.5437 56.4977 35.7403 56.5742C35.9368 56.6508 36.1506 56.6719 36.3583 56.6351L38.9947 56.1745L40.3393 58.4884C40.4449 58.671 40.5987 58.8211 40.7839 58.9221C40.9691 59.0232 41.1785 59.0714 41.3892 59.0614C41.6 59.0522 41.8042 58.9852 41.9795 58.8678C42.1548 58.7504 42.2944 58.587 42.3832 58.3956L44.9539 52.8738C45.5265 52.6991 45.8517 52.6111 46.1067 52.6111C46.3617 52.6111 46.6869 52.6991 47.2596 52.8738L49.8302 58.3955C49.9226 58.5952 50.0704 58.7641 50.256 58.8824C50.4415 59.0006 50.6571 59.0632 50.8772 59.0626C51.0791 59.0629 51.2776 59.0099 51.4526 58.9091C51.6276 58.8083 51.7729 58.6632 51.8741 58.4884L53.2187 56.1745L55.855 56.6352C56.0629 56.6719 56.2768 56.6508 56.4734 56.5741C56.6701 56.4974 56.8418 56.3681 56.9698 56.2003C57.0984 56.0331 57.1785 55.8337 57.2014 55.6241C57.2243 55.4144 57.189 55.2025 57.0996 55.0114L54.4873 49.4007C54.5747 49.3637 54.6676 49.3246 54.7673 49.2825C54.987 49.1901 55.2065 49.0971 55.4257 49.0034C56.8116 48.4098 57.6227 47.0051 57.4438 45.5079C57.4122 45.2439 57.3827 45.009 57.3563 44.7981C57.2526 43.971 57.2005 43.5559 57.2531 43.258C57.3057 42.9601 57.4965 42.5878 57.8769 41.8461C57.9738 41.657 58.0818 41.4464 58.2017 41.2092C58.882 39.8636 58.6004 38.2663 57.5009 37.2343ZM34.0116 41.2092C34.1315 41.4464 34.2396 41.657 34.3365 41.8463C34.7169 42.588 34.9078 42.9602 34.9603 43.2581C35.0128 43.556 34.9607 43.9711 34.857 44.7982C34.8351 44.973 34.8111 45.1654 34.7856 45.3759H27.6891L30.054 42.7615C30.1528 42.6522 30.2245 42.5212 30.2632 42.379C30.3019 42.2369 30.3066 42.0876 30.2769 41.9433L29.072 36.1017L29.3063 36.3796C29.404 36.4954 29.5282 36.5859 29.6685 36.6432C29.8087 36.7005 29.9608 36.7229 30.1116 36.7086C30.2624 36.6943 30.4075 36.6436 30.5345 36.561C30.6614 36.4783 30.7665 36.3661 30.8406 36.2339L35.1463 28.5607C36.5674 29.2329 37.9137 30.0532 39.1626 31.008C38.0423 31.3553 37.1737 32.265 36.895 33.4545C36.8343 33.7132 36.7817 33.9441 36.7345 34.1513C36.5491 34.9639 36.4561 35.3719 36.3048 35.6338C36.1535 35.8957 35.8468 36.1804 35.2357 36.7472C35.0607 36.9091 34.8863 37.0716 34.7124 37.2347C33.6131 38.2662 33.3315 39.8636 34.0116 41.2092ZM21.2867 34.1364L17.7422 27.8197C18.4026 27.5747 19.0742 27.3611 19.7549 27.1796L24.2304 30.6461L21.2867 34.1364ZM24.6163 33.0967L25.577 31.9575L26.5375 33.0966L28.3443 41.8563L25.5768 44.916L22.8093 41.8563L24.6163 33.0967ZM26.9238 30.6461L31.3944 27.1835C32.0752 27.3662 32.7471 27.581 33.4075 27.8273L29.8673 34.1364L26.9238 30.6461ZM14.7116 13.678C14.7116 7.6868 19.5859 2.8125 25.5771 2.8125C31.5683 2.8125 36.4426 7.6868 36.4426 13.678C36.4426 19.6677 31.5709 24.5409 25.5818 24.5435H25.5723C19.5833 24.5408 14.7116 19.6677 14.7116 13.678ZM25.5771 26.4185H25.5818C26.7209 26.419 27.8584 26.5059 28.9844 26.6784L25.577 29.3176L22.1668 26.6763C23.2939 26.505 24.4323 26.4188 25.5723 26.4185H25.5771ZM16.0026 28.5512L20.3136 36.2337C20.3877 36.3658 20.4928 36.478 20.6197 36.5606C20.7467 36.6432 20.8918 36.6939 21.0426 36.7082C21.1934 36.7225 21.3454 36.7001 21.4856 36.6428C21.6259 36.5855 21.7502 36.4951 21.8478 36.3793L22.0821 36.1016L20.8772 41.9432C20.8474 42.0875 20.852 42.2368 20.8908 42.379C20.9295 42.5212 21.0012 42.6522 21.1 42.7615L23.4649 45.3759L3.4345 45.3761C4.59325 37.837 9.43532 31.644 16.0026 28.5512ZM41.2665 56.3518L40.2877 54.6674C40.1914 54.5017 40.0466 54.3695 39.8728 54.2886C39.699 54.2077 39.5046 54.182 39.3158 54.2149L37.3968 54.5502L39.28 50.5052C39.4065 50.6893 39.5548 50.919 39.7423 51.2093C39.8577 51.3878 39.9861 51.5866 40.1315 51.8092C40.7191 52.7075 41.6614 53.2451 42.6761 53.3241L41.2665 56.3518ZM52.8977 54.2149C52.7089 54.1819 52.5144 54.2076 52.3406 54.2885C52.1668 54.3694 52.022 54.5016 51.9257 54.6674L50.947 56.3517L49.538 53.3254C50.5525 53.2461 51.4946 52.7074 52.082 51.8091C52.2274 51.5866 52.3558 51.3878 52.4711 51.2093C52.6586 50.9189 52.807 50.6893 52.9334 50.5052L54.8166 54.5502L52.8977 54.2149ZM56.5284 40.3634C56.4224 40.5727 56.3157 40.7818 56.2085 40.9905C55.2745 42.8119 55.2413 43.0007 55.496 45.0314C55.522 45.2391 55.5511 45.4704 55.5821 45.7303C55.6627 46.4043 55.3115 47.0125 54.6876 47.2796C54.4469 47.3827 54.2321 47.4732 54.0392 47.5546C52.1532 48.3495 52.0063 48.4726 50.896 50.1921C50.7825 50.3679 50.6561 50.5637 50.5128 50.7828C50.1413 51.3509 49.4812 51.5911 48.8318 51.3947C48.5812 51.319 48.3584 51.2502 48.1584 51.1884C47.1805 50.8867 46.6436 50.7359 46.1068 50.7359C45.57 50.7359 45.033 50.8868 44.0552 51.1884C43.8552 51.2502 43.6325 51.3189 43.3818 51.3947C42.7323 51.5906 42.0723 51.3509 41.7008 50.7828C41.5575 50.5637 41.4311 50.3679 41.3176 50.1921C40.2072 48.4727 40.0604 48.3495 38.1744 47.5546C37.958 47.4636 37.7418 47.372 37.526 47.2796C36.9021 47.0125 36.551 46.4043 36.6315 45.7303C36.6625 45.4704 36.6916 45.2391 36.7176 45.0314C36.9723 43.0007 36.9391 42.8119 36.005 40.9905C35.9095 40.8043 35.8032 40.5969 35.6851 40.3634C35.3789 39.7576 35.5009 39.066 35.9956 38.6016C36.1669 38.441 36.3387 38.281 36.5109 38.1214C38.0114 36.7296 38.1072 36.5636 38.5625 34.568C38.609 34.3639 38.6609 34.1367 38.7206 33.8818C38.8754 33.2209 39.4134 32.7695 40.0911 32.7319C40.3525 32.7172 40.5854 32.7057 40.7945 32.6953C42.8386 32.5935 43.0187 32.5279 44.6503 31.2918C44.817 31.1654 45.0028 31.0247 45.2123 30.8678C45.7558 30.461 46.4579 30.4611 47.0013 30.8678C47.2109 31.0246 47.3967 31.1654 47.5636 31.2919C49.1949 32.5277 49.375 32.5934 51.4191 32.6952C51.6282 32.7056 51.8611 32.7172 52.1225 32.7318C52.8002 32.7694 53.3382 33.2208 53.493 33.8817C53.5528 34.1366 53.6046 34.3639 53.6512 34.568C54.1065 36.5633 54.2023 36.7294 55.7028 38.1213C55.8563 38.2637 56.0272 38.4221 56.218 38.6013C56.7127 39.066 56.8347 39.7576 56.5284 40.3634ZM46.1067 33.9934C42.2363 33.9934 39.0875 37.1422 39.0875 41.0125C39.0875 44.8827 42.2363 48.0315 46.1067 48.0315C49.977 48.0315 53.1259 44.8828 53.1259 41.0126C53.1259 37.1423 49.9772 33.9934 46.1067 33.9934ZM46.1067 46.1566C43.2702 46.1566 40.9625 43.849 40.9625 41.0126C40.9625 38.1762 43.2702 35.8685 46.1067 35.8685C48.9432 35.8685 51.2509 38.1762 51.2509 41.0126C51.2509 43.849 48.9432 46.1566 46.1067 46.1566Z" fill="white"/>
</svg>
