<svg width="60" height="60" viewBox="0 0 60 60" fill="none" xmlns="http://www.w3.org/2000/svg">
<g clip-path="url(#clip0_119_1954)">
<path d="M45.7911 29.0613C43.6653 27.8191 40.9243 28.5398 39.681 30.6668L34.0232 40.3512C33.9646 40.4508 33.8638 40.493 33.7513 40.4625C31.1568 39.7605 28.8423 39.7605 26.2454 40.4637C26.1353 40.4941 26.0345 40.452 25.9747 40.3512L20.3181 30.668C19.0747 28.5398 16.3337 27.8203 14.2068 29.0625C12.0821 30.3059 11.3638 33.0469 12.6048 35.1727L20.9403 49.4473C20.9673 49.4941 20.9732 49.5176 20.9732 49.5715V57.8824C20.9732 59.052 21.9247 60.0035 23.0943 60.0035H36.9036C38.0732 60.0035 39.0247 59.052 39.0247 57.8824V49.5715C39.0247 49.5164 39.0306 49.493 39.0564 49.4496L47.3942 35.1727C48.6353 33.0457 47.9169 30.3059 45.7911 29.0613ZM45.7735 34.2246L37.4333 48.5051C37.2411 48.8367 37.1474 49.1859 37.1474 49.5703V57.8813C37.1474 58.0137 37.036 58.125 36.9036 58.125H23.0954C22.963 58.125 22.8517 58.0137 22.8517 57.8813V49.5703C22.8517 49.1859 22.7579 48.8379 22.5646 48.5027L14.2267 34.2258C13.5071 32.993 13.9232 31.4039 15.1548 30.6832C15.5493 30.4521 15.9983 30.3303 16.4556 30.3305C17.3474 30.3305 18.2169 30.791 18.6985 31.6148L24.3552 41.2969C24.845 42.1395 25.8048 42.532 26.74 42.2754C29.0251 41.6566 30.9763 41.6566 33.2591 42.2742C34.1978 42.5309 35.1575 42.1383 35.6462 41.298L41.3028 31.6148C42.0235 30.3809 43.6126 29.9625 44.8454 30.682C46.0759 31.4027 46.4931 32.993 45.7735 34.2246ZM29.9978 25.4051C26.3075 25.4051 23.3064 28.4074 23.3064 32.0965C23.3064 35.7855 26.3087 38.7879 29.9978 38.7879C33.6892 38.7879 36.6927 35.7855 36.6927 32.0965C36.6927 28.4074 33.6892 25.4051 29.9978 25.4051ZM29.9978 36.9117C27.3423 36.9117 25.1825 34.752 25.1825 32.0965C25.1825 29.441 27.3423 27.2812 29.9978 27.2812C32.6544 27.2812 34.8165 29.441 34.8165 32.0965C34.8165 34.752 32.6544 36.9117 29.9978 36.9117ZM29.9978 18.3469C35.0556 18.3469 39.1712 14.2312 39.1712 9.17344C39.1712 4.11562 35.0556 0 29.9978 0C24.9411 0 20.8278 4.11562 20.8278 9.17344C20.8278 14.2312 24.9411 18.3469 29.9978 18.3469ZM29.9978 1.87617C34.0208 1.87617 37.2939 5.14922 37.2939 9.17227C37.2939 13.1953 34.0208 16.4684 29.9978 16.4684C25.9759 16.4684 22.7052 13.1953 22.7052 9.17227C22.704 5.15039 25.9759 1.87617 29.9978 1.87617ZM25.4439 8.89336C25.0771 8.52656 25.0771 7.93242 25.4439 7.56563C25.8107 7.19883 26.4048 7.19883 26.7716 7.56563L29.3298 10.1238L33.2275 6.22617C33.5943 5.85937 34.1884 5.85937 34.5552 6.22617C34.922 6.59297 34.922 7.18711 34.5552 7.55391L29.9942 12.1148C29.8114 12.2977 29.5712 12.3902 29.331 12.3902C29.0907 12.3902 28.8505 12.2988 28.6677 12.1148L25.4439 8.89336ZM53.4681 15.0949C53.2618 14.4445 52.6642 14.0074 51.9763 14.0074L48.9446 14.0133L48.0107 11.1258C48.0107 11.1246 48.0095 11.1223 48.0095 11.1211C47.7974 10.4754 47.1997 10.0406 46.5235 10.0406C45.845 10.0406 45.2462 10.4742 45.0329 11.127L44.1025 14.0133L41.0661 14.0074C40.3888 14.0074 39.7923 14.4398 39.5802 15.0844C39.3669 15.7336 39.5966 16.4391 40.1509 16.8387L42.6083 18.6164L41.6603 21.5086C41.4552 22.1566 41.686 22.8586 42.2298 23.25C42.504 23.4504 42.8251 23.5512 43.1474 23.5512C43.4708 23.5512 43.7942 23.4504 44.0696 23.2488L46.5235 21.4629L48.9728 23.2477C49.5224 23.6496 50.2618 23.652 50.8185 23.2512C51.3681 22.8492 51.5942 22.1449 51.3821 21.5016L50.4388 18.6152L52.9009 16.8363C53.4505 16.4344 53.6767 15.7312 53.4681 15.0949ZM49.1485 17.2312C48.6001 17.632 48.3739 18.3363 48.5849 18.9844L49.2962 21.1605L47.4411 19.8082C47.1657 19.6102 46.8435 19.5105 46.5224 19.5105C46.1989 19.5105 45.8767 19.6113 45.6036 19.8105L43.7497 21.1605L44.4634 18.9855L44.4669 18.9727C44.6685 18.3281 44.4388 17.6285 43.8915 17.2277L42.0364 15.8859L44.3286 15.8906C45.0071 15.8906 45.6048 15.457 45.8192 14.8043L46.5224 12.6211L47.2267 14.7996C47.4329 15.4523 48.0317 15.8895 48.7173 15.8895L51.0095 15.8848L49.1485 17.2312ZM15.9271 23.2477C16.2048 23.4504 16.5294 23.5523 16.854 23.5523C17.1739 23.5523 17.4939 23.4527 17.7646 23.2547C18.3142 22.8586 18.545 22.1578 18.3364 21.5004L17.3907 18.6176L19.847 16.841C20.4025 16.4402 20.6321 15.7348 20.4189 15.0855C20.3164 14.7718 20.1171 14.4986 19.8498 14.3052C19.5824 14.1117 19.2606 14.0079 18.9306 14.0086L15.8966 14.0145L14.9661 11.1281C14.9661 11.1258 14.965 11.1246 14.965 11.1223C14.8624 10.8081 14.6631 10.5343 14.3956 10.3403C14.1281 10.1462 13.806 10.0417 13.4755 10.0418C12.7993 10.0418 12.2017 10.4754 11.9884 11.127L11.0544 14.0145L8.02159 14.0086C7.33605 14.0086 6.73839 14.4457 6.53566 15.0855C6.32355 15.7312 6.54972 16.4355 7.10402 16.841L9.56144 18.6164L8.61925 21.5004C8.40597 22.1461 8.63331 22.8504 9.18761 23.2559C9.45531 23.4495 9.77751 23.5532 10.1079 23.5522C10.4383 23.5511 10.7598 23.4453 11.0263 23.25L13.4767 21.4641L15.9271 23.2477ZM10.7028 21.1617L11.4142 18.9844C11.6251 18.3375 11.3978 17.6332 10.8458 17.2289L8.98839 15.8871L11.2829 15.8918C11.9673 15.8918 12.5661 15.4535 12.77 14.8066L13.4755 12.6234L14.181 14.8113C14.3931 15.457 14.9919 15.8918 15.6716 15.8918L17.9614 15.8871L16.1017 17.2324C15.5591 17.6297 15.3294 18.3293 15.531 18.9738L15.5345 18.9867L16.2482 21.1617L14.3954 19.8129C14.1286 19.6173 13.8064 19.5118 13.4755 19.5117C13.1532 19.5117 12.8298 19.6113 12.5509 19.8117L10.7028 21.1617Z" fill="white"/>
</g>
<defs>
<clipPath id="clip0_119_1954">
<rect width="60" height="60" fill="white"/>
</clipPath>
</defs>
</svg>
