<svg width="60" height="60" viewBox="0 0 60 60" fill="none" xmlns="http://www.w3.org/2000/svg">
<path d="M18.4556 18.7147C18.4556 19.1093 18.7283 19.5039 19.0919 19.6025L24.6374 21.3782L24.7283 25.1269C23.7283 29.2702 26.2737 34.696 30.0919 34.696C33.9101 34.696 36.4556 29.4675 35.4556 25.2256L35.6374 21.3782L37.5465 20.6877V22.2661C37.5465 22.858 37.9101 23.2526 38.4556 23.2526C39.001 23.2526 39.3647 22.858 39.3647 22.2661V20.0958L40.9101 19.6025C41.2737 19.5039 41.5465 19.1093 41.5465 18.7147C41.5465 18.3201 41.3646 17.9255 41.001 17.7282L30.2737 12.697C30.001 12.5984 29.8192 12.5984 29.5465 12.697L18.8192 17.7282C18.6374 17.9255 18.3646 18.3201 18.4556 18.7147ZM30.0919 20.2931C31.001 20.2931 33.0919 20.4904 33.8192 20.9836L33.7283 23.4499C31.7283 22.858 28.5465 22.7593 26.4556 23.4499L26.3646 20.885C27.1828 20.3917 29.1828 20.2931 30.0919 20.2931ZM30.0919 32.8216C27.9101 32.8216 25.6374 29.2702 26.5465 25.6202C28.0919 24.7323 32.2737 24.831 33.7283 25.6202C34.6374 29.0729 32.3646 32.8216 30.0919 32.8216ZM30.001 14.7687L38.0919 18.616L35.1828 19.6025C34.0919 18.5174 31.5465 18.3201 30.0919 18.3201C28.6374 18.3201 26.0919 18.5174 25.001 19.6025L21.9101 18.616L30.001 14.7687ZM39.9101 12.993L44.1828 14.3741L44.2737 17.2349C44.0919 17.8268 44.0919 18.5174 44.0919 18.8133C44.0919 21.7728 46.001 25.0283 48.7283 25.0283C51.4556 25.0283 53.3646 21.7728 53.3646 18.8133C53.3646 18.2214 53.2737 17.7282 53.1828 17.3336L53.2737 14.3741L54.4556 13.9795V14.966C54.4556 15.5579 54.8192 15.9525 55.3647 15.9525C55.9101 15.9525 56.2737 15.5579 56.2737 14.966V13.3876L57.3647 12.993C57.7283 12.8943 58.001 12.4997 58.001 12.1051C58.001 11.7105 57.8192 11.3159 57.4556 11.1186L48.9101 7.07399C48.6374 6.97534 48.4556 6.97534 48.1828 7.07399L39.6374 11.1186C39.2737 11.3159 39.0919 11.7105 39.0919 12.1051C39.2737 12.4997 39.5465 12.8943 39.9101 12.993ZM48.8192 13.4862C49.6374 13.4862 51.001 13.5849 51.6374 13.9795L51.5465 15.6565C50.001 15.1633 47.6374 15.1633 46.0919 15.6565L46.001 13.9795C46.6374 13.5849 48.001 13.4862 48.8192 13.4862ZM48.8192 23.1539C47.3646 23.1539 46.001 21.0823 46.001 18.912C46.001 18.616 46.0919 18.0241 46.1828 17.7282C47.3647 17.1363 50.5465 17.2349 51.6374 17.7282C51.7283 18.0241 51.8192 18.5174 51.8192 18.912C51.6374 20.9836 50.2737 23.1539 48.8192 23.1539ZM48.7283 9.14564L54.6374 11.9078L52.9101 12.4997C52.001 11.7105 50.001 11.5132 48.8192 11.5132C47.6374 11.5132 45.6374 11.7105 44.7283 12.4997L42.8192 11.9078L48.7283 9.14564Z" fill="white"/>
<path d="M59.1818 38.4439C58.2727 24.6329 59.2727 40.3182 58.5455 28.3816C58.3636 27.2964 58.1818 25.718 56.4545 25.2248C55 24.7315 54.7273 24.4356 53 24.2383C52.7273 24.2383 52.3636 24.3369 52.1818 24.6329C52 24.9288 51.9091 25.2248 52 25.5207C52.1818 26.2113 52.2727 26.9018 52.3636 27.5924C52.4545 30.0586 50.9091 32.1303 48.8182 34.3006C45.8182 31.0451 44.8182 28.1843 45.5455 25.4221C45.6364 25.1261 45.5455 24.7315 45.3636 24.5342C45.1818 24.3369 44.9091 24.2383 44.6364 24.2383C42.8182 24.4356 42.5455 24.8302 41.0909 25.2248C39.4545 25.718 39.2727 27.2964 39.0909 28.3816C38.7273 33.8073 39.4545 21.9693 38.6364 35.0898C37.7273 34.7938 36.3636 34.3006 35.2727 34.2019C35 34.2019 34.6364 34.3006 34.4545 34.5965C34.2727 34.8925 34.1818 35.1884 34.2727 35.4844C35.6364 40.3182 33.7273 43.0804 30 46.9278C26.0909 42.6858 24.7273 39.0358 25.7273 35.4844C25.8182 35.1884 25.7273 34.7938 25.5455 34.5965C25.3636 34.3006 25.0909 34.2019 24.7273 34.2019C23.5455 34.3006 22.2727 34.6952 21.3636 35.0898C21.2727 33.8073 21.1818 32.8208 21.1818 31.8343C21.0909 27.1978 21 25.8167 19.0909 25.2248C17.6364 24.7315 17.3636 24.4356 15.6364 24.2383C15.3636 24.2383 15 24.3369 14.8182 24.6329C14.6364 24.8302 14.5455 25.2248 14.6364 25.5207C15.6364 29.2694 14.2727 31.3411 11.3636 34.3992C8.36364 31.0451 7.36364 28.2829 8.09091 25.5207C8.18182 25.2248 8.09091 24.8302 7.90909 24.6329C7.81818 24.3369 7.54545 24.2383 7.18182 24.2383C5.36364 24.4356 5.09091 24.7315 3.63636 25.2248C1.72727 25.8167 1.63636 26.9018 1.36364 32.9195C1.27273 34.4979 1.18182 36.3722 1 38.8385C1 39.1344 1.09091 39.3317 1.27273 39.6277C1.45455 39.825 1.72727 39.9236 1.90909 39.9236H18C17.9091 41.4034 17.9091 41.502 17.2727 52.2549C17.2727 52.5508 17.3636 52.7481 17.5455 53.0441C17.7273 53.2414 18 53.34 18.1818 53.34H41.8182C42.0909 53.34 42.2727 53.2414 42.4545 53.0441C42.6364 52.8468 42.7273 52.5508 42.7273 52.2549C42 41.0088 42.0909 42.0939 42 39.9236H58C58.3636 39.9236 58.8182 39.825 59 39.529C59.2727 39.0358 59.1818 38.7398 59.1818 38.4439ZM3.18182 33.1168C3.54545 27.3951 3.54545 27.3951 4.18182 27.1978C4.90909 27.0005 5.72727 26.6059 6.09091 26.5072C5.72727 29.664 7.27273 32.9195 10.7273 36.5695C11.0909 36.9641 11.6364 36.9641 12 36.5695C14.9091 33.5114 17.2727 30.8478 16.7273 26.6059C17.0909 26.7045 17.8182 27.0005 18.6364 27.2964C19.2727 27.4937 19.3636 27.691 19.5455 32.0316C19.6364 33.1168 19.6364 34.3992 19.8182 35.879C18.9091 36.4709 18.6364 37.2601 18.4545 38.0493H18.0909V35.4844C18.0909 34.8925 17.7273 34.4979 17.1818 34.4979C16.6364 34.4979 16.2727 34.8925 16.2727 35.4844V38.0493H6.63636V35.4844C6.63636 34.8925 6.27273 34.4979 5.72727 34.4979C5.18182 34.4979 4.81818 34.8925 4.81818 35.4844V38.0493H2.90909C3 35.9776 3.09091 34.3992 3.18182 33.1168ZM38.0909 51.2684V47.9143C38.0909 47.3224 37.7273 46.9278 37.1818 46.9278C36.6364 46.9278 36.2727 47.3224 36.2727 47.9143V51.2684H23.9091V47.9143C23.9091 47.3224 23.5455 46.9278 23 46.9278C22.4545 46.9278 22.0909 47.3224 22.0909 47.9143V51.2684H19.2727C19.7273 43.771 19.9091 40.6142 20.0909 39.0358C20.2727 37.852 20.4545 37.4574 21.0909 37.2601C21.1818 37.2601 22.3636 36.6682 23.9091 36.2736C23.3636 40.3182 25.1818 44.3629 29.5455 48.9008C29.9091 49.2954 30.4545 49.2954 30.8182 48.9008C34.5455 45.0534 37.4545 41.6993 36.5455 36.2736C37.8182 36.5695 39 37.0628 39.1818 37.1614C39.7273 37.4574 40 37.2601 40.2727 38.9371C40.3636 39.7263 40.2727 38.1479 41.0909 51.1697H38.0909V51.2684ZM55.3636 37.9506V35.3857C55.3636 34.7938 55 34.3992 54.4545 34.3992C53.9091 34.3992 53.5455 34.7938 53.5455 35.3857V37.9506H44V35.3857C44 34.7938 43.6364 34.3992 43.0909 34.3992C42.5455 34.3992 42.1818 34.7938 42.1818 35.3857V37.9506H41.8182C41.5455 36.9641 41.0909 36.1749 40.4545 35.7803C40.7273 32.0316 40.8182 30.3546 40.9091 28.5789C41.0909 27.3951 41.1818 27.1978 41.6364 27.0991C42.3636 26.9018 43.0909 26.5072 43.5455 26.4086C43.1818 29.5654 44.7273 32.8208 48.1818 36.4709C48.5455 36.8655 49.0909 36.8655 49.4545 36.4709C52.1818 33.61 54.4545 31.0451 54.2727 27.4937C54.2727 27.1978 54.1818 26.8032 54.1818 26.4086C54.5455 26.5072 55.2727 26.8032 56.0909 27.0991C56.5455 27.1978 56.6364 27.3951 56.8182 28.6775C57.4545 39.0358 57.3636 37.6547 57.3636 37.9506H55.3636Z" fill="white"/>
<path d="M2.45384 12.993L6.81747 14.3741L6.90838 17.2349C6.0902 20.6877 8.18111 25.1269 11.3629 25.1269C14.4538 25.1269 16.6357 20.885 15.8175 17.3336L15.9084 14.3741L17.0902 13.9795V14.966C17.0902 15.5579 17.4538 15.9525 17.9993 15.9525C18.5447 15.9525 18.9084 15.5579 18.9084 14.966V13.3876L19.9993 12.993C20.3629 12.8943 20.6357 12.4997 20.6357 12.1051C20.6357 11.7105 20.4538 11.3159 20.0902 11.1186L11.5447 7.07399C11.272 6.97534 11.0902 6.97534 10.8175 7.07399L2.27202 11.1186C1.90838 11.3159 1.72656 11.7105 1.72656 12.1051C1.90838 12.4997 2.0902 12.8943 2.45384 12.993ZM11.3629 13.4862C12.1811 13.4862 13.5447 13.5849 14.1811 13.9795L14.0902 15.6565C12.5447 15.1633 10.1811 15.1633 8.63565 15.6565L8.54474 13.9795C9.27202 13.5849 10.6357 13.4862 11.3629 13.4862ZM11.3629 23.1539C9.81747 23.1539 8.0902 20.6877 8.63565 17.7282C9.81747 17.1363 12.9993 17.2349 14.0902 17.7282C14.8175 20.3917 12.9993 23.1539 11.3629 23.1539ZM11.272 9.14564L17.1811 11.9078L15.4538 12.4997C14.5447 11.7105 12.5447 11.5132 11.3629 11.5132C10.1811 11.5132 8.18111 11.7105 7.27202 12.4997L5.36293 11.9078L11.272 9.14564Z" fill="white"/>
</svg>
