<svg width="115" height="114" viewBox="0 0 115 114" fill="none" xmlns="http://www.w3.org/2000/svg">
<mask id="mask0_83_1001" style="mask-type:alpha" maskUnits="userSpaceOnUse" x="0" y="0" width="115" height="114">
<ellipse cx="57.8128" cy="57" rx="56.8362" ry="57" fill="#D9D9D9"/>
</mask>
<g mask="url(#mask0_83_1001)">
<rect width="1.99425" height="2" transform="matrix(1 0 0 -1 1.97266 3)" fill="#2EB97E"/>
<rect width="1.99425" height="2" transform="matrix(1 0 0 -1 1.97266 23)" fill="#2EB97E"/>
<rect width="1.99425" height="2" transform="matrix(1 0 0 -1 1.97266 43)" fill="#2EB97E"/>
<rect width="1.99425" height="2" transform="matrix(1 0 0 -1 1.97266 63)" fill="#2EB97E"/>
<rect width="1.99425" height="2" transform="matrix(1 0 0 -1 1.97266 83)" fill="#2EB97E"/>
<rect width="1.99425" height="2" transform="matrix(1 0 0 -1 1.97266 103)" fill="#2EB97E"/>
<rect width="1.99425" height="2" transform="matrix(1 0 0 -1 1.97266 13)" fill="#2EB97E"/>
<rect width="1.99425" height="2" transform="matrix(1 0 0 -1 1.97266 33)" fill="#2EB97E"/>
<rect width="1.99425" height="2" transform="matrix(1 0 0 -1 1.97266 53)" fill="#2EB97E"/>
<rect width="1.99425" height="2" transform="matrix(1 0 0 -1 1.97266 73)" fill="#2EB97E"/>
<rect width="1.99425" height="2" transform="matrix(1 0 0 -1 1.97266 93)" fill="#2EB97E"/>
<rect width="1.99425" height="2" transform="matrix(1 0 0 -1 1.97266 113)" fill="#2EB97E"/>
<rect width="1.99425" height="2" transform="matrix(1 0 0 -1 11.9434 3)" fill="#2EB97E"/>
<rect width="1.99425" height="2" transform="matrix(1 0 0 -1 11.9434 23)" fill="#2EB97E"/>
<rect width="1.99425" height="2" transform="matrix(1 0 0 -1 11.9434 43)" fill="#2EB97E"/>
<rect width="1.99425" height="2" transform="matrix(1 0 0 -1 11.9434 63)" fill="#2EB97E"/>
<rect width="1.99425" height="2" transform="matrix(1 0 0 -1 11.9434 83)" fill="#2EB97E"/>
<rect width="1.99425" height="2" transform="matrix(1 0 0 -1 11.9434 103)" fill="#2EB97E"/>
<rect width="1.99425" height="2" transform="matrix(1 0 0 -1 11.9434 13)" fill="#2EB97E"/>
<rect width="1.99425" height="2" transform="matrix(1 0 0 -1 11.9434 33)" fill="#2EB97E"/>
<rect width="1.99425" height="2" transform="matrix(1 0 0 -1 11.9434 53)" fill="#2EB97E"/>
<rect width="1.99425" height="2" transform="matrix(1 0 0 -1 11.9434 73)" fill="#2EB97E"/>
<rect width="1.99425" height="2" transform="matrix(1 0 0 -1 11.9434 93)" fill="#2EB97E"/>
<rect width="1.99425" height="2" transform="matrix(1 0 0 -1 11.9434 113)" fill="#2EB97E"/>
<rect width="1.99425" height="2" transform="matrix(1 0 0 -1 21.916 3)" fill="#2EB97E"/>
<rect width="1.99425" height="2" transform="matrix(1 0 0 -1 21.916 23)" fill="#2EB97E"/>
<rect width="1.99425" height="2" transform="matrix(1 0 0 -1 21.916 43)" fill="#2EB97E"/>
<rect width="1.99425" height="2" transform="matrix(1 0 0 -1 21.916 63)" fill="#2EB97E"/>
<rect width="1.99425" height="2" transform="matrix(1 0 0 -1 21.916 83)" fill="#2EB97E"/>
<rect width="1.99425" height="2" transform="matrix(1 0 0 -1 21.916 103)" fill="#2EB97E"/>
<rect width="1.99425" height="2" transform="matrix(1 0 0 -1 21.916 13)" fill="#2EB97E"/>
<rect width="1.99425" height="2" transform="matrix(1 0 0 -1 21.916 33)" fill="#2EB97E"/>
<rect width="1.99425" height="2" transform="matrix(1 0 0 -1 21.916 53)" fill="#2EB97E"/>
<rect width="1.99425" height="2" transform="matrix(1 0 0 -1 21.916 73)" fill="#2EB97E"/>
<rect width="1.99425" height="2" transform="matrix(1 0 0 -1 21.916 93)" fill="#2EB97E"/>
<rect width="1.99425" height="2" transform="matrix(1 0 0 -1 21.916 113)" fill="#2EB97E"/>
<rect width="1.99425" height="2" transform="matrix(1 0 0 -1 31.8867 3)" fill="#2EB97E"/>
<rect width="1.99425" height="2" transform="matrix(1 0 0 -1 31.8867 23)" fill="#2EB97E"/>
<rect width="1.99425" height="2" transform="matrix(1 0 0 -1 31.8867 43)" fill="#2EB97E"/>
<rect width="1.99425" height="2" transform="matrix(1 0 0 -1 31.8867 63)" fill="#2EB97E"/>
<rect width="1.99425" height="2" transform="matrix(1 0 0 -1 31.8867 83)" fill="#2EB97E"/>
<rect width="1.99425" height="2" transform="matrix(1 0 0 -1 31.8867 103)" fill="#2EB97E"/>
<rect width="1.99425" height="2" transform="matrix(1 0 0 -1 31.8867 13)" fill="#2EB97E"/>
<rect width="1.99425" height="2" transform="matrix(1 0 0 -1 31.8867 33)" fill="#2EB97E"/>
<rect width="1.99425" height="2" transform="matrix(1 0 0 -1 31.8867 53)" fill="#2EB97E"/>
<rect width="1.99425" height="2" transform="matrix(1 0 0 -1 31.8867 73)" fill="#2EB97E"/>
<rect width="1.99425" height="2" transform="matrix(1 0 0 -1 31.8867 93)" fill="#2EB97E"/>
<rect width="1.99425" height="2" transform="matrix(1 0 0 -1 31.8867 113)" fill="#2EB97E"/>
<rect width="1.99425" height="2" transform="matrix(1 0 0 -1 41.8574 3)" fill="#2EB97E"/>
<rect width="1.99425" height="2" transform="matrix(1 0 0 -1 41.8574 23)" fill="#2EB97E"/>
<rect width="1.99425" height="2" transform="matrix(1 0 0 -1 41.8574 43)" fill="#2EB97E"/>
<rect width="1.99425" height="2" transform="matrix(1 0 0 -1 41.8574 63)" fill="#2EB97E"/>
<rect width="1.99425" height="2" transform="matrix(1 0 0 -1 41.8574 83)" fill="#2EB97E"/>
<rect width="1.99425" height="2" transform="matrix(1 0 0 -1 41.8574 103)" fill="#2EB97E"/>
<rect width="1.99425" height="2" transform="matrix(1 0 0 -1 41.8574 13)" fill="#2EB97E"/>
<rect width="1.99425" height="2" transform="matrix(1 0 0 -1 41.8574 33)" fill="#2EB97E"/>
<rect width="1.99425" height="2" transform="matrix(1 0 0 -1 41.8574 53)" fill="#2EB97E"/>
<rect width="1.99425" height="2" transform="matrix(1 0 0 -1 41.8574 73)" fill="#2EB97E"/>
<rect width="1.99425" height="2" transform="matrix(1 0 0 -1 41.8574 93)" fill="#2EB97E"/>
<rect width="1.99425" height="2" transform="matrix(1 0 0 -1 41.8574 113)" fill="#2EB97E"/>
<rect width="1.99425" height="2" transform="matrix(1 0 0 -1 51.8281 3)" fill="#2EB97E"/>
<rect width="1.99425" height="2" transform="matrix(1 0 0 -1 51.8281 23)" fill="#2EB97E"/>
<rect width="1.99425" height="2" transform="matrix(1 0 0 -1 51.8281 43)" fill="#2EB97E"/>
<rect width="1.99425" height="2" transform="matrix(1 0 0 -1 51.8281 63)" fill="#2EB97E"/>
<rect width="1.99425" height="2" transform="matrix(1 0 0 -1 51.8281 83)" fill="#2EB97E"/>
<rect width="1.99425" height="2" transform="matrix(1 0 0 -1 51.8281 103)" fill="#2EB97E"/>
<rect width="1.99425" height="2" transform="matrix(1 0 0 -1 51.8281 13)" fill="#2EB97E"/>
<rect width="1.99425" height="2" transform="matrix(1 0 0 -1 51.8281 33)" fill="#2EB97E"/>
<rect width="1.99425" height="2" transform="matrix(1 0 0 -1 51.8281 53)" fill="#2EB97E"/>
<rect width="1.99425" height="2" transform="matrix(1 0 0 -1 51.8281 73)" fill="#2EB97E"/>
<rect width="1.99425" height="2" transform="matrix(1 0 0 -1 51.8281 93)" fill="#2EB97E"/>
<rect width="1.99425" height="2" transform="matrix(1 0 0 -1 51.8281 113)" fill="#2EB97E"/>
<rect width="1.99425" height="2" transform="matrix(1 0 0 -1 61.8027 3)" fill="#2EB97E"/>
<rect width="1.99425" height="2" transform="matrix(1 0 0 -1 61.8027 23)" fill="#2EB97E"/>
<rect width="1.99425" height="2" transform="matrix(1 0 0 -1 61.8027 43)" fill="#2EB97E"/>
<rect width="1.99425" height="2" transform="matrix(1 0 0 -1 61.8027 63)" fill="#2EB97E"/>
<rect width="1.99425" height="2" transform="matrix(1 0 0 -1 61.8027 83)" fill="#2EB97E"/>
<rect width="1.99425" height="2" transform="matrix(1 0 0 -1 61.8027 103)" fill="#2EB97E"/>
<rect width="1.99425" height="2" transform="matrix(1 0 0 -1 61.8027 13)" fill="#2EB97E"/>
<rect width="1.99425" height="2" transform="matrix(1 0 0 -1 61.8027 33)" fill="#2EB97E"/>
<rect width="1.99425" height="2" transform="matrix(1 0 0 -1 61.8027 53)" fill="#2EB97E"/>
<rect width="1.99425" height="2" transform="matrix(1 0 0 -1 61.8027 73)" fill="#2EB97E"/>
<rect width="1.99425" height="2" transform="matrix(1 0 0 -1 61.8027 93)" fill="#2EB97E"/>
<rect width="1.99425" height="2" transform="matrix(1 0 0 -1 61.8027 113)" fill="#2EB97E"/>
<rect width="1.99425" height="2" transform="matrix(1 0 0 -1 71.7734 3)" fill="#2EB97E"/>
<rect width="1.99425" height="2" transform="matrix(1 0 0 -1 71.7734 23)" fill="#2EB97E"/>
<rect width="1.99425" height="2" transform="matrix(1 0 0 -1 71.7734 43)" fill="#2EB97E"/>
<rect width="1.99425" height="2" transform="matrix(1 0 0 -1 71.7734 63)" fill="#2EB97E"/>
<rect width="1.99425" height="2" transform="matrix(1 0 0 -1 71.7734 83)" fill="#2EB97E"/>
<rect width="1.99425" height="2" transform="matrix(1 0 0 -1 71.7734 103)" fill="#2EB97E"/>
<rect width="1.99425" height="2" transform="matrix(1 0 0 -1 71.7734 13)" fill="#2EB97E"/>
<rect width="1.99425" height="2" transform="matrix(1 0 0 -1 71.7734 33)" fill="#2EB97E"/>
<rect width="1.99425" height="2" transform="matrix(1 0 0 -1 71.7734 53)" fill="#2EB97E"/>
<rect width="1.99425" height="2" transform="matrix(1 0 0 -1 71.7734 73)" fill="#2EB97E"/>
<rect width="1.99425" height="2" transform="matrix(1 0 0 -1 71.7734 93)" fill="#2EB97E"/>
<rect width="1.99425" height="2" transform="matrix(1 0 0 -1 71.7734 113)" fill="#2EB97E"/>
<rect width="1.99425" height="2" transform="matrix(1 0 0 -1 81.7461 3)" fill="#2EB97E"/>
<rect width="1.99425" height="2" transform="matrix(1 0 0 -1 81.7461 23)" fill="#2EB97E"/>
<rect width="1.99425" height="2" transform="matrix(1 0 0 -1 81.7461 43)" fill="#2EB97E"/>
<rect width="1.99425" height="2" transform="matrix(1 0 0 -1 81.7461 63)" fill="#2EB97E"/>
<rect width="1.99425" height="2" transform="matrix(1 0 0 -1 81.7461 83)" fill="#2EB97E"/>
<rect width="1.99425" height="2" transform="matrix(1 0 0 -1 81.7461 103)" fill="#2EB97E"/>
<rect width="1.99425" height="2" transform="matrix(1 0 0 -1 81.7461 13)" fill="#2EB97E"/>
<rect width="1.99425" height="2" transform="matrix(1 0 0 -1 81.7461 33)" fill="#2EB97E"/>
<rect width="1.99425" height="2" transform="matrix(1 0 0 -1 81.7461 53)" fill="#2EB97E"/>
<rect width="1.99425" height="2" transform="matrix(1 0 0 -1 81.7461 73)" fill="#2EB97E"/>
<rect width="1.99425" height="2" transform="matrix(1 0 0 -1 81.7461 93)" fill="#2EB97E"/>
<rect width="1.99425" height="2" transform="matrix(1 0 0 -1 81.7461 113)" fill="#2EB97E"/>
<rect width="1.99425" height="2" transform="matrix(1 0 0 -1 91.7168 3)" fill="#2EB97E"/>
<rect width="1.99425" height="2" transform="matrix(1 0 0 -1 91.7168 23)" fill="#2EB97E"/>
<rect width="1.99425" height="2" transform="matrix(1 0 0 -1 91.7168 43)" fill="#2EB97E"/>
<rect width="1.99425" height="2" transform="matrix(1 0 0 -1 91.7168 63)" fill="#2EB97E"/>
<rect width="1.99425" height="2" transform="matrix(1 0 0 -1 91.7168 83)" fill="#2EB97E"/>
<rect width="1.99425" height="2" transform="matrix(1 0 0 -1 91.7168 103)" fill="#2EB97E"/>
<rect width="1.99425" height="2" transform="matrix(1 0 0 -1 91.7168 13)" fill="#2EB97E"/>
<rect width="1.99425" height="2" transform="matrix(1 0 0 -1 91.7168 33)" fill="#2EB97E"/>
<rect width="1.99425" height="2" transform="matrix(1 0 0 -1 91.7168 53)" fill="#2EB97E"/>
<rect width="1.99425" height="2" transform="matrix(1 0 0 -1 91.7168 73)" fill="#2EB97E"/>
<rect width="1.99425" height="2" transform="matrix(1 0 0 -1 91.7168 93)" fill="#2EB97E"/>
<rect width="1.99425" height="2" transform="matrix(1 0 0 -1 91.7168 113)" fill="#2EB97E"/>
<rect width="1.99425" height="2" transform="matrix(1 0 0 -1 101.688 3)" fill="#2EB97E"/>
<rect width="1.99425" height="2" transform="matrix(1 0 0 -1 101.688 23)" fill="#2EB97E"/>
<rect width="1.99425" height="2" transform="matrix(1 0 0 -1 101.688 43)" fill="#2EB97E"/>
<rect width="1.99425" height="2" transform="matrix(1 0 0 -1 101.688 63)" fill="#2EB97E"/>
<rect width="1.99425" height="2" transform="matrix(1 0 0 -1 101.688 83)" fill="#2EB97E"/>
<rect width="1.99425" height="2" transform="matrix(1 0 0 -1 101.688 103)" fill="#2EB97E"/>
<rect width="1.99425" height="2" transform="matrix(1 0 0 -1 101.688 13)" fill="#2EB97E"/>
<rect width="1.99425" height="2" transform="matrix(1 0 0 -1 101.688 33)" fill="#2EB97E"/>
<rect width="1.99425" height="2" transform="matrix(1 0 0 -1 101.688 53)" fill="#2EB97E"/>
<rect width="1.99425" height="2" transform="matrix(1 0 0 -1 101.688 73)" fill="#2EB97E"/>
<rect width="1.99425" height="2" transform="matrix(1 0 0 -1 101.688 93)" fill="#2EB97E"/>
<rect width="1.99425" height="2" transform="matrix(1 0 0 -1 101.688 113)" fill="#2EB97E"/>
<rect width="1.99425" height="2" transform="matrix(1 0 0 -1 111.658 3)" fill="#2EB97E"/>
<rect width="1.99425" height="2" transform="matrix(1 0 0 -1 111.658 23)" fill="#2EB97E"/>
<rect width="1.99425" height="2" transform="matrix(1 0 0 -1 111.658 43)" fill="#2EB97E"/>
<rect width="1.99425" height="2" transform="matrix(1 0 0 -1 111.658 63)" fill="#2EB97E"/>
<rect width="1.99425" height="2" transform="matrix(1 0 0 -1 111.658 83)" fill="#2EB97E"/>
<rect width="1.99425" height="2" transform="matrix(1 0 0 -1 111.658 103)" fill="#2EB97E"/>
<rect width="1.99425" height="2" transform="matrix(1 0 0 -1 111.658 13)" fill="#2EB97E"/>
<rect width="1.99425" height="2" transform="matrix(1 0 0 -1 111.658 33)" fill="#2EB97E"/>
<rect width="1.99425" height="2" transform="matrix(1 0 0 -1 111.658 53)" fill="#2EB97E"/>
<rect width="1.99425" height="2" transform="matrix(1 0 0 -1 111.658 73)" fill="#2EB97E"/>
<rect width="1.99425" height="2" transform="matrix(1 0 0 -1 111.658 93)" fill="#2EB97E"/>
<rect width="1.99425" height="2" transform="matrix(1 0 0 -1 111.658 113)" fill="#2EB97E"/>
</g>
</svg>
