<svg width="15" height="15" viewBox="0 0 15 15" fill="none" xmlns="http://www.w3.org/2000/svg">
<g clip-path="url(#clip0_83_920)">
<path d="M13.5937 1.875H1.40626C0.6308 1.875 0 2.5058 0 3.28126V11.7188C0 12.4942 0.6308 13.125 1.40626 13.125H13.5937C14.3692 13.125 15 12.4942 15 11.7188V3.28126C15 2.5058 14.3692 1.875 13.5937 1.875ZM13.5937 2.8125C13.6574 2.8125 13.718 2.82571 13.7734 2.84879L7.5 8.28599L1.22656 2.84879C1.28346 2.82493 1.34453 2.8126 1.40623 2.8125H13.5937ZM13.5937 12.1875H1.40626C1.14763 12.1875 0.937496 11.9774 0.937496 11.7187V3.83926L7.19283 9.26056C7.2812 9.33699 7.3906 9.375 7.5 9.375C7.6094 9.375 7.7188 9.33702 7.80717 9.26056L14.0625 3.83926V11.7188C14.0625 11.9774 13.8524 12.1875 13.5937 12.1875Z" fill="#2EB97E"/>
</g>
<defs>
<clipPath id="clip0_83_920">
<rect width="15" height="15" fill="white"/>
</clipPath>
</defs>
</svg>
