<svg width="17" height="17" viewBox="0 0 17 17" fill="none" xmlns="http://www.w3.org/2000/svg">
<path d="M5.66406 4.07227C5.37365 4.07227 5.13281 3.83143 5.13281 3.54102V1.41602C5.13281 1.1256 5.37365 0.884766 5.66406 0.884766C5.95448 0.884766 6.19531 1.1256 6.19531 1.41602V3.54102C6.19531 3.83143 5.95448 4.07227 5.66406 4.07227ZM11.3307 4.07227C11.0403 4.07227 10.7995 3.83143 10.7995 3.54102V1.41602C10.7995 1.1256 11.0403 0.884766 11.3307 0.884766C11.6211 0.884766 11.862 1.1256 11.862 1.41602V3.54102C11.862 3.83143 11.6211 4.07227 11.3307 4.07227ZM6.01823 10.2702C5.92615 10.2702 5.83406 10.2489 5.74906 10.2135C5.65698 10.1781 5.58615 10.1285 5.51531 10.0648C5.38781 9.93018 5.3099 9.7531 5.3099 9.56185C5.3099 9.46977 5.33115 9.37768 5.36656 9.29268C5.40198 9.20768 5.45156 9.12977 5.51531 9.05893C5.58615 8.99518 5.65698 8.9456 5.74906 8.91018C6.00406 8.80393 6.32281 8.8606 6.52115 9.05893C6.64865 9.19352 6.72656 9.37768 6.72656 9.56185C6.72656 9.60435 6.71948 9.65393 6.7124 9.70352C6.70531 9.74602 6.69115 9.78852 6.6699 9.83102C6.65573 9.87352 6.63448 9.91602 6.60615 9.95852C6.5849 9.99393 6.54948 10.0293 6.52115 10.0648C6.38656 10.1923 6.2024 10.2702 6.01823 10.2702ZM8.4974 10.2702C8.40531 10.2702 8.31323 10.2489 8.22823 10.2135C8.13615 10.1781 8.06531 10.1285 7.99448 10.0648C7.86698 9.93018 7.78906 9.7531 7.78906 9.56185C7.78906 9.46977 7.81031 9.37768 7.84573 9.29268C7.88115 9.20768 7.93073 9.12977 7.99448 9.05893C8.06531 8.99518 8.13615 8.9456 8.22823 8.91018C8.48323 8.79685 8.80198 8.8606 9.00031 9.05893C9.12781 9.19352 9.20573 9.37768 9.20573 9.56185C9.20573 9.60435 9.19865 9.65393 9.19156 9.70352C9.18448 9.74602 9.17031 9.78852 9.14906 9.83102C9.1349 9.87352 9.11365 9.91602 9.08531 9.95852C9.06406 9.99393 9.02865 10.0293 9.00031 10.0648C8.86573 10.1923 8.68156 10.2702 8.4974 10.2702ZM10.9766 10.2702C10.8845 10.2702 10.7924 10.2489 10.7074 10.2135C10.6153 10.1781 10.5445 10.1285 10.4736 10.0648L10.3886 9.95852C10.3618 9.91904 10.3404 9.87616 10.3249 9.83102C10.3044 9.79088 10.2901 9.7479 10.2824 9.70352C10.2753 9.65393 10.2682 9.60435 10.2682 9.56185C10.2682 9.37768 10.3461 9.19352 10.4736 9.05893C10.5445 8.99518 10.6153 8.9456 10.7074 8.91018C10.9695 8.79685 11.2811 8.8606 11.4795 9.05893C11.607 9.19352 11.6849 9.37768 11.6849 9.56185C11.6849 9.60435 11.6778 9.65393 11.6707 9.70352C11.6636 9.74602 11.6495 9.78852 11.6282 9.83102C11.6141 9.87352 11.5928 9.91602 11.5645 9.95852C11.5432 9.99393 11.5078 10.0293 11.4795 10.0648C11.3449 10.1923 11.1607 10.2702 10.9766 10.2702ZM6.01823 12.7493C5.92615 12.7493 5.83406 12.7281 5.74906 12.6927C5.66406 12.6573 5.58615 12.6077 5.51531 12.5439C5.38781 12.4093 5.3099 12.2252 5.3099 12.041C5.3099 11.9489 5.33115 11.8569 5.36656 11.7719C5.40198 11.6798 5.45156 11.6019 5.51531 11.5381C5.7774 11.276 6.25906 11.276 6.52115 11.5381C6.64865 11.6727 6.72656 11.8568 6.72656 12.041C6.72656 12.2252 6.64865 12.4093 6.52115 12.5439C6.38656 12.6714 6.2024 12.7493 6.01823 12.7493ZM8.4974 12.7493C8.31323 12.7493 8.12906 12.6714 7.99448 12.5439C7.86698 12.4093 7.78906 12.2252 7.78906 12.041C7.78906 11.9489 7.81031 11.8569 7.84573 11.7719C7.88115 11.6798 7.93073 11.6019 7.99448 11.5381C8.25656 11.276 8.73823 11.276 9.00031 11.5381C9.06406 11.6019 9.11365 11.6798 9.14906 11.7719C9.18448 11.8569 9.20573 11.9489 9.20573 12.041C9.20573 12.2252 9.12781 12.4093 9.00031 12.5439C8.86573 12.6714 8.68156 12.7493 8.4974 12.7493ZM10.9766 12.7493C10.7924 12.7493 10.6082 12.6714 10.4736 12.5439C10.4081 12.4774 10.3574 12.3977 10.3249 12.3102C10.2895 12.2252 10.2682 12.1331 10.2682 12.041C10.2682 11.9489 10.2895 11.8569 10.3249 11.7719C10.3603 11.6798 10.4099 11.6019 10.4736 11.5381C10.6366 11.3752 10.8845 11.2973 11.1111 11.3468C11.1607 11.3539 11.2032 11.3681 11.2457 11.3893C11.2882 11.4035 11.3307 11.4248 11.3732 11.4531C11.4086 11.4743 11.4441 11.5098 11.4795 11.5381C11.607 11.6727 11.6849 11.8568 11.6849 12.041C11.6849 12.2252 11.607 12.4093 11.4795 12.5439C11.3449 12.6714 11.1607 12.7493 10.9766 12.7493ZM14.5182 6.96935H2.47656C2.18615 6.96935 1.94531 6.72852 1.94531 6.4381C1.94531 6.14768 2.18615 5.90685 2.47656 5.90685H14.5182C14.8086 5.90685 15.0495 6.14768 15.0495 6.4381C15.0495 6.72852 14.8086 6.96935 14.5182 6.96935Z" fill="white"/>
<path d="M11.3333 16.1139H5.66667C3.08125 16.1139 1.59375 14.6264 1.59375 12.041V6.02018C1.59375 3.43477 3.08125 1.94727 5.66667 1.94727H11.3333C13.9187 1.94727 15.4062 3.43477 15.4062 6.02018V12.041C15.4062 14.6264 13.9187 16.1139 11.3333 16.1139ZM5.66667 3.00977C3.64083 3.00977 2.65625 3.99435 2.65625 6.02018V12.041C2.65625 14.0668 3.64083 15.0514 5.66667 15.0514H11.3333C13.3592 15.0514 14.3438 14.0668 14.3438 12.041V6.02018C14.3438 3.99435 13.3592 3.00977 11.3333 3.00977H5.66667Z" fill="white"/>
</svg>
