<svg width="20" height="20" viewBox="0 0 20 20" fill="none" xmlns="http://www.w3.org/2000/svg">
<path d="M10.0003 15.8358C9.83477 15.8368 9.67271 15.7884 9.53478 15.6969C9.39685 15.6054 9.28929 15.4749 9.22581 15.322C9.16234 15.1692 9.14583 15.0009 9.17839 14.8386C9.21095 14.6763 9.2911 14.5274 9.40862 14.4108L13.8253 10.0025L9.40862 5.59413C9.2721 5.43471 9.20076 5.22965 9.20886 5.01992C9.21696 4.81019 9.30391 4.61124 9.45232 4.46283C9.60073 4.31442 9.79968 4.22747 10.0094 4.21937C10.2191 4.21127 10.4242 4.28261 10.5836 4.41913L15.5836 9.41913C15.7388 9.57527 15.826 9.78648 15.826 10.0066C15.826 10.2268 15.7388 10.438 15.5836 10.5941L10.5836 15.5941C10.4284 15.7481 10.2189 15.8349 10.0003 15.8358Z" fill="#181818"/>
<path d="M5.00029 15.8341C4.83477 15.8351 4.67271 15.7868 4.53478 15.6952C4.39685 15.6037 4.28929 15.4732 4.22581 15.3204C4.16234 15.1675 4.14583 14.9992 4.17839 14.8369C4.21095 14.6746 4.2911 14.5257 4.40862 14.4091L8.82529 10.0008L4.40862 5.59247C4.2517 5.43555 4.16355 5.22272 4.16355 5.00081C4.16355 4.77889 4.2517 4.56606 4.40862 4.40914C4.56554 4.25222 4.77837 4.16406 5.00029 4.16406C5.22221 4.16406 5.43504 4.25222 5.59196 4.40914L10.592 9.40914C10.7472 9.56527 10.8343 9.77648 10.8343 9.99664C10.8343 10.2168 10.7472 10.428 10.592 10.5841L5.59196 15.5841C5.51478 15.6629 5.42274 15.7255 5.32118 15.7684C5.21961 15.8113 5.11055 15.8337 5.00029 15.8341Z" fill="#181818"/>
</svg>
