<svg width="12" height="12" viewBox="0 0 12 12" fill="none" xmlns="http://www.w3.org/2000/svg">
<path d="M0.166155 5.99834C0.165193 5.83282 0.213544 5.67076 0.305045 5.53283C0.396545 5.39489 0.52705 5.28733 0.67992 5.22386C0.832789 5.16039 1.0011 5.14388 1.16339 5.17644C1.32568 5.20899 1.4746 5.28915 1.59115 5.40667L5.99949 9.82334L10.4078 5.40667C10.5672 5.27015 10.7723 5.19881 10.982 5.20691C11.1918 5.21501 11.3907 5.30195 11.5391 5.45037C11.6875 5.59878 11.7745 5.79773 11.7826 6.00746C11.7907 6.21719 11.7193 6.42225 11.5828 6.58167L6.58282 11.5817C6.42669 11.7369 6.21548 11.824 5.99532 11.824C5.77517 11.824 5.56396 11.7369 5.40782 11.5817L0.407823 6.58167C0.253869 6.42645 0.167075 6.21695 0.166155 5.99834Z" fill="#2EB97E"/>
<path d="M0.16586 0.998336C0.164898 0.832816 0.213249 0.670758 0.30475 0.532825C0.396251 0.394892 0.526755 0.287333 0.679626 0.22386C0.832495 0.160388 1.0008 0.143878 1.16309 0.176436C1.32538 0.208995 1.4743 0.289145 1.59086 0.406669L5.99919 4.82334L10.4075 0.406669C10.5644 0.24975 10.7773 0.161593 10.9992 0.161593C11.2211 0.161593 11.4339 0.24975 11.5909 0.406669C11.7478 0.563589 11.8359 0.776418 11.8359 0.998336C11.8359 1.22025 11.7478 1.43308 11.5909 1.59L6.59086 6.59C6.43473 6.74521 6.22352 6.83233 6.00336 6.83233C5.78321 6.83233 5.572 6.74521 5.41586 6.59L0.415859 1.59C0.337119 1.51282 0.274479 1.42079 0.231565 1.31922C0.188651 1.21766 0.166318 1.10859 0.16586 0.998336Z" fill="#2EB97E"/>
</svg>
