<svg width="124" height="216" viewBox="0 0 124 216" fill="none" xmlns="http://www.w3.org/2000/svg">
<path fill-rule="evenodd" clip-rule="evenodd" d="M16.927 1.89705C39.3239 5.83797 49.2441 32.1859 67.7125 45.4979C84.8455 57.8473 113.183 57.4339 121.163 77.0299C129.19 96.7433 111.041 117.066 105.192 137.537C100.261 154.794 102.86 175.973 89.4851 187.896C76.2093 199.731 55.2745 192.624 38.142 197.309C21.488 201.863 7.7834 215.936 -9.44988 214.951C-28.3388 213.87 -49.9809 207.801 -60.0006 191.695C-70.0533 175.537 -59.3258 154.76 -58.742 135.719C-58.2748 120.486 -58.5569 106.112 -56.9116 90.961C-54.4731 68.5059 -61.153 42.7202 -46.7572 25.356C-31.9956 7.55058 -5.80665 -2.10311 16.927 1.89705Z" stroke="#2EB97E"/>
<path fill-rule="evenodd" clip-rule="evenodd" d="M17.923 12.9138C38.0041 16.4478 46.8986 40.075 63.4574 52.0124C78.819 63.0866 104.227 62.7159 111.381 80.2885C118.579 97.9662 102.306 116.19 97.0614 134.547C92.6403 150.023 94.9706 169.014 82.9788 179.706C71.0757 190.319 52.3055 183.946 36.9444 188.147C22.0124 192.231 9.72477 204.851 -5.72666 203.968C-22.6625 202.999 -42.067 197.556 -51.0506 183.114C-60.0639 168.624 -50.4456 149.992 -49.9221 132.918C-49.5033 119.257 -49.7562 106.368 -48.281 92.781C-46.0947 72.6446 -52.0838 49.5215 -39.1765 33.9504C-25.9412 17.9835 -2.46012 9.32669 17.923 12.9138Z" stroke="#2EB97E"/>
<path fill-rule="evenodd" clip-rule="evenodd" d="M18.9564 21.5943C37.1938 24.8059 45.2716 46.2777 60.3101 57.126C74.2612 67.19 97.3359 66.8531 103.834 82.8225C110.37 98.8876 95.5915 115.449 90.8287 132.132C86.8135 146.195 88.9298 163.454 78.0391 173.171C67.2289 182.815 50.1821 177.024 36.2314 180.842C22.6703 184.553 11.511 196.022 -2.52178 195.219C-17.9027 194.338 -35.5255 189.392 -43.6842 176.267C-51.87 163.099 -43.1348 146.167 -42.6594 130.65C-42.279 118.236 -42.5087 106.522 -41.169 94.1754C-39.1834 75.876 -44.6226 54.8624 -32.9004 40.7118C-20.8803 26.2016 0.444835 18.3345 18.9564 21.5943Z" stroke="#2EB97E"/>
<path fill-rule="evenodd" clip-rule="evenodd" d="M20.3895 34.28C36.0616 37.0204 43.0032 55.3419 55.9264 64.5986C67.9151 73.186 87.7442 72.8985 93.328 86.5249C98.9451 100.233 86.2452 114.365 82.1523 128.599C78.7018 140.6 80.5205 155.326 71.1616 163.617C61.872 171.847 47.223 166.905 35.2346 170.163C23.581 173.33 13.9913 183.116 1.93241 182.43C-11.285 181.679 -26.429 177.459 -33.4402 166.259C-40.4745 155.023 -32.968 140.576 -32.5595 127.336C-32.2326 116.743 -32.43 106.748 -31.2787 96.2121C-29.5724 80.5976 -34.2465 62.6671 -24.1732 50.5926C-13.8438 38.2113 4.48175 31.4985 20.3895 34.28Z" stroke="#2EB97E"/>
<path fill-rule="evenodd" clip-rule="evenodd" d="M21.9564 47.6359C34.8228 49.8803 40.5216 64.8856 51.1312 72.4669C60.9736 79.5 77.2527 79.2646 81.8369 90.4247C86.4484 101.652 76.0221 113.226 72.6619 124.884C69.8292 134.712 71.3223 146.773 63.6389 153.564C56.0124 160.304 43.986 156.256 34.1438 158.924C24.5766 161.518 16.7037 169.533 6.8037 168.972C-4.04742 168.356 -16.4802 164.9 -22.2362 155.728C-28.0112 146.525 -21.8486 134.692 -21.5132 123.849C-21.2448 115.173 -21.4068 106.987 -20.4617 98.3586C-19.0608 85.5702 -22.8982 70.885 -14.6283 60.996C-6.14814 50.8556 8.89663 45.3578 21.9564 47.6359Z" stroke="#2EB97E"/>
</svg>
