<svg width="15" height="15" viewBox="0 0 15 15" fill="none" xmlns="http://www.w3.org/2000/svg">
<g clip-path="url(#clip0_83_926)">
<path d="M7.50005 0C4.44464 0 1.95898 2.48566 1.95898 5.54107C1.95898 6.54694 2.41009 7.62875 2.429 7.67438C2.57469 8.02021 2.86218 8.55737 3.06948 8.87223L6.8687 14.6287C7.02417 14.8647 7.25429 15 7.50005 15C7.74582 15 7.97593 14.8647 8.13141 14.6291L11.931 8.87223C12.1386 8.55737 12.4257 8.02021 12.5714 7.67438C12.5903 7.62907 13.0411 6.54726 13.0411 5.54107C13.0411 2.48566 10.5555 0 7.50005 0ZM11.9704 7.42145C11.8403 7.73142 11.5727 8.23109 11.3866 8.51336L7.58708 14.2702C7.51211 14.384 7.48832 14.384 7.41335 14.2702L3.61381 8.51336C3.42769 8.23109 3.16009 7.73109 3.03004 7.42112C3.0245 7.40776 2.61087 6.41199 2.61087 5.54107C2.61087 2.84518 4.80416 0.65189 7.50005 0.65189C10.1959 0.65189 12.3892 2.84518 12.3892 5.54107C12.3892 6.4133 11.9746 7.41167 11.9704 7.42145Z" fill="#2EB97E"/>
<path d="M7.49991 2.60938C5.88225 2.60938 4.56641 3.92554 4.56641 5.54288C4.56641 7.16022 5.88225 8.47639 7.49991 8.47639C9.11758 8.47639 10.4334 7.16022 10.4334 5.54288C10.4334 3.92554 9.11758 2.60938 7.49991 2.60938ZM7.49991 7.8245C6.24209 7.8245 5.2183 6.80103 5.2183 5.54288C5.2183 4.28473 6.24209 3.26127 7.49991 3.26127C8.75774 3.26127 9.78153 4.28473 9.78153 5.54288C9.78153 6.80103 8.75774 7.8245 7.49991 7.8245Z" fill="#2EB97E"/>
</g>
<defs>
<clipPath id="clip0_83_926">
<rect width="15" height="15" fill="white"/>
</clipPath>
</defs>
</svg>
