<svg width="170" height="50" viewBox="0 0 170 50" fill="none" xmlns="http://www.w3.org/2000/svg">
<g clip-path="url(#clip0_83_897)">
<path d="M156.141 39.24V10H158.623V28.955L165.576 21.832H168.823L160.884 30.026L169.231 39.24H166.052L158.623 30.978V39.24H156.141Z" fill="#181818"/>
<path d="M143.631 39.7851C141.806 39.7851 140.174 39.3828 138.735 38.5781C137.307 37.7734 136.185 36.6798 135.369 35.2971C134.553 33.9031 134.145 32.3391 134.145 30.6051C134.145 29.3018 134.377 28.0891 134.842 26.9671C135.318 25.8338 135.975 24.8421 136.814 23.9921C137.652 23.1421 138.627 22.4791 139.738 22.0031C140.848 21.5271 142.033 21.2891 143.291 21.2891C145.013 21.2891 146.543 21.6688 147.881 22.4281C149.229 23.1761 150.295 24.2131 151.077 25.5391C151.87 26.8651 152.289 28.3951 152.335 30.1291C152.335 30.2651 152.329 30.3784 152.318 30.4691C152.318 30.5484 152.306 30.6504 152.284 30.7751H136.61C136.61 32.1351 136.916 33.3364 137.528 34.3791C138.14 35.4218 138.978 36.2434 140.044 36.8441C141.12 37.4334 142.35 37.7281 143.733 37.7281C145.047 37.7281 146.226 37.4561 147.269 36.9121C148.323 36.3568 149.201 35.5634 149.904 34.5321L151.74 35.5181C150.912 36.8668 149.785 37.9151 148.357 38.6631C146.94 39.4111 145.365 39.7851 143.631 39.7851ZM136.746 28.9051H149.853C149.705 27.8171 149.326 26.8594 148.714 26.0321C148.102 25.1934 147.325 24.5361 146.385 24.0601C145.455 23.5841 144.435 23.3461 143.325 23.3461C142.18 23.3461 141.137 23.5841 140.197 24.0601C139.256 24.5248 138.48 25.1764 137.868 26.0151C137.267 26.8424 136.893 27.8058 136.746 28.9051Z" fill="#181818"/>
<path d="M129.161 39.7833C127.858 39.7833 126.844 39.347 126.118 38.4743C125.404 37.5903 125.047 36.3493 125.047 34.7513V23.7013H123.279V21.8313H125.047V15.3203H127.529V21.8313H131.864V23.7013H127.529V34.6153C127.529 35.5787 127.716 36.3153 128.09 36.8253C128.464 37.3353 128.997 37.5903 129.688 37.5903C130.357 37.5903 130.946 37.4033 131.456 37.0293L132.085 39.0013C131.7 39.2393 131.247 39.4263 130.725 39.5623C130.204 39.7097 129.683 39.7833 129.161 39.7833Z" fill="#181818"/>
<path d="M111.58 39.784C108.406 39.784 106.117 39.155 104.712 37.897C103.306 36.639 102.604 34.582 102.604 31.726V21.832H107.823V30.502C107.823 32.338 108.106 33.6357 108.673 34.395C109.251 35.1544 110.22 35.534 111.58 35.534C112.962 35.534 113.931 35.1544 114.487 34.395C115.053 33.6357 115.337 32.338 115.337 30.502V21.832H120.556V31.726C120.556 34.582 119.853 36.639 118.448 37.897C117.054 39.155 114.764 39.784 111.58 39.784Z" fill="#181818"/>
<path d="M87.5914 39.784C86.016 39.784 84.5767 39.393 83.2734 38.611C81.9814 37.8177 80.95 36.724 80.1794 35.33C79.4087 33.936 79.0234 32.338 79.0234 30.536C79.0234 28.768 79.3974 27.1927 80.1454 25.81C80.8934 24.416 81.919 23.3167 83.2224 22.512C84.537 21.696 86.0387 21.288 87.7274 21.288C88.9514 21.288 90.0847 21.526 91.1274 22.002C92.17 22.4667 93.037 23.1183 93.7284 23.957V10H98.9474V39.24H93.7284V36.945C92.9577 37.8403 92.0454 38.5373 90.9914 39.036C89.9374 39.5347 88.804 39.784 87.5914 39.784ZM89.1554 35.347C90.0734 35.347 90.8837 35.143 91.5864 34.735C92.289 34.3157 92.8387 33.7433 93.2354 33.018C93.6434 32.2927 93.8474 31.471 93.8474 30.553C93.8474 29.6237 93.6434 28.7963 93.2354 28.071C92.8387 27.3457 92.289 26.7733 91.5864 26.354C90.8837 25.9347 90.079 25.725 89.1724 25.725C88.277 25.725 87.478 25.9347 86.7754 26.354C86.084 26.7733 85.5344 27.3513 85.1264 28.088C84.7184 28.8133 84.5144 29.6407 84.5144 30.57C84.5144 31.488 84.7127 32.3097 85.1094 33.035C85.506 33.749 86.0557 34.3157 86.7584 34.735C87.461 35.143 88.26 35.347 89.1554 35.347Z" fill="#181818"/>
<path d="M60.8262 39.2414V11.1914H76.4322V16.0194H66.3342V22.7684H76.0242V27.5964H66.3342V34.4134H76.4322V39.2414H60.8262Z" fill="#181818"/>
<path d="M25 50C38.8071 50 50 38.8071 50 25C50 11.1929 38.8071 0 25 0C11.1929 0 0 11.1929 0 25C0 38.8071 11.1929 50 25 50Z" fill="#2EB97E"/>
<path d="M12.8199 19.334C12.0596 19.8396 11.6139 20.9103 12.454 22.1904C13.294 23.4706 25.2954 32.1116 25.7355 32.3515C26.1756 32.5915 26.6159 32.6314 27.7355 31.7916C28.8558 30.9513 38.2152 24.3882 38.4567 24.1908C38.841 23.8769 38.937 23.1106 38.4567 22.7506C38.4567 22.7506 27.1181 30.6714 26.7469 30.9915C26.3756 31.3115 25.798 30.7915 25.9066 30.1115C26.0156 29.4314 26.0955 29.3513 27.5357 28.3111C28.9759 27.2709 37.1414 21.4942 37.5118 21.2388C37.9314 20.9497 37.9415 20.4386 37.2541 19.9864C36.2987 19.358 25.9747 12.5039 25.6291 12.264C25.2828 12.024 24.8037 11.8057 24.0837 12.2857C23.3637 12.766 14.2168 18.405 12.8199 19.334Z" fill="white"/>
<path d="M25.7349 33.1943C25.4461 33.0367 20.1804 29.2627 16.3555 26.3242V32.451C16.3524 36.9234 29.8511 39.313 34.3233 33.815V27.9592C31.5761 29.8968 28.3627 32.1636 27.7349 32.6342C26.6153 33.4742 26.175 33.4343 25.7349 33.1943Z" fill="white"/>
<path d="M31.4486 26.4766C31.4486 26.4766 33.4557 27.4185 33.5985 31.2089L32.6261 30.9587L31.848 32.5011C31.5188 28.3505 29.7266 27.7488 29.7266 27.7488L31.4486 26.4766Z" fill="#141417"/>
</g>
<defs>
<clipPath id="clip0_83_897">
<rect width="170" height="50" fill="white"/>
</clipPath>
</defs>
</svg>
