<svg width="20" height="20" viewBox="0 0 20 20" fill="none" xmlns="http://www.w3.org/2000/svg">
<path d="M14.1337 13.4529C13.1755 13.4529 12.3121 13.8667 11.7129 14.525L6.32339 11.187C6.47135 10.8087 6.54721 10.4061 6.54706 9.99998C6.54724 9.59382 6.47138 9.19122 6.32339 8.81299L11.7129 5.47483C12.3122 6.13311 13.1755 6.5471 14.1337 6.5471C15.9388 6.5471 17.4073 5.07858 17.4073 3.27347C17.4073 1.46836 15.9388 0 14.1337 0C12.3286 0 10.8601 1.46851 10.8601 3.27363C10.8601 3.67976 10.9359 4.08233 11.0838 4.46058L5.6944 7.79862C5.09518 7.14034 4.23187 6.72635 3.27363 6.72635C1.46851 6.72635 0 8.19502 0 9.99998C0 11.8051 1.46851 13.2736 3.27363 13.2736C4.23183 13.2736 5.09522 12.8598 5.6944 12.2013L11.0838 15.5394C10.9359 15.9177 10.8601 16.3203 10.8601 16.7265C10.8601 18.5314 12.3286 20 14.1337 20C15.9388 20 17.4073 18.5314 17.4073 16.7265C17.4073 14.9214 15.9388 13.4529 14.1337 13.4529ZM12.0538 3.27363C12.0538 2.12675 12.9869 1.19371 14.1337 1.19371C15.2806 1.19371 16.2136 2.12675 16.2136 3.27363C16.2136 4.4205 15.2806 5.35354 14.1337 5.35354C12.9868 5.35354 12.0538 4.42046 12.0538 3.27363ZM3.27363 12.0799C2.1266 12.0799 1.19355 11.1468 1.19355 9.99998C1.19355 8.85315 2.1266 7.92006 3.27363 7.92006C4.4205 7.92006 5.35339 8.85315 5.35339 9.99998C5.35339 11.1468 4.42046 12.0799 3.27363 12.0799ZM12.0538 16.7264C12.0538 15.5795 12.9869 14.6464 14.1337 14.6464C15.2806 14.6464 16.2136 15.5795 16.2136 16.7263C16.2136 17.8732 15.2806 18.8063 14.1337 18.8063C12.9868 18.8063 12.0538 17.8732 12.0538 16.7263V16.7264Z" fill="#2EB97E"/>
</svg>
