<svg width="114" height="114" viewBox="0 0 114 114" fill="none" xmlns="http://www.w3.org/2000/svg">
<mask id="mask0_119_1772" style="mask-type:alpha" maskUnits="userSpaceOnUse" x="0" y="0" width="114" height="114">
<circle cx="57" cy="57" r="57" fill="#D9D9D9"/>
</mask>
<g mask="url(#mask0_119_1772)">
<rect width="2" height="2" transform="matrix(1 0 0 -1 1 3)" fill="#808080"/>
<rect width="2" height="2" transform="matrix(1 0 0 -1 1 23)" fill="#808080"/>
<rect width="2" height="2" transform="matrix(1 0 0 -1 1 43)" fill="#808080"/>
<rect width="2" height="2" transform="matrix(1 0 0 -1 1 63)" fill="#808080"/>
<rect width="2" height="2" transform="matrix(1 0 0 -1 1 83)" fill="#808080"/>
<rect width="2" height="2" transform="matrix(1 0 0 -1 1 103)" fill="#808080"/>
<rect width="2" height="2" transform="matrix(1 0 0 -1 1 13)" fill="#808080"/>
<rect width="2" height="2" transform="matrix(1 0 0 -1 1 33)" fill="#808080"/>
<rect width="2" height="2" transform="matrix(1 0 0 -1 1 53)" fill="#808080"/>
<rect width="2" height="2" transform="matrix(1 0 0 -1 1 73)" fill="#808080"/>
<rect width="2" height="2" transform="matrix(1 0 0 -1 1 93)" fill="#808080"/>
<rect width="2" height="2" transform="matrix(1 0 0 -1 1 113)" fill="#808080"/>
<rect width="2" height="2" transform="matrix(1 0 0 -1 11 3)" fill="#808080"/>
<rect width="2" height="2" transform="matrix(1 0 0 -1 11 23)" fill="#808080"/>
<rect width="2" height="2" transform="matrix(1 0 0 -1 11 43)" fill="#808080"/>
<rect width="2" height="2" transform="matrix(1 0 0 -1 11 63)" fill="#808080"/>
<rect width="2" height="2" transform="matrix(1 0 0 -1 11 83)" fill="#808080"/>
<rect width="2" height="2" transform="matrix(1 0 0 -1 11 103)" fill="#808080"/>
<rect width="2" height="2" transform="matrix(1 0 0 -1 11 13)" fill="#808080"/>
<rect width="2" height="2" transform="matrix(1 0 0 -1 11 33)" fill="#808080"/>
<rect width="2" height="2" transform="matrix(1 0 0 -1 11 53)" fill="#808080"/>
<rect width="2" height="2" transform="matrix(1 0 0 -1 11 73)" fill="#808080"/>
<rect width="2" height="2" transform="matrix(1 0 0 -1 11 93)" fill="#808080"/>
<rect width="2" height="2" transform="matrix(1 0 0 -1 11 113)" fill="#808080"/>
<rect width="2" height="2" transform="matrix(1 0 0 -1 21 3)" fill="#808080"/>
<rect width="2" height="2" transform="matrix(1 0 0 -1 21 23)" fill="#808080"/>
<rect width="2" height="2" transform="matrix(1 0 0 -1 21 43)" fill="#808080"/>
<rect width="2" height="2" transform="matrix(1 0 0 -1 21 63)" fill="#808080"/>
<rect width="2" height="2" transform="matrix(1 0 0 -1 21 83)" fill="#808080"/>
<rect width="2" height="2" transform="matrix(1 0 0 -1 21 103)" fill="#808080"/>
<rect width="2" height="2" transform="matrix(1 0 0 -1 21 13)" fill="#808080"/>
<rect width="2" height="2" transform="matrix(1 0 0 -1 21 33)" fill="#808080"/>
<rect width="2" height="2" transform="matrix(1 0 0 -1 21 53)" fill="#808080"/>
<rect width="2" height="2" transform="matrix(1 0 0 -1 21 73)" fill="#808080"/>
<rect width="2" height="2" transform="matrix(1 0 0 -1 21 93)" fill="#808080"/>
<rect width="2" height="2" transform="matrix(1 0 0 -1 21 113)" fill="#808080"/>
<rect width="2" height="2" transform="matrix(1 0 0 -1 31 3)" fill="#808080"/>
<rect width="2" height="2" transform="matrix(1 0 0 -1 31 23)" fill="#808080"/>
<rect width="2" height="2" transform="matrix(1 0 0 -1 31 43)" fill="#808080"/>
<rect width="2" height="2" transform="matrix(1 0 0 -1 31 63)" fill="#808080"/>
<rect width="2" height="2" transform="matrix(1 0 0 -1 31 83)" fill="#808080"/>
<rect width="2" height="2" transform="matrix(1 0 0 -1 31 103)" fill="#808080"/>
<rect width="2" height="2" transform="matrix(1 0 0 -1 31 13)" fill="#808080"/>
<rect width="2" height="2" transform="matrix(1 0 0 -1 31 33)" fill="#808080"/>
<rect width="2" height="2" transform="matrix(1 0 0 -1 31 53)" fill="#808080"/>
<rect width="2" height="2" transform="matrix(1 0 0 -1 31 73)" fill="#808080"/>
<rect width="2" height="2" transform="matrix(1 0 0 -1 31 93)" fill="#808080"/>
<rect width="2" height="2" transform="matrix(1 0 0 -1 31 113)" fill="#808080"/>
<rect width="2" height="2" transform="matrix(1 0 0 -1 41 3)" fill="#808080"/>
<rect width="2" height="2" transform="matrix(1 0 0 -1 41 23)" fill="#808080"/>
<rect width="2" height="2" transform="matrix(1 0 0 -1 41 43)" fill="#808080"/>
<rect width="2" height="2" transform="matrix(1 0 0 -1 41 63)" fill="#808080"/>
<rect width="2" height="2" transform="matrix(1 0 0 -1 41 83)" fill="#808080"/>
<rect width="2" height="2" transform="matrix(1 0 0 -1 41 103)" fill="#808080"/>
<rect width="2" height="2" transform="matrix(1 0 0 -1 41 13)" fill="#808080"/>
<rect width="2" height="2" transform="matrix(1 0 0 -1 41 33)" fill="#808080"/>
<rect width="2" height="2" transform="matrix(1 0 0 -1 41 53)" fill="#808080"/>
<rect width="2" height="2" transform="matrix(1 0 0 -1 41 73)" fill="#808080"/>
<rect width="2" height="2" transform="matrix(1 0 0 -1 41 93)" fill="#808080"/>
<rect width="2" height="2" transform="matrix(1 0 0 -1 41 113)" fill="#808080"/>
<rect width="2" height="2" transform="matrix(1 0 0 -1 51 3)" fill="#808080"/>
<rect width="2" height="2" transform="matrix(1 0 0 -1 51 23)" fill="#808080"/>
<rect width="2" height="2" transform="matrix(1 0 0 -1 51 43)" fill="#808080"/>
<rect width="2" height="2" transform="matrix(1 0 0 -1 51 63)" fill="#808080"/>
<rect width="2" height="2" transform="matrix(1 0 0 -1 51 83)" fill="#808080"/>
<rect width="2" height="2" transform="matrix(1 0 0 -1 51 103)" fill="#808080"/>
<rect width="2" height="2" transform="matrix(1 0 0 -1 51 13)" fill="#808080"/>
<rect width="2" height="2" transform="matrix(1 0 0 -1 51 33)" fill="#808080"/>
<rect width="2" height="2" transform="matrix(1 0 0 -1 51 53)" fill="#808080"/>
<rect width="2" height="2" transform="matrix(1 0 0 -1 51 73)" fill="#808080"/>
<rect width="2" height="2" transform="matrix(1 0 0 -1 51 93)" fill="#808080"/>
<rect width="2" height="2" transform="matrix(1 0 0 -1 51 113)" fill="#808080"/>
<rect width="2" height="2" transform="matrix(1 0 0 -1 61 3)" fill="#808080"/>
<rect width="2" height="2" transform="matrix(1 0 0 -1 61 23)" fill="#808080"/>
<rect width="2" height="2" transform="matrix(1 0 0 -1 61 43)" fill="#808080"/>
<rect width="2" height="2" transform="matrix(1 0 0 -1 61 63)" fill="#808080"/>
<rect width="2" height="2" transform="matrix(1 0 0 -1 61 83)" fill="#808080"/>
<rect width="2" height="2" transform="matrix(1 0 0 -1 61 103)" fill="#808080"/>
<rect width="2" height="2" transform="matrix(1 0 0 -1 61 13)" fill="#808080"/>
<rect width="2" height="2" transform="matrix(1 0 0 -1 61 33)" fill="#808080"/>
<rect width="2" height="2" transform="matrix(1 0 0 -1 61 53)" fill="#808080"/>
<rect width="2" height="2" transform="matrix(1 0 0 -1 61 73)" fill="#808080"/>
<rect width="2" height="2" transform="matrix(1 0 0 -1 61 93)" fill="#808080"/>
<rect width="2" height="2" transform="matrix(1 0 0 -1 61 113)" fill="#808080"/>
<rect width="2" height="2" transform="matrix(1 0 0 -1 71 3)" fill="#808080"/>
<rect width="2" height="2" transform="matrix(1 0 0 -1 71 23)" fill="#808080"/>
<rect width="2" height="2" transform="matrix(1 0 0 -1 71 43)" fill="#808080"/>
<rect width="2" height="2" transform="matrix(1 0 0 -1 71 63)" fill="#808080"/>
<rect width="2" height="2" transform="matrix(1 0 0 -1 71 83)" fill="#808080"/>
<rect width="2" height="2" transform="matrix(1 0 0 -1 71 103)" fill="#808080"/>
<rect width="2" height="2" transform="matrix(1 0 0 -1 71 13)" fill="#808080"/>
<rect width="2" height="2" transform="matrix(1 0 0 -1 71 33)" fill="#808080"/>
<rect width="2" height="2" transform="matrix(1 0 0 -1 71 53)" fill="#808080"/>
<rect width="2" height="2" transform="matrix(1 0 0 -1 71 73)" fill="#808080"/>
<rect width="2" height="2" transform="matrix(1 0 0 -1 71 93)" fill="#808080"/>
<rect width="2" height="2" transform="matrix(1 0 0 -1 71 113)" fill="#808080"/>
<rect width="2" height="2" transform="matrix(1 0 0 -1 81 3)" fill="#808080"/>
<rect width="2" height="2" transform="matrix(1 0 0 -1 81 23)" fill="#808080"/>
<rect width="2" height="2" transform="matrix(1 0 0 -1 81 43)" fill="#808080"/>
<rect width="2" height="2" transform="matrix(1 0 0 -1 81 63)" fill="#808080"/>
<rect width="2" height="2" transform="matrix(1 0 0 -1 81 83)" fill="#808080"/>
<rect width="2" height="2" transform="matrix(1 0 0 -1 81 103)" fill="#808080"/>
<rect width="2" height="2" transform="matrix(1 0 0 -1 81 13)" fill="#808080"/>
<rect width="2" height="2" transform="matrix(1 0 0 -1 81 33)" fill="#808080"/>
<rect width="2" height="2" transform="matrix(1 0 0 -1 81 53)" fill="#808080"/>
<rect width="2" height="2" transform="matrix(1 0 0 -1 81 73)" fill="#808080"/>
<rect width="2" height="2" transform="matrix(1 0 0 -1 81 93)" fill="#808080"/>
<rect width="2" height="2" transform="matrix(1 0 0 -1 81 113)" fill="#808080"/>
<rect width="2" height="2" transform="matrix(1 0 0 -1 91 3)" fill="#808080"/>
<rect width="2" height="2" transform="matrix(1 0 0 -1 91 23)" fill="#808080"/>
<rect width="2" height="2" transform="matrix(1 0 0 -1 91 43)" fill="#808080"/>
<rect width="2" height="2" transform="matrix(1 0 0 -1 91 63)" fill="#808080"/>
<rect width="2" height="2" transform="matrix(1 0 0 -1 91 83)" fill="#808080"/>
<rect width="2" height="2" transform="matrix(1 0 0 -1 91 103)" fill="#808080"/>
<rect width="2" height="2" transform="matrix(1 0 0 -1 91 13)" fill="#808080"/>
<rect width="2" height="2" transform="matrix(1 0 0 -1 91 33)" fill="#808080"/>
<rect width="2" height="2" transform="matrix(1 0 0 -1 91 53)" fill="#808080"/>
<rect width="2" height="2" transform="matrix(1 0 0 -1 91 73)" fill="#808080"/>
<rect width="2" height="2" transform="matrix(1 0 0 -1 91 93)" fill="#808080"/>
<rect width="2" height="2" transform="matrix(1 0 0 -1 91 113)" fill="#808080"/>
<rect width="2" height="2" transform="matrix(1 0 0 -1 101 3)" fill="#808080"/>
<rect width="2" height="2" transform="matrix(1 0 0 -1 101 23)" fill="#808080"/>
<rect width="2" height="2" transform="matrix(1 0 0 -1 101 43)" fill="#808080"/>
<rect width="2" height="2" transform="matrix(1 0 0 -1 101 63)" fill="#808080"/>
<rect width="2" height="2" transform="matrix(1 0 0 -1 101 83)" fill="#808080"/>
<rect width="2" height="2" transform="matrix(1 0 0 -1 101 103)" fill="#808080"/>
<rect width="2" height="2" transform="matrix(1 0 0 -1 101 13)" fill="#808080"/>
<rect width="2" height="2" transform="matrix(1 0 0 -1 101 33)" fill="#808080"/>
<rect width="2" height="2" transform="matrix(1 0 0 -1 101 53)" fill="#808080"/>
<rect width="2" height="2" transform="matrix(1 0 0 -1 101 73)" fill="#808080"/>
<rect width="2" height="2" transform="matrix(1 0 0 -1 101 93)" fill="#808080"/>
<rect width="2" height="2" transform="matrix(1 0 0 -1 101 113)" fill="#808080"/>
<rect width="2" height="2" transform="matrix(1 0 0 -1 111 3)" fill="#808080"/>
<rect width="2" height="2" transform="matrix(1 0 0 -1 111 23)" fill="#808080"/>
<rect width="2" height="2" transform="matrix(1 0 0 -1 111 43)" fill="#808080"/>
<rect width="2" height="2" transform="matrix(1 0 0 -1 111 63)" fill="#808080"/>
<rect width="2" height="2" transform="matrix(1 0 0 -1 111 83)" fill="#808080"/>
<rect width="2" height="2" transform="matrix(1 0 0 -1 111 103)" fill="#808080"/>
<rect width="2" height="2" transform="matrix(1 0 0 -1 111 13)" fill="#808080"/>
<rect width="2" height="2" transform="matrix(1 0 0 -1 111 33)" fill="#808080"/>
<rect width="2" height="2" transform="matrix(1 0 0 -1 111 53)" fill="#808080"/>
<rect width="2" height="2" transform="matrix(1 0 0 -1 111 73)" fill="#808080"/>
<rect width="2" height="2" transform="matrix(1 0 0 -1 111 93)" fill="#808080"/>
<rect width="2" height="2" transform="matrix(1 0 0 -1 111 113)" fill="#808080"/>
</g>
</svg>
