<svg width="148" height="148" viewBox="0 0 148 148" fill="none" xmlns="http://www.w3.org/2000/svg">
<path d="M96.3054 93.6527L96.3058 93.6527C97.1559 93.6519 97.9709 93.3139 98.572 92.7129C99.1731 92.1118 99.5112 91.2968 99.5122 90.4468V90.4463C99.5122 89.812 99.3242 89.192 98.9719 88.6646C98.6196 88.1372 98.1187 87.7261 97.5328 87.4834C96.9468 87.2406 96.302 87.1771 95.68 87.3008C95.0579 87.4245 94.4865 87.7298 94.038 88.1783C93.5894 88.6268 93.284 89.1982 93.1602 89.8202C93.0365 90.4423 93.0999 91.0871 93.3427 91.6731C93.5854 92.259 93.9964 92.7599 94.5237 93.1123C95.0511 93.4647 95.6711 93.6527 96.3054 93.6527ZM51.0564 92.0933H51.0569C51.9069 92.0923 52.722 91.7546 53.3232 91.1533C53.9243 90.5522 54.2624 89.7371 54.2632 88.887V88.8865C54.2632 88.2522 54.0751 87.6322 53.7227 87.1049C53.3704 86.5775 52.8695 86.1665 52.2836 85.9238C51.6976 85.6811 51.0528 85.6176 50.4308 85.7413C49.8087 85.865 49.2373 86.1705 48.7889 86.6189C48.3404 87.0674 48.035 87.6388 47.9112 88.2609C47.7875 88.8829 47.851 89.5277 48.0937 90.1136C48.3364 90.6996 48.7474 91.2004 49.2748 91.5528C49.8022 91.9052 50.4222 92.0933 51.0564 92.0933ZM91.8662 105.443V105.441C91.8662 105.036 92.0267 104.649 92.3124 104.363C92.5981 104.078 92.9855 103.917 93.3896 103.917C93.7936 103.917 94.1811 104.078 94.4668 104.363C94.7524 104.649 94.9128 105.036 94.913 105.44C94.8923 111.057 92.6463 116.437 88.667 120.402C84.6874 124.367 79.2986 126.594 73.6809 126.594C68.0631 126.594 62.6744 124.367 58.6948 120.402C54.7154 116.437 52.4694 111.057 52.4487 105.44C52.449 105.036 52.6095 104.649 52.8949 104.363C53.1806 104.078 53.5681 103.917 53.9722 103.917C54.3762 103.917 54.7637 104.078 55.0494 104.363C55.3351 104.649 55.4956 105.036 55.4956 105.441L55.4956 105.443C55.5151 110.253 57.4396 114.859 60.8479 118.254C64.2562 121.649 68.8705 123.554 73.6809 123.554C78.4912 123.554 83.1056 121.649 86.5139 118.254C89.9222 114.859 91.8467 110.253 91.8662 105.443ZM92.8311 85.2465C93.8594 84.5594 95.0683 84.1927 96.305 84.1926C97.9633 84.1945 99.5531 84.8542 100.726 86.0268C101.898 87.1995 102.557 88.7895 102.559 90.4478C102.559 91.6844 102.192 92.8932 101.505 93.9214C100.817 94.9496 99.8405 95.751 98.6978 96.2242C97.5551 96.6973 96.2977 96.821 95.0847 96.5796C93.8717 96.3382 92.7575 95.7425 91.883 94.8679C91.0085 93.9932 90.413 92.8789 90.1718 91.6659C89.9306 90.4528 90.0545 89.1955 90.5278 88.0528C91.0012 86.9102 91.8027 85.9336 92.8311 85.2465ZM56.2561 85.4121C56.9433 86.4405 57.3101 87.6496 57.3101 88.8865C57.3081 90.5444 56.6486 92.1339 55.4762 93.3063C54.3038 94.4786 52.7143 95.1381 51.0564 95.1401C49.8195 95.1401 48.6105 94.7734 47.582 94.0862C46.5536 93.399 45.7521 92.4223 45.2788 91.2796C44.8054 90.1369 44.6816 88.8795 44.9229 87.6664C45.1642 86.4533 45.7598 85.3391 46.6344 84.4645C47.509 83.5899 48.6233 82.9943 49.8364 82.753C51.0495 82.5117 52.3069 82.6355 53.4496 83.1088C54.5923 83.5822 55.569 84.3837 56.2561 85.4121Z" stroke="#2EB97E"/>
<path d="M30.622 44.5487V44.2053L30.3015 44.082L12.2641 37.1425C11.1488 36.7134 10.5544 36.1666 10.2341 35.6755C9.91205 35.1818 9.83984 34.7025 9.83984 34.3665C9.83984 34.0312 9.91273 33.5518 10.2358 33.0578C10.5571 32.5664 11.1527 32.0195 12.2681 31.5904L12.2681 31.5904L69.618 9.52458C69.618 9.52457 69.618 9.52456 69.6181 9.52454C70.758 9.08624 72.212 8.85937 73.6853 8.85937C75.1585 8.85937 76.6122 9.08625 77.7514 9.52454L135.101 31.5904L135.258 31.1824L135.101 31.5904C136.217 32.0195 136.812 32.5666 137.134 33.0583C137.457 33.5525 137.53 34.032 137.53 34.3665C137.53 34.7009 137.457 35.1803 137.134 35.6745C136.812 36.1662 136.217 36.7134 135.101 37.1425L132.881 37.9967L132.561 38.12V38.4634V60.2757V60.6656L132.939 60.7606C134.368 61.1201 135.622 61.9787 136.474 63.1815C137.326 64.3843 137.719 65.852 137.584 67.3197C137.448 68.7873 136.792 70.158 135.735 71.1845C134.677 72.2109 133.287 72.8254 131.816 72.9169C130.345 73.0084 128.89 72.571 127.713 71.6835C126.536 70.7961 125.716 69.5172 125.399 68.0777C125.083 66.6382 125.291 65.133 125.988 63.8339C126.684 62.5348 127.821 61.5274 129.195 60.9935L129.514 60.8696V60.5275V40.0202V39.2921L128.834 39.5536L116.376 44.3474L116.055 44.4707V44.8141L116.055 69.0194C116.055 69.02 116.055 69.0206 116.055 69.0212C116.054 69.2874 115.983 69.5485 115.848 69.7783L115.71 70.0141L115.834 70.2577C117.237 73.0166 118.365 75.9075 119.2 78.8881L119.274 79.1525L119.537 79.2318C122.203 80.0365 124.539 81.678 126.199 83.9136C127.86 86.1491 128.756 88.8598 128.756 91.6445C128.756 94.4292 127.86 97.1399 126.199 99.3754C124.539 101.611 122.203 103.253 119.537 104.057L119.274 104.136L119.2 104.401C116.414 114.335 110.455 123.085 102.233 129.317C94.0113 135.549 83.9767 138.922 73.6596 138.92C63.3424 138.919 53.3088 135.543 45.0886 129.309C36.8683 123.074 30.9126 114.322 28.1294 104.387L28.0555 104.124L27.7937 104.044C25.1365 103.234 22.8098 101.592 21.1565 99.3593C19.5032 97.1269 18.6108 94.4224 18.6108 91.6445C18.6108 88.8665 19.5032 86.1621 21.1565 83.9297C22.8098 81.6973 25.1365 80.0551 27.7937 79.245L28.0556 79.1652L28.1294 78.9015C28.9151 76.0933 29.9605 73.3643 31.2522 70.75L31.4216 70.4069L31.1348 70.1537C30.9741 70.0117 30.8452 69.8373 30.7568 69.6419C30.6685 69.4468 30.6226 69.2351 30.622 69.0209C30.622 69.0207 30.622 69.0204 30.622 69.0202L30.622 44.5487ZM134.561 66.773V66.7707C134.563 65.938 134.234 65.1386 133.647 64.5479C133.06 63.9572 132.263 63.6234 131.43 63.6197H131.428C130.809 63.6198 130.204 63.8031 129.689 64.1465C129.174 64.4899 128.773 64.9781 128.535 65.5494C128.298 66.1207 128.234 66.7496 128.354 67.3568C128.473 67.9639 128.769 68.5222 129.206 68.9611C129.642 69.4001 130.198 69.7 130.805 69.8231C131.411 69.9463 132.04 69.8871 132.613 69.6531C133.186 69.419 133.677 69.0206 134.023 68.5081C134.37 67.9955 134.557 67.3918 134.561 66.773ZM117.735 81.9213L117.734 81.921C117.451 81.8651 117.19 81.7298 116.98 81.531C116.771 81.3322 116.623 81.078 116.552 80.798L116.552 80.7976C115.742 77.5885 114.572 74.4812 113.064 71.5347L112.873 71.1616L112.472 71.2844C99.7882 75.1716 86.5926 77.1343 73.326 77.107L73.3239 77.107C60.2635 77.134 47.2709 75.2288 34.7681 71.4532L34.3668 71.332L34.1775 71.7061C32.7101 74.6046 31.5689 77.6571 30.7746 80.8073L30.7746 80.8076C30.7044 81.0866 30.5566 81.3401 30.3483 81.5387C30.14 81.7372 29.8797 81.8727 29.5976 81.9295L29.5967 81.9296C27.3556 82.3848 25.3407 83.6007 23.8934 85.3714C22.4462 87.1421 21.6556 89.3586 21.6556 91.6455C21.6556 93.9324 22.4462 96.1489 23.8934 97.9196C25.3407 99.6903 27.3556 100.906 29.5967 101.361L29.5976 101.362C29.8797 101.418 30.1399 101.554 30.3482 101.752C30.5565 101.951 30.7043 102.204 30.7746 102.483L30.7747 102.484C33.189 112.027 38.7176 120.493 46.4852 126.541C54.2529 132.589 63.8158 135.874 73.6603 135.875C83.5048 135.876 93.0685 132.593 100.837 126.547C108.606 120.501 114.137 112.036 116.553 102.492L116.553 102.492C116.623 102.212 116.772 101.958 116.981 101.759C117.19 101.561 117.451 101.426 117.734 101.37L117.735 101.369C119.984 100.92 122.007 99.7056 123.46 97.9327C124.914 96.1598 125.708 93.938 125.708 91.6454C125.708 89.3528 124.914 87.131 123.46 85.358C122.007 83.5851 119.984 82.3707 117.735 81.9213ZM112.659 68.0321L113.007 67.9207V67.556V46.3707V45.6425L112.327 45.904L77.7582 59.2047C75.1138 60.0963 72.2499 60.0963 69.6055 59.2047L34.347 45.6387L33.6674 45.3772V46.1053V67.5514V67.9158L34.0143 68.0274C59.0541 76.0804 87.603 76.071 112.659 68.0321ZM132.617 34.8323L133.83 34.3656L132.617 33.899L76.6545 12.3676C75.8449 12.056 74.7462 11.9123 73.6818 11.9123C72.6174 11.9123 71.5188 12.056 70.7092 12.3676L14.7467 33.8998L13.5338 34.3665L14.7467 34.8331L70.7091 56.3639C71.5187 56.6756 72.6174 56.8194 73.6818 56.8194C74.7462 56.8194 75.8448 56.6756 76.6544 56.3639C76.6545 56.3639 76.6545 56.3639 76.6545 56.3639L132.617 34.8323ZM117.638 82.4103L117.638 82.4099L117.638 82.4103Z" stroke="#2EB97E"/>
</svg>
