<svg width="20" height="20" viewBox="0 0 20 20" fill="none" xmlns="http://www.w3.org/2000/svg">
<g clip-path="url(#clip0_119_1714)">
<path d="M19.9805 5.88005C19.9336 4.81735 19.7618 4.08681 19.5156 3.45372C19.2616 2.78175 18.8709 2.18015 18.3591 1.68002C17.8589 1.1721 17.2533 0.777417 16.5891 0.527447C15.9524 0.281305 15.2257 0.109396 14.163 0.0625903C13.0924 0.011721 12.7525 0 10.0371 0C7.32174 0 6.98187 0.011721 5.91521 0.0586052C4.85254 0.105489 4.12197 0.277476 3.48907 0.523462C2.81691 0.777417 2.21531 1.16812 1.71517 1.68002C1.20726 2.18011 0.812769 2.7857 0.562603 3.44989C0.316461 4.08681 0.144592 4.81344 0.0977466 5.87607C0.0469164 6.94671 0.0351562 7.28658 0.0351562 10.002C0.0351562 12.7173 0.0469164 13.0572 0.0937614 14.1239C0.140646 15.1866 0.312632 15.9171 0.558813 16.5502C0.812769 17.2222 1.20726 17.8238 1.71517 18.3239C2.21531 18.8318 2.8209 19.2265 3.48509 19.4765C4.12193 19.7226 4.84856 19.8945 5.91142 19.9413C6.97788 19.9884 7.31795 19.9999 10.0333 19.9999C12.7487 19.9999 13.0886 19.9884 14.1552 19.9413C15.2179 19.8945 15.9485 19.7226 16.5814 19.4765C17.2461 19.2195 17.8498 18.8264 18.3537 18.3225C18.8577 17.8185 19.2508 17.2149 19.5078 16.5502C19.7538 15.9133 19.9258 15.1865 19.9727 14.1239C20.0196 13.0572 20.0313 12.7173 20.0313 10.002C20.0313 7.28658 20.0273 6.94667 19.9805 5.88005ZM18.1794 14.0457C18.1364 15.0225 17.9723 15.5499 17.8356 15.9015C17.4995 16.7728 16.808 17.4643 15.9367 17.8004C15.5851 17.9372 15.0538 18.1012 14.0809 18.1441C13.026 18.1911 12.7096 18.2027 10.0411 18.2027C7.37257 18.2027 7.05223 18.1911 6.00113 18.1441C5.02437 18.1012 4.49693 17.9372 4.1453 17.8004C3.71173 17.6402 3.31709 17.3862 2.99671 17.0541C2.66462 16.7298 2.41066 16.3391 2.25039 15.9055C2.11365 15.5539 1.94959 15.0225 1.90673 14.0497C1.85969 12.9948 1.84813 12.6783 1.84813 10.0097C1.84813 7.3412 1.85969 7.02086 1.90673 5.96995C1.94959 4.9932 2.11365 4.46575 2.25039 4.11412C2.41066 3.68037 2.66462 3.2858 3.0007 2.96534C3.32482 2.63325 3.71552 2.37929 4.14928 2.21922C4.50091 2.08248 5.03234 1.91838 6.00511 1.87537C7.06001 1.82848 7.37655 1.81676 10.0449 1.81676C12.7174 1.81676 13.0338 1.82848 14.0849 1.87537C15.0616 1.91842 15.5891 2.08244 15.9407 2.21918C16.3742 2.37929 16.7689 2.63325 17.0893 2.96534C17.4214 3.28967 17.6753 3.68037 17.8356 4.11412C17.9723 4.46575 18.1364 4.99699 18.1794 5.96995C18.2263 7.02485 18.238 7.3412 18.238 10.0097C18.238 12.6783 18.2263 12.9908 18.1794 14.0457Z" fill="#2EB97E"/>
<path d="M10.0381 4.86348C7.2017 4.86348 4.90039 7.16463 4.90039 10.0012C4.90039 12.8378 7.2017 15.1389 10.0381 15.1389C12.8746 15.1389 15.1758 12.8378 15.1758 10.0012C15.1758 7.16463 12.8746 4.86348 10.0381 4.86348ZM10.0381 13.3339C8.19799 13.3339 6.70535 11.8415 6.70535 10.0012C6.70535 8.16092 8.19799 6.66852 10.0381 6.66852C11.8784 6.66852 13.3708 8.16092 13.3708 10.0012C13.3708 11.8415 11.8783 13.3339 10.0381 13.3339ZM16.5785 4.66031C16.5785 5.32271 16.0414 5.85977 15.3789 5.85977C14.7166 5.85977 14.1795 5.32271 14.1795 4.66031C14.1795 3.99784 14.7166 3.46094 15.379 3.46094C16.0414 3.46094 16.5785 3.9978 16.5785 4.66031Z" fill="#2EB97E"/>
</g>
<defs>
<clipPath id="clip0_119_1714">
<rect width="20" height="20" fill="white"/>
</clipPath>
</defs>
</svg>
