<svg width="40" height="40" viewBox="0 0 40 40" fill="none" xmlns="http://www.w3.org/2000/svg">
<circle cx="20" cy="20" r="19.5" stroke="white"/>
<path d="M24.1337 23.4529C23.1755 23.4529 22.3121 23.8667 21.7129 24.525L16.3234 21.187C16.4714 20.8087 16.5472 20.4061 16.5471 20C16.5472 19.5938 16.4714 19.1912 16.3234 18.813L21.7129 15.4748C22.3122 16.1331 23.1755 16.5471 24.1337 16.5471C25.9388 16.5471 27.4073 15.0786 27.4073 13.2735C27.4073 11.4684 25.9388 10 24.1337 10C22.3286 10 20.8601 11.4685 20.8601 13.2736C20.8601 13.6798 20.9359 14.0823 21.0838 14.4606L15.6944 17.7986C15.0952 17.1403 14.2319 16.7264 13.2736 16.7264C11.4685 16.7264 10 18.195 10 20C10 21.8051 11.4685 23.2736 13.2736 23.2736C14.2318 23.2736 15.0952 22.8598 15.6944 22.2013L21.0838 25.5394C20.9359 25.9177 20.8601 26.3203 20.8601 26.7265C20.8601 28.5314 22.3286 30 24.1337 30C25.9388 30 27.4073 28.5314 27.4073 26.7265C27.4073 24.9214 25.9388 23.4529 24.1337 23.4529ZM22.0538 13.2736C22.0538 12.1268 22.9869 11.1937 24.1337 11.1937C25.2806 11.1937 26.2136 12.1268 26.2136 13.2736C26.2136 14.4205 25.2806 15.3535 24.1337 15.3535C22.9868 15.3535 22.0538 14.4205 22.0538 13.2736ZM13.2736 22.0799C12.1266 22.0799 11.1936 21.1468 11.1936 20C11.1936 18.8531 12.1266 17.9201 13.2736 17.9201C14.4205 17.9201 15.3534 18.8531 15.3534 20C15.3534 21.1468 14.4205 22.0799 13.2736 22.0799ZM22.0538 26.7264C22.0538 25.5795 22.9869 24.6464 24.1337 24.6464C25.2806 24.6464 26.2136 25.5795 26.2136 26.7263C26.2136 27.8732 25.2806 28.8063 24.1337 28.8063C22.9868 28.8063 22.0538 27.8732 22.0538 26.7263V26.7264Z" fill="white"/>
</svg>
