<svg width="81" height="70" viewBox="0 0 81 70" fill="none" xmlns="http://www.w3.org/2000/svg">
<path d="M78.6298 11.7986L72.2022 5.3525C71.0816 4.22859 69.5913 3.60938 68.0064 3.60938C66.4214 3.60938 64.9313 4.22828 63.8105 5.3525L56.7016 12.4817L56.7011 12.482L56.7008 12.4825L45.0248 24.1922C45.169 22.0464 45.8476 19.3633 47.0399 16.2711C48.7213 11.9102 47.8089 7.88125 44.4711 4.92609C41.332 2.14719 36.3912 0.599219 30.5588 0.566875C30.4991 0.566563 30.4394 0.566406 30.3796 0.566406C24.3462 0.566406 17.904 2.25062 12.2182 5.31734C7.36144 7.93703 3.82756 11.0941 1.99892 14.4473C0.382956 17.4108 0.153306 20.4862 1.36902 22.8853C2.21876 24.5625 3.69825 25.7608 5.53452 26.2592C7.42999 26.7736 9.54109 26.5125 11.64 25.5039C17.4745 22.6997 24.2708 22.1352 25.2807 23.7445C25.4429 24.003 26.5603 26.5152 15.9969 35.0222C14.7858 35.9977 13.6441 36.9672 12.6043 37.9036C12.4901 38.0064 12.3973 38.1308 12.331 38.2696C12.2648 38.4084 12.2264 38.5589 12.2182 38.7126C12.2099 38.8663 12.232 39.0201 12.283 39.1652C12.334 39.3104 12.413 39.444 12.5156 39.5585C12.6181 39.673 12.7421 39.7662 12.8805 39.8326C13.0189 39.899 13.169 39.9375 13.3223 39.9457C13.4755 39.954 13.6289 39.9319 13.7736 39.8807C13.9183 39.8296 14.0516 39.7503 14.1657 39.6475C15.1739 38.7397 16.2824 37.7981 17.4605 36.8495C25.8665 30.0797 29.0717 25.3847 27.2589 22.4959C25.0258 18.938 16.1672 20.7292 10.6301 23.39C7.6076 24.8425 4.65595 24.1984 3.4527 21.8234C2.59206 20.1247 2.80956 17.8459 4.04958 15.5719C5.1729 13.5119 7.69423 10.4189 13.3253 7.38172C18.7295 4.46672 24.8481 2.87672 30.5459 2.91078C35.7365 2.93953 40.2484 4.31453 42.9244 6.68344C45.5126 8.97453 46.1819 11.9977 44.8602 15.4258C43.1034 19.9816 42.3949 23.6937 42.7456 26.4783L22.4369 46.8456C20.8159 48.4711 19.57 50.4812 18.834 52.6589L17.1814 57.5494C11.2414 57.4844 7.23103 56.0589 6.12142 53.5933C5.05309 51.2195 6.50952 47.712 10.3335 43.45C10.5408 43.2189 10.6481 42.9148 10.6317 42.6044C10.6154 42.294 10.4768 42.0029 10.2464 41.795C10.016 41.5871 9.71273 41.4795 9.40325 41.4959C9.09377 41.5123 8.80345 41.6513 8.59616 41.8823C4.04039 46.96 2.49094 51.2248 3.99115 54.5578C5.47765 57.8606 9.75158 59.6864 16.3943 59.8791L14.9426 64.1737C14.4538 65.6195 14.819 67.1883 15.8953 68.2678C16.6559 69.0306 17.66 69.4372 18.6925 69.4372C19.1211 69.4372 19.5546 69.367 19.9774 69.2233L31.4592 65.3205C33.6304 64.5826 35.6346 63.3331 37.2559 61.7075L48.6185 50.3122C51.3314 50.2408 54.4428 51.2023 58.362 53.3201C58.497 53.3932 58.6451 53.4389 58.7978 53.4545C58.9505 53.4701 59.1047 53.4554 59.2517 53.4112C59.3987 53.367 59.5356 53.2942 59.6546 53.197C59.7735 53.0997 59.8722 52.9799 59.9449 52.8444C60.0919 52.5708 60.1245 52.2498 60.0355 51.9521C59.9466 51.6544 59.7433 51.4043 59.4705 51.2569C56.1832 49.4805 53.3703 48.4509 50.8229 48.1014L66.2125 32.6675L66.2131 32.6669L66.2137 32.6662L73.6531 25.2055C73.8706 24.9854 73.9923 24.6878 73.9916 24.3779C73.991 24.068 73.8679 23.771 73.6494 23.5518C73.4308 23.3327 73.1347 23.2093 72.8256 23.2086C72.5166 23.208 72.2199 23.3301 72.0005 23.5483L70.6939 24.8586L59.1799 13.3114L65.4629 7.01031C66.142 6.32906 67.0452 5.95391 68.006 5.95391C68.9669 5.95391 69.8702 6.32906 70.5493 7.01031L76.9769 13.4564C77.312 13.7906 77.5776 14.1881 77.7584 14.6259C77.9393 15.0637 78.0317 15.5331 78.0304 16.007C78.0317 16.4809 77.9392 16.9504 77.7584 17.3882C77.5776 17.826 77.3119 18.2235 76.9769 18.5577L75.7743 19.7637C75.5552 19.9835 75.4321 20.2816 75.4321 20.5925C75.4321 20.9033 75.5553 21.2013 75.7744 21.4211C75.9936 21.6408 76.2908 21.7643 76.6008 21.7643C76.9107 21.7642 77.2079 21.6407 77.427 21.4209L78.6295 20.2148C79.7503 19.0909 80.3676 17.5964 80.3676 16.007C80.3678 14.417 79.7506 12.9225 78.6298 11.7986ZM52.2206 20.2905L54.9569 23.0345L29.8264 48.2377L29.8758 48.0422C30.062 47.3045 29.853 46.543 29.3164 46.0048C28.7802 45.467 28.0205 45.2572 27.285 45.4439L27.0902 45.4933L52.2206 20.2905ZM33.7054 50.4066C33.1691 49.8686 32.4102 49.6587 31.6739 49.8456L31.479 49.8951L56.6094 24.6922L59.3457 27.4364L34.2153 52.6392L34.2645 52.4439C34.4509 51.7061 34.2418 50.9445 33.7054 50.4066ZM19.2274 67.0034C18.6248 67.208 17.9974 67.0611 17.5479 66.6103C17.0984 66.1595 16.9518 65.5298 17.1559 64.9261L18.8596 59.8847L24.2543 65.2948L19.2274 67.0034ZM35.3782 60.2697C34.0509 61.5351 32.4432 62.5114 30.7095 63.1006L26.7231 64.4556L19.6965 57.4089L21.0475 53.4111C21.6351 51.672 22.6087 50.0598 23.8707 48.7289L27.5258 47.8008L26.9163 50.2155C26.7303 50.9522 26.9388 51.7127 27.4738 52.2508L27.4757 52.2528L27.4778 52.2548C28.0143 52.7914 28.7727 53.0006 29.5071 52.8137L31.9149 52.2025L31.3054 54.6172C31.1192 55.3548 31.3281 56.1164 31.8647 56.6545C32.4012 57.1925 33.161 57.4025 33.8962 57.2155L36.3038 56.6041L35.3782 60.2697ZM38.6041 57.0409L38.6534 56.8453C38.8396 56.1077 38.6307 55.3461 38.0941 54.808C37.5577 54.27 36.7983 54.0603 36.0626 54.247L35.8679 54.2964L60.9983 29.0936L63.7346 31.8378L38.6041 57.0409ZM69.0416 26.5153L65.3872 30.1803L53.8732 18.6331L57.5276 14.9681L69.0416 26.5153Z" fill="#2AC5E7"/>
</svg>
