<svg width="90" height="78" viewBox="0 0 90 78" fill="none" xmlns="http://www.w3.org/2000/svg">
<path d="M1.96085 12.8979L9.21271 5.64607C10.4771 4.38168 12.1584 3.68506 13.9467 3.68506C15.7349 3.68506 17.4161 4.38133 18.6806 5.64607L26.7012 13.6664L26.7017 13.6668L26.7021 13.6673L39.8755 26.8407C39.7127 24.4267 38.9472 21.4082 37.6019 17.9295C35.7049 13.0234 36.7342 8.49092 40.5002 5.16637C44.0418 2.0401 49.6162 0.298633 56.1966 0.262246C56.264 0.261895 56.3313 0.261719 56.3987 0.261719C63.2058 0.261719 70.4742 2.15646 76.8892 5.60652C82.3688 8.55367 86.3559 12.1053 88.419 15.8778C90.2422 19.2116 90.5013 22.6715 89.1297 25.3705C88.171 27.2573 86.5018 28.6054 84.43 29.1661C82.2915 29.7448 79.9096 29.4511 77.5415 28.3164C70.9589 25.1617 63.2909 24.5266 62.1515 26.3371C61.9685 26.6278 60.7078 29.4541 72.626 39.0245C73.9923 40.1219 75.2804 41.2126 76.4536 42.2661C76.5824 42.3817 76.6872 42.5216 76.7619 42.6778C76.8367 42.834 76.8799 43.0033 76.8892 43.1762C76.8985 43.3491 76.8737 43.5221 76.8161 43.6854C76.7586 43.8487 76.6694 43.999 76.5537 44.1278C76.438 44.2567 76.2981 44.3614 76.142 44.4362C75.9858 44.5109 75.8164 44.5542 75.6435 44.5635C75.4707 44.5728 75.2976 44.5479 75.1344 44.4904C74.9711 44.4328 74.8207 44.3436 74.6919 44.2279C73.5544 43.2067 72.3038 42.1474 70.9747 41.0802C61.4906 33.4642 57.8744 28.1823 59.9196 24.9324C62.4391 20.9297 72.4338 22.9449 78.6809 25.9383C82.0911 27.5723 85.4213 26.8478 86.7788 24.1759C87.7498 22.2648 87.5044 19.7012 86.1054 17.1429C84.838 14.8254 81.9933 11.3458 75.6401 7.92895C69.5429 4.64957 62.6397 2.86082 56.2112 2.89914C50.3548 2.93148 45.2644 4.47836 42.2452 7.14338C39.3251 9.72086 38.5699 13.1219 40.0611 16.9785C42.0432 22.1038 42.8426 26.28 42.447 29.4126L65.3601 52.3258C67.1889 54.1545 68.5946 56.4159 69.425 58.8658L71.2895 64.3675C77.9913 64.2944 82.5159 62.6908 83.7679 59.9169C84.9732 57.2465 83.33 53.3005 79.0156 48.5058C78.7817 48.2458 78.6607 47.9036 78.6791 47.5545C78.6976 47.2053 78.8539 46.8778 79.1139 46.6439C79.3738 46.41 79.716 46.289 80.0652 46.3074C80.4143 46.3258 80.7419 46.4822 80.9757 46.7421C86.1158 52.4545 87.8639 57.2525 86.1713 61.002C84.4942 64.7177 79.6722 66.7717 72.1775 66.9884L73.8155 71.82C74.3669 73.4465 73.9549 75.2113 72.7406 76.4258C71.8824 77.284 70.7495 77.7413 69.5846 77.7413C69.101 77.7413 68.612 77.6624 68.1349 77.5007L55.1807 73.11C52.731 72.28 50.4698 70.8743 48.6406 69.0454L35.8209 56.2257C32.76 56.1454 29.2497 57.2271 24.8279 59.6097C24.6755 59.6919 24.5084 59.7432 24.3361 59.7608C24.1639 59.7784 23.9899 59.7618 23.824 59.7121C23.6581 59.6624 23.5037 59.5805 23.3695 59.4711C23.2353 59.3617 23.124 59.2269 23.0419 59.0744C22.8761 58.7666 22.8393 58.4055 22.9397 58.0706C23.0401 57.7357 23.2694 57.4543 23.5772 57.2885C27.286 55.29 30.4597 54.1318 33.3338 53.7386L15.9706 36.3754L15.9699 36.3747L15.9692 36.374L7.57583 27.9807C7.33039 27.733 7.19304 27.3983 7.19382 27.0496C7.1946 26.701 7.33345 26.3668 7.57999 26.1203C7.82654 25.8738 8.1607 25.735 8.50935 25.7342C8.85799 25.7335 9.19274 25.8709 9.44034 26.1163L10.9144 27.5904L23.905 14.5998L16.8163 7.51111C16.0501 6.74471 15.0311 6.32266 13.947 6.32266C12.863 6.32266 11.8438 6.74471 11.0776 7.51111L3.82571 14.763C3.44771 15.1389 3.14801 15.5861 2.94398 16.0786C2.73995 16.5712 2.63564 17.0993 2.63708 17.6324C2.63565 18.1655 2.73997 18.6937 2.94399 19.1862C3.14803 19.6787 3.44772 20.1259 3.82571 20.5019L5.18257 21.8587C5.42979 22.106 5.56867 22.4414 5.56864 22.791C5.5686 23.1407 5.42966 23.476 5.1824 23.7232C4.93512 23.9705 4.59976 24.1093 4.2501 24.1093C3.90044 24.1093 3.56511 23.9703 3.31789 23.7231L1.9612 22.3662C0.69664 21.1018 0.000190735 19.4205 0.000190735 17.6324C1.52588e-05 15.8437 0.696281 14.1623 1.96085 12.8979ZM31.7568 22.4513L28.6696 25.5384L57.0229 53.8919L56.9672 53.672C56.7571 52.8421 56.9929 51.9853 57.5983 51.38C58.2033 50.7749 59.0604 50.5388 59.8903 50.7489L60.11 50.8044L31.7568 22.4513ZM52.6465 56.3319C53.2515 55.7267 54.1078 55.4906 54.9385 55.7008L55.1584 55.7566L26.8052 27.4032L23.718 30.4905L52.0712 58.8436L52.0156 58.6239C51.8054 57.7939 52.0413 56.9371 52.6465 56.3319ZM68.9811 75.0034C69.6611 75.2335 70.3689 75.0682 70.8761 74.5611C71.3832 74.054 71.5486 73.3456 71.3183 72.6664L69.3962 66.9948L63.3096 73.0812L68.9811 75.0034ZM50.7591 67.4279C52.2566 68.8516 54.0705 69.9498 56.0266 70.6127L60.5241 72.1371L68.4519 64.2095L66.9277 59.712C66.2646 57.7555 65.1662 55.9418 63.7423 54.4445L59.6185 53.4004L60.3062 56.1169C60.516 56.9457 60.2808 57.8012 59.6772 58.4066L59.6751 58.4089L59.6726 58.4112C59.0674 59.0148 58.2117 59.2502 57.3831 59.04L54.6666 58.3523L55.3542 61.0688C55.5643 61.8987 55.3286 62.7555 54.7232 63.3609C54.118 63.9661 53.2607 64.2023 52.4312 63.9919L49.7148 63.3041L50.7591 67.4279ZM47.1196 63.7956L47.0639 63.5755C46.8538 62.7456 47.0895 61.8889 47.6949 61.2835C48.3001 60.6783 49.1569 60.4424 49.9869 60.6524L50.2066 60.708L21.8535 32.3548L18.7662 35.442L47.1196 63.7956ZM12.7786 29.4542L16.9017 33.5774L29.8923 20.5868L25.7692 16.4636L12.7786 29.4542Z" fill="#2AC5E7"/>
</svg>
