<svg width="30" height="30" viewBox="0 0 30 30" fill="none" xmlns="http://www.w3.org/2000/svg">
<path d="M14.384 21.1797C14.3415 21.1797 14.2995 21.171 14.2607 21.1539C14.2218 21.1369 14.1868 21.1121 14.158 21.0809L8.06612 14.4912C8.02551 14.4473 7.99859 14.3924 7.98865 14.3334C7.97871 14.2744 7.98619 14.2138 8.01016 14.159C8.03414 14.1042 8.07357 14.0576 8.12364 14.0248C8.17371 13.9921 8.23223 13.9746 8.29206 13.9746H11.2244C11.2684 13.9746 11.3119 13.9841 11.352 14.0023C11.392 14.0206 11.4277 14.0472 11.4566 14.0805L13.4926 16.4227C13.7126 15.9524 14.1385 15.1693 14.886 14.215C15.991 12.8042 18.0463 10.7294 21.5627 8.85642C21.6307 8.82023 21.7097 8.81083 21.7843 8.83009C21.8588 8.84936 21.9235 8.89587 21.9654 8.96046C22.0073 9.02504 22.0235 9.103 22.0108 9.17894C21.998 9.25488 21.9573 9.32328 21.8966 9.37064C21.8831 9.38113 20.5273 10.4488 18.967 12.4045C17.5309 14.2042 15.6219 17.1469 14.6826 20.946C14.6661 21.0128 14.6277 21.0721 14.5735 21.1144C14.5194 21.1568 14.4526 21.1799 14.3839 21.1799L14.384 21.1797Z" fill="#181818"/>
<circle cx="15" cy="15" r="14.5" stroke="#2EB97E"/>
</svg>
