<svg width="16" height="16" viewBox="0 0 16 16" fill="none" xmlns="http://www.w3.org/2000/svg">
<path d="M14.3553 4.74247C14.3655 4.88459 14.3655 5.02675 14.3655 5.16887C14.3655 9.50387 11.066 14.4988 5.03553 14.4988C3.17766 14.4988 1.45178 13.9607 0 13.0267C0.263969 13.0572 0.51775 13.0673 0.791875 13.0673C2.32484 13.0673 3.73603 12.5496 4.86294 11.6663C3.42131 11.6359 2.21319 10.6917 1.79694 9.39222C2 9.42266 2.20303 9.44297 2.41625 9.44297C2.71066 9.44297 3.00509 9.40234 3.27919 9.33131C1.77666 9.02672 0.649719 7.70694 0.649719 6.11303V6.07244C1.08625 6.31609 1.59391 6.46837 2.13194 6.48866C1.24869 5.89981 0.670031 4.89475 0.670031 3.75769C0.670031 3.14856 0.832437 2.59019 1.11672 2.10287C2.73094 4.09272 5.15734 5.39219 7.87812 5.53434C7.82737 5.29069 7.79691 5.03691 7.79691 4.78309C7.79691 2.97597 9.25884 1.50391 11.0761 1.50391C12.0202 1.50391 12.873 1.89984 13.472 2.53944C14.2131 2.39731 14.9238 2.12319 15.5532 1.74756C15.3096 2.509 14.7918 3.14859 14.1116 3.55466C14.7715 3.48363 15.4111 3.30084 15.9999 3.04706C15.5533 3.69678 14.9949 4.27544 14.3553 4.74247V4.74247Z" fill="#2EB97E"/>
</svg>
