<svg width="675" height="545" viewBox="0 0 675 545" fill="none" xmlns="http://www.w3.org/2000/svg">
<path d="M64.3211 360.876C-29.7826 424.004 1.10518 509.929 28.312 545H651.67C714.406 443.153 635.132 361.578 587.654 333.521C668.474 84.1644 509.234 42.079 441.217 76.7995C282.457 -94.0673 176.617 59.6147 143.541 157.814C6.54692 172.123 33.6468 299.151 64.3211 360.876Z" fill="#FAB123"/>
<path d="M80.5061 371.011C-8.02935 430.665 21.0308 511.859 46.6278 545H633.1C692.124 448.76 617.541 371.674 572.872 345.162C648.91 109.532 499.093 69.7628 435.1 102.572C285.734 -58.8893 186.157 86.3331 155.039 179.127C26.1505 192.648 51.6469 312.684 80.5061 371.011Z" fill="#FAEBCC"/>
</svg>
