<svg width="18" height="16" viewBox="0 0 18 16" fill="none" xmlns="http://www.w3.org/2000/svg">
<path d="M17.1749 3.87759C16.9786 3.13853 16.4003 2.55647 15.666 2.35894C14.3351 2 8.99819 2 8.99819 2C8.99819 2 3.66131 2 2.33034 2.35894C1.59606 2.5565 1.01775 3.13853 0.821469 3.87759C0.464844 5.21719 0.464844 8.01213 0.464844 8.01213C0.464844 8.01213 0.464844 10.8071 0.821469 12.1467C1.01775 12.8857 1.59606 13.4435 2.33034 13.6411C3.66131 14 8.99819 14 8.99819 14C8.99819 14 14.3351 14 15.666 13.6411C16.4003 13.4435 16.9786 12.8857 17.1749 12.1467C17.5315 10.8071 17.5315 8.01213 17.5315 8.01213C17.5315 8.01213 17.5315 5.21719 17.1749 3.87759V3.87759ZM7.25272 10.5497V5.47453L11.7133 8.01219L7.25272 10.5497V10.5497Z" fill="white"/>
</svg>
